<svg width="172" height="162" viewBox="0 0 172 162" fill="none" xmlns="http://www.w3.org/2000/svg">
<path fill-rule="evenodd" clip-rule="evenodd" d="M143.22 95.3678V124.746C143.22 127.452 142.485 130.107 141.093 132.428C139.7 134.748 137.704 136.647 135.316 137.92L97.2496 158.244C95.0879 159.397 92.6758 160 90.2259 160C87.7761 160 85.364 159.397 83.2023 158.244L45.1359 137.92C42.7481 136.647 40.7513 134.748 39.359 132.428C37.9667 130.107 37.2313 127.452 37.2314 124.746V95.3678" fill="white"/>
<path d="M143.22 95.3678V124.746C143.22 127.452 142.485 130.107 141.093 132.428C139.7 134.748 137.704 136.647 135.316 137.92L97.2496 158.244C95.0879 159.397 92.6758 160 90.2259 160C87.7761 160 85.364 159.397 83.2023 158.244L45.1359 137.92C42.7481 136.647 40.7513 134.748 39.359 132.428C37.9667 130.107 37.2313 127.452 37.2314 124.746V95.3678" stroke="#E1E4E5" stroke-width="3"/>
<path fill-rule="evenodd" clip-rule="evenodd" d="M68.8641 27.3106L158.857 73.7592C160.067 74.3836 161.083 75.3269 161.795 76.4871C162.507 77.6472 162.888 78.9801 162.898 80.3414C162.907 81.7026 162.544 83.0405 161.847 84.2103C161.151 85.38 160.148 86.337 158.947 86.9778L125.359 104.891C123.228 106.028 120.852 106.631 118.437 106.648C116.021 106.665 113.638 106.095 111.491 104.988L21.5199 58.5249C20.3101 57.9006 19.2941 56.9573 18.5818 55.7971C17.8695 54.6369 17.488 53.304 17.4787 51.9426C17.4696 50.5812 17.833 49.2433 18.5295 48.0736C19.2261 46.9039 20.2292 45.9469 21.4305 45.3063L55.0182 27.3929C57.1479 26.2619 59.5198 25.6636 61.931 25.6493C64.3423 25.635 66.7212 26.205 68.8641 27.3106Z" fill="white" stroke="#E1E4E5" stroke-width="3"/>
<path d="M111.513 27.3106L21.52 73.7592C20.3103 74.3836 19.2945 75.327 18.5823 76.4871C17.8702 77.6473 17.4889 78.9802 17.4797 80.3415C17.4705 81.7027 17.8337 83.0406 18.5301 84.2103C19.2264 85.3801 20.2294 86.3371 21.4305 86.9778L55.0183 104.891C57.1495 106.028 59.5249 106.631 61.9404 106.648C64.3559 106.665 66.7395 106.095 68.8864 104.988L158.857 58.5249C160.067 57.9006 161.083 56.9573 161.795 55.7971C162.508 54.6369 162.889 53.304 162.899 51.9426C162.908 50.5813 162.544 49.2434 161.848 48.0737C161.151 46.904 160.148 45.947 158.947 45.3063L125.359 27.3929C123.229 26.2619 120.857 25.6636 118.446 25.6493C116.035 25.635 113.656 26.205 111.513 27.3106V27.3106Z" stroke="#E1E4E5" stroke-width="3"/>
<path d="M90.1895 159.999V93.9724" stroke="#E1E4E5" stroke-width="3"/>
<path fill-rule="evenodd" clip-rule="evenodd" d="M67.308 4.99772V6.61686H65.6283C64.9271 6.61686 64.351 7.17216 64.351 7.84769C64.351 8.52353 64.9271 9.07852 65.6283 9.07852H67.308V10.6977C67.308 11.3732 67.8841 11.9285 68.5853 11.9285C69.2863 11.9285 69.8623 11.3732 69.8623 10.6977V9.08542H71.5492C72.2502 9.08542 72.8265 8.52981 72.8265 7.85428C72.8265 7.17875 72.2502 6.62345 71.5492 6.62345H69.8695V4.99772C69.8695 4.32219 69.2932 3.76689 68.5853 3.76689C67.8841 3.76689 67.308 4.32219 67.308 4.99772ZM3.49881 92.1312V94.03H1.51115C0.681806 94.03 0 94.6814 0 95.4737C0 96.2663 0.681806 96.9174 1.51115 96.9174H3.49881V98.8162C3.49881 99.6088 4.18031 100.26 5.00997 100.26C5.83931 100.26 6.52111 99.6088 6.52111 98.8162V96.9252H8.51694C9.34628 96.9252 10.0281 96.2742 10.0281 95.4815C10.0281 94.6892 9.34628 94.0379 8.51694 94.0379H6.52928V92.1312C6.52928 91.3389 5.84747 90.6875 5.00997 90.6875C4.18031 90.6875 3.49881 91.3389 3.49881 92.1312ZM67.7243 130.341V132.24H65.7366C64.907 132.24 64.2255 132.891 64.2255 133.684C64.2255 134.476 64.907 135.127 65.7366 135.127H67.7243V137.026C67.7243 137.819 68.4058 138.47 69.2354 138.47C70.0648 138.47 70.7466 137.819 70.7466 137.026V135.135H72.7424C73.5717 135.135 74.2536 134.484 74.2536 133.692C74.2536 132.899 73.5717 132.248 72.7424 132.248H70.7547V130.341C70.7547 129.549 70.0729 128.898 69.2354 128.898C68.4058 128.898 67.7243 129.549 67.7243 130.341ZM165.282 105.952V107.851H163.294C162.465 107.851 161.783 108.502 161.783 109.294C161.783 110.087 162.465 110.738 163.294 110.738H165.282V112.637C165.282 113.429 165.964 114.081 166.793 114.081C167.623 114.081 168.304 113.429 168.304 112.637V110.746H170.3C171.129 110.746 171.811 110.095 171.811 109.302C171.811 108.51 171.129 107.859 170.3 107.859H168.312V105.952C168.312 105.16 167.631 104.508 166.793 104.508C165.964 104.508 165.282 105.16 165.282 105.952ZM88.902 15.0603V17.1152H86.7245C85.8157 17.1152 85.0689 17.8199 85.0689 18.6775C85.0689 19.5351 85.8157 20.2398 86.7245 20.2398H88.902V22.2946C88.902 23.1522 89.6488 23.857 90.5576 23.857C91.4667 23.857 92.2135 23.1522 92.2135 22.2946V20.2483H94.3998C95.3089 20.2483 96.0557 19.5436 96.0557 18.686C96.0557 17.8284 95.3089 17.1237 94.3998 17.1237H92.2222V15.0603C92.2222 14.2027 91.4755 13.498 90.5576 13.498C89.6488 13.498 88.902 14.2027 88.902 15.0603ZM113.979 2.31978V5.37096H110.93C109.658 5.37096 108.612 6.41721 108.612 7.69073C108.612 8.96425 109.658 10.0105 110.93 10.0105H113.979V13.0617C113.979 14.3349 115.024 15.3815 116.296 15.3815C117.569 15.3815 118.614 14.3349 118.614 13.0617V10.0231H121.676C122.948 10.0231 123.993 8.97681 123.993 7.70329C123.993 6.43008 122.948 5.38351 121.676 5.38351H118.627V2.31978C118.627 1.04657 117.581 0 116.296 0C115.024 0 113.979 1.04657 113.979 2.31978Z" fill="#E1E4E5"/>
<path d="M90.3994 84.4263C105.575 84.4263 117.878 72.2002 117.878 57.1185C117.878 42.0369 105.575 29.8108 90.3994 29.8108C75.2234 29.8108 62.9209 42.0369 62.9209 57.1185C62.9209 72.2002 75.2234 84.4263 90.3994 84.4263Z" fill="url(#paint0_linear_406_10877)"/>
<path d="M100.128 51.9977L87.9702 64.2862L80.6709 56.9144" stroke="white" stroke-width="6" stroke-linecap="round" stroke-linejoin="round"/>
<defs>
<linearGradient id="paint0_linear_406_10877" x1="62.9209" y1="57.1201" x2="117.879" y2="57.1201" gradientUnits="userSpaceOnUse">
<stop stop-color="#9747FF"/>
<stop offset="1" stop-color="#81E2B4"/>
</linearGradient>
</defs>
</svg>
