<svg width="158" height="40" viewBox="0 0 158 40" fill="none" xmlns="http://www.w3.org/2000/svg">
  <path
    d="M77.8784 17.3062C77.5286 17.3062 77.2394 17.4183 77.0107 17.6403C76.7798 17.8622 76.6655 18.1559 76.6655 18.5214V25.2318C76.6655 25.8035 76.5063 26.3192 76.1902 26.7788C75.8718 27.2384 75.448 27.6038 74.9167 27.8729C74.3853 28.1419 73.7777 28.2765 73.0962 28.2765C72.3832 28.2765 71.7397 28.1374 71.168 27.8594C70.5963 27.5814 70.1457 27.1532 69.8116 26.5748C69.4775 25.9963 69.3116 25.2632 69.3116 24.3731V18.5191C69.3116 18.1694 69.1973 17.8802 68.9663 17.6515C68.7354 17.4206 68.4462 17.3062 68.0987 17.3062C67.7489 17.3062 67.4597 17.4206 67.231 17.6515C67.0001 17.8824 66.8857 18.1716 66.8857 18.5191V24.3731C66.8857 25.6892 67.1346 26.8012 67.6346 27.7047C68.1346 28.6083 68.8161 29.2966 69.6815 29.7629C70.547 30.2315 71.5267 30.4647 72.6209 30.4647C73.6836 30.4647 74.6319 30.2337 75.4637 29.7741C75.9166 29.523 76.3157 29.2226 76.6655 28.8751V29.1329C76.6655 29.4827 76.7798 29.7719 77.0107 30.0006C77.2417 30.2315 77.5309 30.3458 77.8784 30.3458C78.2438 30.3458 78.5376 30.2315 78.7595 30.0006C78.9815 29.7719 79.0936 29.4804 79.0936 29.1329V18.5191C79.0936 18.1537 78.9815 17.86 78.7595 17.638C78.5376 17.4183 78.2438 17.3062 77.8784 17.3062Z"
    fill="#424867" />
  <path
    d="M91.8487 18.1044C90.9295 17.526 89.8892 17.2367 88.73 17.2367C87.7929 17.2367 86.9342 17.4318 86.1472 17.8197C85.3625 18.2075 84.6921 18.7366 84.1361 19.4025V12.9746C84.1361 12.6092 84.024 12.3155 83.8021 12.0935C83.5801 11.8716 83.2864 11.7595 82.9209 11.7595C82.5712 11.7595 82.282 11.8716 82.0533 12.0935C81.8224 12.3155 81.708 12.6092 81.708 12.9746V23.826C81.7237 25.0793 82.0174 26.2048 82.5891 27.2048C83.1608 28.2047 83.9366 28.9939 84.9208 29.5724C85.9051 30.1508 87.0149 30.44 88.2525 30.44C89.5058 30.44 90.6245 30.1508 91.6088 29.5724C92.593 28.9939 93.3733 28.2047 93.954 27.2048C94.5324 26.2048 94.8216 25.0793 94.8216 23.826C94.8216 22.5728 94.5548 21.4495 94.0235 20.4585C93.4943 19.4675 92.7702 18.6828 91.8487 18.1044ZM91.9317 26.1129C91.5595 26.7945 91.055 27.3303 90.4205 27.7182C89.786 28.1061 89.0641 28.3011 88.2547 28.3011C87.4611 28.3011 86.7436 28.1061 86.1001 27.7182C85.4567 27.3303 84.9545 26.7945 84.589 26.1129C84.2236 25.4313 84.042 24.6691 84.042 23.8283C84.042 22.9718 84.2236 22.2095 84.589 21.5437C84.9545 20.8778 85.4567 20.3509 86.1001 19.9608C86.7436 19.5729 87.4611 19.3779 88.2547 19.3779C89.0641 19.3779 89.786 19.5729 90.4205 19.9608C91.055 20.3487 91.5595 20.8778 91.9317 21.5437C92.3038 22.2095 92.4899 22.9718 92.4899 23.8283C92.4922 24.6691 92.3061 25.4291 91.9317 26.1129Z"
    fill="#424867" />
  <path
    d="M106.279 18.0551C105.391 17.508 104.328 17.2345 103.091 17.2345C101.837 17.2345 100.725 17.517 99.759 18.0797C98.7905 18.6425 98.0327 19.4205 97.4856 20.4114C96.9386 21.4024 96.665 22.5503 96.665 23.8507C96.665 25.1354 96.9543 26.2743 97.5327 27.2653C98.1111 28.2563 98.9138 29.0343 99.9362 29.597C100.959 30.1598 102.129 30.4423 103.447 30.4423C104.176 30.4423 104.943 30.3078 105.743 30.0387C106.543 29.7697 107.214 29.4199 107.754 28.9917C108.023 28.7854 108.151 28.5388 108.135 28.2541C108.12 27.9693 107.976 27.707 107.707 27.4693C107.501 27.2945 107.259 27.2115 106.981 27.2205C106.703 27.2295 106.445 27.3191 106.207 27.494C105.889 27.7317 105.474 27.9424 104.958 28.124C104.443 28.3056 103.938 28.3975 103.447 28.3975C102.544 28.3975 101.741 28.2002 101.044 27.8034C100.344 27.4066 99.7971 26.8685 99.4026 26.1847C99.1358 25.7273 98.9631 25.2273 98.8757 24.6848H107.924C108.243 24.6848 108.503 24.5861 108.709 24.3866C108.915 24.1893 109.019 23.9382 109.019 23.6377C109.019 22.3844 108.785 21.2769 108.317 20.3173C107.846 19.3577 107.169 18.6044 106.279 18.0551ZM100.77 19.8756C101.414 19.4788 102.187 19.2815 103.091 19.2815C103.884 19.2815 104.557 19.4631 105.113 19.8285C105.669 20.194 106.097 20.6895 106.398 21.315C106.611 21.7611 106.752 22.2499 106.821 22.779H98.8981C98.9788 22.3261 99.1133 21.9002 99.3039 21.5056C99.6402 20.8173 100.127 20.2724 100.77 19.8756Z"
    fill="#424867" />
  <path
    d="M135.745 17.6515C135.277 17.3421 134.568 17.1874 133.615 17.1874C132.662 17.1874 131.79 17.4094 130.997 17.8533C130.463 18.1537 130.003 18.5237 129.615 18.9631V18.5192C129.615 18.1223 129.517 17.8264 129.317 17.6268C129.118 17.4295 128.822 17.3287 128.425 17.3287C128.044 17.3287 127.75 17.4318 127.544 17.6381C127.338 17.8443 127.234 18.138 127.234 18.5192V29.1576C127.234 29.5544 127.338 29.8526 127.544 30.0499C127.75 30.2495 128.044 30.3481 128.425 30.3481C128.822 30.3481 129.118 30.245 129.317 30.0387C129.515 29.8324 129.615 29.5387 129.615 29.1576V22.2095C129.615 21.4809 129.849 20.8778 130.317 20.4002C130.786 19.9249 131.425 19.5998 132.234 19.425C133.043 19.2501 133.956 19.2658 134.972 19.472C135.178 19.5191 135.368 19.5281 135.543 19.4967C135.718 19.4653 135.873 19.3891 136.007 19.2702C136.142 19.1514 136.234 18.981 136.281 18.7591C136.393 18.3308 136.214 17.9609 135.745 17.6515Z"
    fill="#424867" />
  <path
    d="M145.94 23.5884C145.25 23.2229 144.31 22.9225 143.12 22.6848C142.263 22.51 141.613 22.3328 141.169 22.149C140.725 21.9674 140.427 21.7611 140.277 21.5302C140.127 21.3015 140.05 21.0414 140.05 20.7567C140.05 20.2971 140.293 19.9473 140.777 19.7097C141.261 19.472 141.851 19.3532 142.55 19.3532C143.153 19.3532 143.685 19.4249 144.144 19.5662C144.604 19.7097 145.032 19.9698 145.429 20.3509C145.667 20.5729 145.96 20.7163 146.31 20.7791C146.66 20.8419 146.96 20.7881 147.214 20.6132C147.467 20.4226 147.602 20.1895 147.617 19.9115C147.633 19.6334 147.53 19.3689 147.308 19.1133C146.833 18.5259 146.189 18.0663 145.38 17.7322C144.57 17.3981 143.642 17.2322 142.595 17.2322C141.786 17.2322 141.008 17.3623 140.263 17.6246C139.517 17.8869 138.907 18.2837 138.432 18.8151C137.956 19.3465 137.719 20.0168 137.719 20.8262C137.719 21.7454 138.08 22.5234 138.802 23.1579C139.524 23.7924 140.685 24.2677 142.288 24.5861C143.526 24.808 144.378 25.095 144.846 25.4425C145.315 25.7923 145.539 26.2048 145.525 26.6801C145.51 27.1554 145.259 27.5456 144.777 27.846C144.292 28.1487 143.591 28.2989 142.671 28.2989C141.94 28.2989 141.279 28.1688 140.685 27.9065C140.091 27.6442 139.658 27.364 139.389 27.0613C139.167 26.8236 138.9 26.6846 138.591 26.6443C138.281 26.6039 137.968 26.7115 137.651 26.9649C137.382 27.1711 137.228 27.4379 137.187 27.763C137.147 28.0881 137.248 28.3774 137.486 28.6307C138.008 29.1531 138.743 29.5858 139.687 29.9266C140.631 30.2674 141.658 30.4378 142.77 30.4378C143.896 30.4378 144.837 30.2629 145.59 29.9131C146.344 29.5634 146.916 29.097 147.303 28.5096C147.691 27.9222 147.886 27.2653 147.886 26.5344C147.886 25.8999 147.736 25.3417 147.433 24.8574C147.126 24.3798 146.631 23.9538 145.94 23.5884Z"
    fill="#424867" />
  <path
    d="M157.22 28.3011C157.023 28.0792 156.781 27.9671 156.494 27.9671H155.684C155.175 27.9671 154.747 27.7518 154.399 27.3236C154.05 26.8954 153.877 26.364 153.877 25.7295V19.8532H155.899C156.233 19.8532 156.503 19.759 156.709 19.5684C156.915 19.3779 157.018 19.1402 157.018 18.8555C157.018 18.5393 156.915 18.2837 156.709 18.0932C156.503 17.9026 156.233 17.8084 155.899 17.8084H153.877V14.3781C153.877 14.0284 153.765 13.7436 153.543 13.5217C153.321 13.2997 153.034 13.1876 152.687 13.1876C152.337 13.1876 152.052 13.2997 151.83 13.5217C151.608 13.7436 151.496 14.0306 151.496 14.3781V17.8062H150.402C150.068 17.8062 149.799 17.9004 149.593 18.0909C149.386 18.2815 149.283 18.5349 149.283 18.8532C149.283 19.138 149.386 19.3779 149.593 19.5662C149.799 19.7568 150.068 19.8509 150.402 19.8509H151.496V25.7295C151.496 26.6017 151.678 27.3886 152.043 28.0859C152.409 28.7854 152.909 29.3347 153.543 29.7405C154.178 30.1441 154.891 30.3481 155.684 30.3481H156.112C156.525 30.3481 156.861 30.2382 157.124 30.014C157.386 29.7921 157.516 29.5073 157.516 29.1576C157.518 28.8101 157.42 28.5231 157.22 28.3011Z"
    fill="#424867" />
  <path
    d="M122.632 11.3469C122.123 11.3469 121.724 11.4747 121.446 11.7281C121.168 11.9792 121.026 12.3558 121.026 12.8446C121.026 13.3154 121.168 13.6876 121.446 13.9477C121.724 14.21 122.123 14.3423 122.632 14.3423C123.156 14.3423 123.56 14.21 123.831 13.9499C124.1 13.6898 124.237 13.3177 124.237 12.8468C124.237 12.3581 124.1 11.9814 123.831 11.7303C123.56 11.4747 123.156 11.3469 122.632 11.3469Z"
    fill="#424867" />
  <path
    d="M122.576 17.3668H115.072V16.7031C115.072 15.6897 115.307 14.9095 115.771 14.3804C116.235 13.8535 116.984 13.5486 118 13.4746L118.728 13.4208C118.914 13.4051 119.071 13.3221 119.199 13.1786C119.329 13.0329 119.421 12.8513 119.473 12.6428C119.524 12.4365 119.515 12.2303 119.448 12.033C119.379 11.8379 119.248 11.681 119.06 11.5689C118.872 11.4568 118.616 11.4187 118.302 11.4523L117.491 11.5061C115.836 11.6653 114.565 12.2078 113.713 13.1136C112.861 14.0194 112.428 15.3534 112.428 17.0798V17.3645H110.875C110.545 17.3645 110.283 17.4519 110.092 17.6246C109.904 17.795 109.81 18.0483 109.81 18.3757C109.81 18.6873 109.906 18.9362 110.094 19.1155C110.283 19.2949 110.545 19.3868 110.875 19.3868H112.428V29.3078C112.428 29.727 112.547 30.0566 112.78 30.2898C113.013 30.523 113.345 30.6418 113.762 30.6418C114.643 30.6418 115.069 30.2046 115.069 29.3055V19.3891H121.266V29.1755C121.266 29.6306 121.381 29.9894 121.607 30.2405C121.831 30.4916 122.156 30.6171 122.576 30.6171C123.029 30.6171 123.367 30.4893 123.582 30.2405C123.8 29.9894 123.91 29.6306 123.91 29.1733V18.7837C123.91 18.3465 123.795 17.9968 123.569 17.7457C123.347 17.4945 123.013 17.3668 122.576 17.3668Z"
    fill="#424867" />
  <path
    d="M64.3437 28.5477L59.4381 22.5032L64.1083 18.3129C64.3571 18.0999 64.4894 17.8398 64.4984 17.5439C64.5073 17.2502 64.3953 16.9744 64.1666 16.7278C63.9536 16.4789 63.6935 16.3466 63.3975 16.3377C63.1016 16.3287 62.8326 16.4408 62.6061 16.6695L56.324 22.2858V11.9029C56.324 11.5509 56.2119 11.2595 55.9876 11.0353C55.7657 10.8133 55.472 10.699 55.12 10.699C54.7657 10.699 54.4743 10.8111 54.2523 11.0353C54.0304 11.2572 53.916 11.5487 53.916 11.9029V29.0993C53.916 29.4535 54.0281 29.745 54.2523 29.967C54.4743 30.1889 54.7657 30.3033 55.12 30.3033C55.472 30.3033 55.7657 30.1912 55.9876 29.967C56.2096 29.745 56.324 29.4513 56.324 29.0993V25.2968L57.705 24.057L62.5209 29.9961C62.7339 30.2629 63.0007 30.4109 63.3124 30.4378C63.346 30.44 63.3796 30.4423 63.4132 30.4423C63.6868 30.4423 63.9446 30.3459 64.1823 30.1553C64.4468 29.9266 64.5948 29.662 64.6217 29.3661C64.6508 29.0724 64.5567 28.7966 64.3437 28.5477Z"
    fill="#424867" />
  <path
    d="M43.0379 12.0061C39.8453 13.9723 36.4643 14.8579 36.4643 14.8579C36.4643 14.8579 36.8589 11.9792 34.3344 10.0353C28.7361 5.71942 22.1512 9.7304 16.0484 15.2817C10.9164 19.9496 6.29785 30.2158 3.99305 35.3187C2.29359 39.0853 0 40 0 40C0 40 2.44829 39.5561 5.09388 36.906C10.9904 30.996 15.8399 24.7071 19.9226 25.7071C25.4784 27.068 29.4087 27.2608 32.5027 26.6958C41.1053 23.3911 41.7331 16.721 43.0379 12.0061Z"
    fill="url(#paint0_linear_284_6207)" />
  <path
    d="M32.5928 26.6779C32.6399 26.6689 32.6847 26.6599 32.7295 26.651C32.6847 26.6622 32.6399 26.6711 32.5928 26.6779Z"
    fill="url(#paint1_linear_284_6207)" />
  <path
    d="M21.7319 16.5148L20.9359 16.952L20.501 17.7501L20.0638 16.952L19.2656 16.517L20.0615 16.0798L20.4965 15.2817L20.9337 16.0798L21.7319 16.5148Z"
    fill="url(#paint2_linear_284_6207)" />
  <path
    d="M27.6491 17.4161L26.9989 17.7726L26.6447 18.4227L26.2882 17.7726L25.6357 17.4183L26.2859 17.0618L26.6424 16.4117L26.9989 17.0618L27.6491 17.4161Z"
    fill="url(#paint3_linear_284_6207)" />
  <path
    d="M22.245 21.2522L21.8325 21.4786L21.6061 21.8934L21.3796 21.4786L20.9648 21.2522L21.3796 21.0257L21.6038 20.6132L21.8325 21.0257L22.245 21.2522Z"
    fill="url(#paint4_linear_284_6207)" />
  <path
    d="M33.1152 13.3087L32.7026 13.5351L32.4762 13.9477L32.2497 13.5351L31.835 13.3087L32.2497 13.0823L32.4739 12.6675L32.7004 13.0823L33.1152 13.3087Z"
    fill="url(#paint5_linear_284_6207)" />
  <path
    d="M17.4051 20.4899L16.7123 20.8688L16.3356 21.5616L15.9545 20.871L15.2617 20.4921L15.9545 20.1132L16.3312 19.4204L16.7123 20.1132L17.4051 20.4899Z"
    fill="url(#paint6_linear_284_6207)" />
  <path
    d="M14.8554 24.4112L14.4429 24.6376L14.2164 25.0524L13.99 24.6376L13.5752 24.4134L13.99 24.187L14.2164 23.7722L14.4429 24.1848L14.8554 24.4112Z"
    fill="url(#paint7_linear_284_6207)" />
  <path
    d="M25.2089 13.9477L24.7964 14.1741L24.5699 14.5889L24.3435 14.1741L23.9287 13.9499L24.3435 13.7235L24.5677 13.3087L24.7964 13.7212L25.2089 13.9477Z"
    fill="url(#paint8_linear_284_6207)" />
  <path
    d="M16.0487 15.2817C17.6091 13.8625 19.1987 12.5464 20.7973 11.4411C17.4028 9.24389 14.5532 4.13655 13.7551 1.31384C12.0646 -4.65892 2.95522 11.0398 10.8315 21.9293C12.4502 19.3285 14.2169 16.9497 16.0487 15.2817Z"
    fill="url(#paint9_linear_284_6207)" />
  <path
    d="M44.6793 8.37399C49.522 2.60974 47.9975 23.8731 32.4961 26.6981C43.7443 22.3822 41.3678 12.3155 44.6793 8.37399Z"
    fill="#3C356C" />
  <path
    d="M5.11836 27.985L7.05548 28.7876C8.00609 26.8774 9.07106 24.8641 10.219 22.9382C7.88951 24.4785 5.90083 25.9851 4.90986 26.8505C4.52871 27.1846 4.64306 27.8079 5.11836 27.985Z"
    fill="#3C356C" />
  <path
    d="M19.9228 25.7071C17.3624 25.0793 14.5016 27.3191 11.2686 30.5342L18.4408 33.5049C18.7412 33.617 19.0798 33.5026 19.2479 33.2291C19.8914 32.1888 21.3689 29.2854 22.4764 26.2743C21.6648 26.1129 20.8151 25.9246 19.9228 25.7071Z"
    fill="#3C356C" />
  <defs>
    <linearGradient id="paint0_linear_284_6207" x1="-0.375987" y1="32.6602" x2="37.972" y2="13.2598"
      gradientUnits="userSpaceOnUse">
      <stop stop-color="#D0BAE9" />
      <stop offset="0.0777" stop-color="#B3A0D1" />
      <stop offset="0.2631" stop-color="#73679B" />
      <stop offset="0.3984" stop-color="#4B4379" />
      <stop offset="0.4684" stop-color="#3C356C" />
      <stop offset="0.6486" stop-color="#3C356C" />
      <stop offset="0.72" stop-color="#3E3870" />
      <stop offset="0.7837" stop-color="#44437A" />
      <stop offset="0.8446" stop-color="#4D548D" />
      <stop offset="0.9037" stop-color="#5B6CA6" />
      <stop offset="0.9609" stop-color="#6C8BC7" />
      <stop offset="1" stop-color="#7AA5E2" />
    </linearGradient>
    <linearGradient id="paint1_linear_284_6207" x1="32.6088" y1="26.6923" x2="32.7102" y2="26.641"
      gradientUnits="userSpaceOnUse">
      <stop stop-color="#D0BAE9" />
      <stop offset="0.0777" stop-color="#B3A0D1" />
      <stop offset="0.2631" stop-color="#73679B" />
      <stop offset="0.3984" stop-color="#4B4379" />
      <stop offset="0.4684" stop-color="#3C356C" />
      <stop offset="0.6486" stop-color="#3C356C" />
      <stop offset="0.72" stop-color="#3E3870" />
      <stop offset="0.7837" stop-color="#44437A" />
      <stop offset="0.8446" stop-color="#4D548D" />
      <stop offset="0.9037" stop-color="#5B6CA6" />
      <stop offset="0.9609" stop-color="#6C8BC7" />
      <stop offset="1" stop-color="#7AA5E2" />
    </linearGradient>
    <linearGradient id="paint2_linear_284_6207" x1="19.2649" y1="16.5159" x2="21.7319" y2="16.5159"
      gradientUnits="userSpaceOnUse">
      <stop stop-color="white" />
      <stop offset="1" stop-color="#D0BAE9" />
    </linearGradient>
    <linearGradient id="paint3_linear_284_6207" x1="25.6368" y1="17.4171" x2="27.6492" y2="17.4171"
      gradientUnits="userSpaceOnUse">
      <stop stop-color="white" />
      <stop offset="1" stop-color="#D0BAE9" />
    </linearGradient>
    <linearGradient id="paint4_linear_284_6207" x1="20.9655" y1="21.2523" x2="22.2457" y2="21.2523"
      gradientUnits="userSpaceOnUse">
      <stop stop-color="white" />
      <stop offset="1" stop-color="#D0BAE9" />
    </linearGradient>
    <linearGradient id="paint5_linear_284_6207" x1="31.8354" y1="13.3085" x2="33.1155" y2="13.3085"
      gradientUnits="userSpaceOnUse">
      <stop stop-color="white" />
      <stop offset="1" stop-color="#D0BAE9" />
    </linearGradient>
    <linearGradient id="paint6_linear_284_6207" x1="15.2624" y1="20.4917" x2="17.4044" y2="20.4917"
      gradientUnits="userSpaceOnUse">
      <stop stop-color="white" />
      <stop offset="1" stop-color="#D0BAE9" />
    </linearGradient>
    <linearGradient id="paint7_linear_284_6207" x1="13.576" y1="24.412" x2="14.8562" y2="24.412"
      gradientUnits="userSpaceOnUse">
      <stop stop-color="white" />
      <stop offset="1" stop-color="#D0BAE9" />
    </linearGradient>
    <linearGradient id="paint8_linear_284_6207" x1="23.9292" y1="13.9485" x2="25.2094" y2="13.9485"
      gradientUnits="userSpaceOnUse">
      <stop stop-color="white" />
      <stop offset="1" stop-color="#D0BAE9" />
    </linearGradient>
    <linearGradient id="paint9_linear_284_6207" x1="11.4009" y1="-0.369135" x2="15.8994" y2="20.2743"
      gradientUnits="userSpaceOnUse">
      <stop offset="0.1096" stop-color="#7AA5E2" />
      <stop offset="0.1498" stop-color="#749AD7" />
      <stop offset="0.3265" stop-color="#5C6FA9" />
      <stop offset="0.4837" stop-color="#4B4F88" />
      <stop offset="0.6141" stop-color="#403C73" />
      <stop offset="0.7015" stop-color="#3C356C" />
    </linearGradient>
  </defs>
</svg>