<svg width="200" height="199" viewBox="0 0 200 199" fill="none" xmlns="http://www.w3.org/2000/svg">
<path d="M178.679 197.962C190.454 197.962 200 195.78 200 193.089C200 190.398 190.454 188.216 178.679 188.216C166.903 188.216 157.357 190.398 157.357 193.089C157.357 195.78 166.903 197.962 178.679 197.962Z" fill="#D1D5DB"/>
<path d="M82.9288 198.55C122.872 198.55 155.253 194.939 155.253 190.485C155.253 186.03 122.872 182.419 82.9288 182.419C42.9852 182.419 10.6045 186.03 10.6045 190.485C10.6045 194.939 42.9852 198.55 82.9288 198.55Z" fill="#D1D5DB"/>
<path d="M182.129 79.42L179.155 78.7758L178.482 75.8075C178.454 75.6954 178.37 75.6394 178.258 75.6394C178.145 75.6394 178.061 75.7234 178.033 75.8075L177.36 78.8038L174.386 79.5039C174.274 79.5319 174.218 79.616 174.218 79.728C174.218 79.8401 174.302 79.924 174.414 79.952L177.388 80.5961L178.061 83.5645C178.089 83.6766 178.173 83.7326 178.286 83.7326C178.398 83.7326 178.482 83.6486 178.51 83.5645L179.183 80.5682L182.157 79.8681C182.269 79.8401 182.325 79.756 182.325 79.6439C182.325 79.5319 182.241 79.42 182.129 79.42Z" fill="#1E293B"/>
<path d="M38.7712 72.9789L35.7974 72.3348L35.1242 69.3664C35.0961 69.2544 35.0119 69.1984 34.8997 69.1984C34.7875 69.1984 34.7033 69.2824 34.6753 69.3664L34.002 72.3628L31.0282 73.0629C30.916 73.0909 30.8599 73.175 30.8599 73.287C30.8599 73.399 30.944 73.483 31.0563 73.511L34.03 74.155L34.7033 77.1235C34.7314 77.2355 34.8155 77.2916 34.9278 77.2916C35.04 77.2916 35.1241 77.2075 35.1522 77.1235L35.8255 74.1271L38.7993 73.427C38.9115 73.399 38.9676 73.3149 38.9676 73.2029C38.9676 73.0909 38.8834 72.9789 38.7712 72.9789Z" fill="#1E293B"/>
<path d="M167.092 67.4901L165.549 67.154L165.212 65.6137C165.212 65.5577 165.156 65.5298 165.1 65.5298C165.044 65.5298 164.988 65.5577 164.988 65.6137L164.623 67.154L163.08 67.5181C163.024 67.5181 162.996 67.5741 162.996 67.6301C162.996 67.6861 163.024 67.7421 163.08 67.7421L164.623 68.0782L164.96 69.6184C164.96 69.6744 165.016 69.7024 165.072 69.7024C165.128 69.7024 165.184 69.6744 165.184 69.6184L165.549 68.0782L167.092 67.7141C167.148 67.7141 167.176 67.6581 167.176 67.6021C167.176 67.5461 167.148 67.5181 167.092 67.4901Z" fill="#1E293B"/>
<path d="M68.6211 129.716L71.0338 120.586L99.6774 128.483L107.589 143.998L138.336 148.843L142.601 175.306L68.6211 129.716Z" fill="url(#paint0_linear_418_9310)"/>
<path d="M142.601 175.306C131.94 189.896 122.205 198.102 103.324 198.102C78.4402 198.102 58.269 177.967 58.269 153.127C58.269 140.917 63.1505 129.855 71.0619 121.734L82.0311 134.896L108.206 139.769L116.117 155.563L130.116 153.127L142.601 175.306Z" fill="url(#paint1_linear_418_9310)"/>
<path d="M103.325 198.942C78.0197 198.942 57.4277 178.387 57.4277 153.127C57.4277 141.113 62.0567 129.743 70.445 121.146L71.0902 120.474L82.4523 134.112L108.739 138.985L116.566 154.611L130.538 152.175L143.583 175.362L143.274 175.81C132.586 190.456 122.598 198.942 103.325 198.942ZM71.006 122.994C63.3191 131.2 59.111 141.869 59.111 153.127C59.111 177.463 78.9455 197.262 103.325 197.262C121.7 197.262 131.351 189.196 141.619 175.25L129.696 154.051L115.669 156.487L107.645 140.497L81.5826 135.652L71.006 122.994Z" fill="url(#paint2_linear_418_9310)"/>
<path d="M76.8413 77.4316L59.167 103.868L76.2241 105.996L96.6196 93.2259L101.501 98.0986L116.707 94.1501L137.13 104.792L148.997 103.868L128.602 76.8154L76.8413 77.4316Z" fill="url(#paint3_linear_418_9310)"/>
<path d="M128.91 58.7248C124.029 49.6514 122.345 39.5419 121.532 34.053C121.167 31.6167 119.063 29.8524 116.622 29.8524H107.757H100.603H91.7379C89.2691 29.8524 87.1931 31.6447 86.8284 34.053C85.9868 39.5139 84.3316 49.6514 79.4501 58.7248C73.8953 69.0023 61.9441 88.3532 60.4292 101.431L79.927 81.6882L96.9841 95.0742L100.94 92.6377L115.556 101.459L128.658 82.3042L147.987 101.459C146.416 88.3531 134.437 69.0303 128.91 58.7248Z" fill="url(#paint4_linear_418_9310)"/>
<path d="M59.2788 103.756L59.5594 101.319C60.8499 90.2014 69.3503 75.0232 75.5504 63.9615C76.7006 61.9172 77.7667 59.9849 78.6644 58.3326C83.6581 49.0913 85.2572 38.4778 85.9586 33.9411C86.4074 31.0847 88.8201 29.0123 91.7097 29.0123H116.566C119.456 29.0123 121.896 31.0847 122.317 33.9411C123.018 38.4778 124.618 49.0913 129.611 58.3326C130.509 59.9849 131.575 61.9172 132.725 63.9615C138.925 75.0512 147.426 90.2014 148.716 101.319L148.997 103.699L128.685 83.5645L115.724 102.523L100.855 93.562L96.8437 96.0263L79.9269 82.7524L59.2788 103.756ZM100.883 91.6297L115.247 100.311L128.461 80.9882L146.696 99.0228C144.592 88.4932 136.962 74.9111 131.295 64.7736C130.144 62.7293 129.05 60.7971 128.152 59.1168C123.018 49.6234 121.391 38.8138 120.662 34.1931C120.353 32.1768 118.642 30.6926 116.566 30.6926H91.7097C89.6617 30.6926 87.9224 32.1768 87.6138 34.1931C86.9124 38.8138 85.2572 49.6234 80.1232 59.1168C79.2255 60.7971 78.1314 62.7293 76.9811 64.7736C71.3141 74.8831 63.7114 88.4372 61.6073 98.9668L79.7866 80.5401L96.9559 94.0101L100.883 91.6297Z" fill="url(#paint5_linear_418_9310)"/>
<path d="M103.128 121.426L102.904 119.774C107.252 119.186 109.889 116.862 110.647 116.077C110.226 115.937 109.833 115.797 109.384 115.601C107.841 114.957 104.812 113.081 104.559 110.505C104.391 108.852 105.345 107.312 107.393 105.912C108.851 104.932 111.657 104.876 113.284 106.416C114.603 107.648 115.556 110.141 113.172 115.013C116.342 115.657 118.586 114.985 120.017 114.201C122.374 112.885 123.496 110.757 123.776 109.188C123.804 108.964 123.86 108.74 123.888 108.544C123.804 108.572 123.72 108.6 123.636 108.628C122.037 109.104 117.464 109.02 115.921 106.696C114.911 105.184 115.36 103.223 117.268 100.927C118.334 99.6389 120.634 98.8548 122.682 99.7789C123.917 100.339 125.684 101.851 125.768 105.884C126.975 105.1 127.872 104.064 128.405 102.775C130.622 97.5946 126.806 90.0334 126.61 89.6974C126.105 88.8013 116.566 71.9988 113.789 65.9499C109.833 57.3246 108.01 27.4161 107.926 26.1279L109.609 26.0159C109.637 26.3239 111.516 56.9045 115.332 65.2217C118.081 71.2426 127.984 88.6892 128.097 88.8573L128.125 88.8853C128.293 89.2213 132.529 97.4265 129.976 103.419C129.135 105.352 127.704 106.836 125.684 107.844C125.628 108.348 125.572 108.908 125.46 109.468C125.123 111.429 123.748 114.061 120.859 115.657C119.091 116.637 116.286 117.45 112.386 116.554C112.358 116.61 112.302 116.693 112.274 116.749L112.19 116.861C112.078 117.029 109.02 120.614 103.128 121.426ZM110.03 106.892C109.356 106.892 108.739 107.06 108.374 107.312C106.859 108.32 106.158 109.356 106.27 110.337C106.439 111.877 108.571 113.445 110.058 114.033C110.591 114.257 111.068 114.425 111.573 114.593C113.228 111.317 113.452 108.824 112.19 107.648C111.601 107.088 110.787 106.892 110.03 106.892ZM120.803 101.039C119.905 101.039 119.035 101.431 118.586 101.963C117.632 103.111 116.65 104.708 117.352 105.744C118.278 107.144 121.784 107.396 123.187 107.004C123.496 106.92 123.804 106.808 124.085 106.696C124.197 103.868 123.468 101.935 122.009 101.263C121.616 101.123 121.195 101.039 120.803 101.039Z" fill="#1E293B"/>
<path d="M82.4799 119.634C79.7305 119.634 77.8789 118.794 76.9531 117.114C75.4943 114.481 77.0093 110.841 77.9631 109.468C78.8608 108.18 79.8428 107.172 80.8808 106.444C80.7405 106.276 80.6002 106.136 80.46 105.968L80.4319 105.94C80.2075 105.66 74.9613 98.9108 78.2156 92.2738C79.8428 88.9413 82.7884 84.3486 85.5939 79.8959C89.3251 74.015 93.1967 67.9382 93.6736 65.4459C95.4971 55.8404 98.1903 26.2959 98.2184 26.0159L99.9016 26.1559C99.8736 26.4639 97.1804 56.0643 95.3288 65.7538C94.7958 68.5822 91.0084 74.5192 87.0247 80.7921C84.2193 85.2168 81.3296 89.7535 79.7305 93.002C77.0093 98.5468 81.498 104.512 81.7504 104.848C81.9749 105.1 82.1713 105.324 82.3676 105.576C83.2654 105.156 84.2193 104.932 85.2012 104.904C90.5034 104.652 94.936 109.804 95.1324 110.028L93.8419 111.121C93.8138 111.065 89.746 106.388 85.2853 106.584C84.6681 106.612 84.079 106.724 83.5179 106.948C87.193 111.513 88.5116 114.873 87.5577 117.17C86.9405 118.626 85.4256 119.522 83.2934 119.634C83.0129 119.606 82.7323 119.634 82.4799 119.634ZM81.9749 107.732C81.0491 108.376 80.1514 109.272 79.3378 110.449C78.5523 111.569 77.4301 114.509 78.412 116.301C79.0853 117.506 80.6844 118.066 83.1532 117.926C83.9948 117.87 85.4817 117.646 85.9586 116.497C86.4075 115.489 86.3514 113.081 81.9749 107.732Z" fill="#1E293B"/>
<path d="M112.751 9.24139V8.93331C112.751 4.00457 108.739 0 103.801 0C98.8638 0 94.8521 4.00457 94.8521 8.93331V9.24139H112.751Z" fill="url(#paint6_linear_418_9310)"/>
<path d="M121.588 6.91699H86.0146V28.6762H121.588V6.91699Z" fill="url(#paint7_linear_418_9310)"/>
<path d="M124.169 27.2481C124.169 29.1804 122.598 30.7486 120.662 30.7486H87.1928C85.2571 30.7486 83.686 29.1804 83.686 27.2481C83.686 25.3158 85.2571 23.7476 87.1928 23.7476H120.662C122.598 23.7476 124.169 25.3158 124.169 27.2481Z" fill="white"/>
<path d="M120.662 31.6167H87.1932C84.7805 31.6167 82.8447 29.6564 82.8447 27.2761C82.8447 24.8957 84.8085 22.9354 87.1932 22.9354H120.662C123.075 22.9354 125.011 24.8957 125.011 27.2761C125.011 29.6564 123.075 31.6167 120.662 31.6167ZM87.1932 24.5876C85.7063 24.5876 84.528 25.7918 84.528 27.248C84.528 28.7323 85.7343 29.9084 87.1932 29.9084H120.662C122.149 29.9084 123.327 28.7043 123.327 27.248C123.327 25.7638 122.121 24.5876 120.662 24.5876H87.1932Z" fill="#334155"/>
<path d="M124.169 18.1747C124.169 20.107 122.598 21.6752 120.662 21.6752H87.1928C85.2571 21.6752 83.686 20.107 83.686 18.1747C83.686 16.2424 85.2571 14.6742 87.1928 14.6742H120.662C122.598 14.6742 124.169 16.2424 124.169 18.1747Z" fill="white"/>
<path d="M120.662 22.5434H87.1932C84.7805 22.5434 82.8447 20.5831 82.8447 18.2027C82.8447 15.8224 84.8085 13.8621 87.1932 13.8621H120.662C123.075 13.8621 125.011 15.8224 125.011 18.2027C125.011 20.5831 123.075 22.5434 120.662 22.5434ZM87.1932 15.5143C85.7063 15.5143 84.528 16.7185 84.528 18.1747C84.528 19.6589 85.7343 20.8351 87.1932 20.8351H120.662C122.149 20.8351 123.327 19.6309 123.327 18.1747C123.327 16.6905 122.121 15.5143 120.662 15.5143H87.1932Z" fill="#334155"/>
<path d="M124.169 9.12943C124.169 11.0617 122.598 12.63 120.662 12.63H87.1928C85.2571 12.63 83.686 11.0617 83.686 9.12943C83.686 7.19714 85.2571 5.62891 87.1928 5.62891H120.662C122.598 5.60091 124.169 7.16914 124.169 9.12943Z" fill="white"/>
<path d="M120.662 13.4701H87.1932C84.7805 13.4701 82.8447 11.5098 82.8447 9.12947C82.8447 6.74911 84.8085 4.78882 87.1932 4.78882H120.662C123.075 4.78882 125.011 6.74911 125.011 9.12947C125.011 11.5098 123.075 13.4701 120.662 13.4701ZM87.1932 6.44104C85.7063 6.44104 84.528 7.64522 84.528 9.10144C84.528 10.5857 85.7343 11.7618 87.1932 11.7618H120.662C122.149 11.7618 123.327 10.5577 123.327 9.10144C123.327 7.61721 122.121 6.44104 120.662 6.44104H87.1932Z" fill="#334155"/>
<path d="M49.2635 118.878C50.049 118.178 51.1151 117.87 52.4336 117.926C53.7522 118.01 55.4074 118.374 57.3431 119.018C59.307 119.69 60.7938 120.418 61.8319 121.23C62.8699 122.042 63.4871 122.966 63.6834 124.031C63.8798 125.095 63.8798 126.019 63.7396 126.803C63.5712 127.587 63.2626 128.679 62.7577 130.108L45.1395 181.691C44.3259 184.1 43.4001 185.78 42.4463 186.732C41.4643 187.684 40.3141 188.132 38.9675 188.076C37.6209 188.02 36.0779 187.712 34.2824 187.096C32.4869 186.48 31.1122 185.836 30.1584 185.192C29.2045 184.52 28.5313 183.876 28.1104 183.259C27.6896 182.643 27.5213 181.887 27.5494 180.991C27.5494 179.815 27.886 178.135 28.6435 175.978L32.515 164.665L7.32209 156.095C2.97365 154.611 0.813477 152.567 0.813477 149.934C0.841531 148.842 1.15012 147.47 1.7112 145.79C2.27229 144.11 2.80533 142.906 3.2542 142.177L21.5738 113.697C22.4434 112.409 23.1168 111.429 23.6498 110.785C24.1828 110.141 24.9683 109.608 26.0625 109.216C27.1285 108.824 28.3068 108.852 29.6254 109.272C30.9159 109.721 32.2905 110.421 33.6932 111.373C37.6209 114.033 39.1358 116.749 38.182 119.522C37.8453 120.502 37.172 121.734 36.1901 123.19C36.0779 123.302 36.0218 123.386 35.9937 123.442L22.5837 144.166L37.7331 149.318L46.3739 123.975C46.8508 122.546 47.2716 121.51 47.5802 120.866C47.9168 120.25 48.4779 119.578 49.2635 118.878Z" fill="white"/>
<path d="M39.164 188.916C39.1079 188.916 39.0518 188.916 38.9676 188.916C37.5649 188.86 35.8816 188.524 34.03 187.908C32.1223 187.264 30.7196 186.592 29.7096 185.892C28.6716 185.164 27.9422 184.464 27.4653 183.736C26.9603 182.979 26.7359 182.055 26.7639 180.991C26.7639 179.703 27.1286 177.995 27.8861 175.726L31.4771 165.197L7.06974 156.907C2.38465 155.311 0 152.987 0 149.962C0.0280544 148.758 0.33666 147.302 0.953857 145.538C1.543 143.802 2.07605 142.541 2.58103 141.757L20.9005 113.277C21.7983 111.933 22.4996 110.953 23.0327 110.28C23.6499 109.524 24.5757 108.908 25.782 108.46C27.0445 107.984 28.4191 108.012 29.906 108.516C31.2807 108.992 32.7115 109.72 34.1703 110.729C38.4346 113.613 40.0617 116.665 38.9676 119.83C38.6029 120.894 37.9296 122.154 36.8916 123.695L36.8355 123.779L36.7793 123.835C36.7793 123.835 36.7794 123.835 36.7513 123.863L23.8743 143.745L37.2002 148.282L45.5604 123.751C46.0654 122.266 46.4862 121.23 46.8228 120.53C47.1875 119.774 47.8047 119.046 48.7025 118.262C49.6563 117.422 50.9188 117.03 52.4898 117.114C53.8925 117.198 55.6319 117.562 57.6238 118.262C59.6437 118.962 61.2428 119.746 62.365 120.586C63.5713 121.51 64.3007 122.63 64.5252 123.919C64.7216 125.095 64.7496 126.131 64.5532 126.999C64.3849 127.811 64.0483 128.931 63.5433 130.388L45.9251 181.971C45.0554 184.548 44.1016 186.284 43.0074 187.348C41.9414 188.384 40.6509 188.916 39.164 188.916ZM27.6617 109.776C27.2128 109.776 26.7639 109.86 26.3712 110C25.4454 110.336 24.7721 110.785 24.3232 111.317C23.8182 111.933 23.1168 112.885 22.3033 114.173L3.98375 142.625C3.56293 143.297 3.08599 144.446 2.5249 146.07C1.99186 147.666 1.68327 148.954 1.68327 149.962C1.68327 152.147 3.67515 153.967 7.63082 155.283L33.6092 164.133L29.4852 176.258C28.7838 178.331 28.4191 179.927 28.4472 180.991V181.019V181.047C28.4191 181.775 28.5594 182.335 28.8961 182.811C29.2608 183.343 29.8499 183.932 30.7196 184.52C31.5893 185.136 32.9078 185.752 34.6192 186.34C36.3305 186.928 37.8174 187.236 39.0798 187.264C40.174 187.292 41.1278 186.928 41.9414 186.144C42.8111 185.304 43.6527 183.708 44.4382 181.439L62.0564 129.856C62.5333 128.483 62.8419 127.391 63.0102 126.663C63.1505 125.991 63.1225 125.179 62.9541 124.227C62.8139 123.359 62.3089 122.63 61.4111 121.93C60.4573 121.202 59.0265 120.502 57.1749 119.858C55.2953 119.214 53.7242 118.878 52.4898 118.794C51.3957 118.738 50.5541 118.962 49.9088 119.522C49.2075 120.138 48.7025 120.726 48.4219 121.286C48.1133 121.902 47.7206 122.91 47.2437 124.283L38.3223 150.411L21.3494 144.642L35.2925 123.078C35.3486 122.966 35.4328 122.826 35.573 122.714C36.4988 121.342 37.116 120.194 37.4246 119.298C38.2382 116.89 36.8916 114.537 33.2725 112.101C31.9259 111.177 30.6354 110.505 29.4291 110.085C28.7558 109.888 28.1947 109.776 27.6617 109.776Z" fill="#334155"/>
<path d="M170.403 124.479C170.823 123.498 171.637 122.77 172.843 122.266C174.078 121.762 175.705 121.37 177.753 121.118C179.801 120.866 181.456 120.866 182.746 121.146C184.037 121.426 184.991 121.986 185.636 122.854C186.281 123.722 186.674 124.563 186.87 125.319C187.067 126.075 187.263 127.223 187.432 128.707L194.08 182.811C194.389 185.332 194.305 187.236 193.856 188.524C193.379 189.812 192.537 190.708 191.331 191.241C190.125 191.773 188.554 192.165 186.674 192.417C184.794 192.641 183.28 192.669 182.129 192.473C180.979 192.277 180.081 191.997 179.464 191.605C178.819 191.213 178.314 190.624 177.949 189.812C177.416 188.748 177.023 187.096 176.743 184.828L175.284 172.954L148.857 176.202C144.312 176.762 141.45 175.866 140.3 173.486C139.851 172.478 139.515 171.105 139.29 169.369C139.066 167.605 139.01 166.317 139.094 165.449L143.162 131.872C143.358 130.331 143.582 129.155 143.779 128.343C143.975 127.531 144.48 126.719 145.266 125.879C146.051 125.067 147.145 124.563 148.492 124.395C149.867 124.227 151.382 124.283 153.065 124.535C157.75 125.207 160.303 126.999 160.64 129.911C160.78 130.947 160.696 132.348 160.471 134.084C160.415 134.224 160.415 134.336 160.415 134.392L157.385 158.868L173.264 156.907L170.01 130.359C169.813 128.875 169.729 127.755 169.757 127.027C169.785 126.299 169.982 125.459 170.403 124.479Z" fill="white"/>
<path d="M183.897 193.425C183.195 193.425 182.55 193.369 181.989 193.285C180.726 193.089 179.745 192.753 179.015 192.333C178.23 191.857 177.612 191.129 177.192 190.176C176.63 189.028 176.21 187.32 175.901 184.94L174.554 173.906L148.969 177.043C144.031 177.659 140.889 176.566 139.571 173.878C139.066 172.786 138.729 171.358 138.505 169.481C138.28 167.661 138.224 166.317 138.308 165.365L142.404 131.76C142.629 130.163 142.825 128.987 143.021 128.147C143.246 127.195 143.807 126.243 144.705 125.319C145.63 124.367 146.893 123.778 148.436 123.582C149.867 123.414 151.466 123.442 153.233 123.722C158.339 124.451 161.116 126.523 161.537 129.855C161.677 130.976 161.621 132.404 161.369 134.252V134.336L161.341 134.42C161.341 134.42 161.341 134.42 161.341 134.448L158.423 157.944L172.394 156.235L169.224 130.5C169.028 128.959 168.944 127.839 168.944 127.055C168.944 126.215 169.168 125.263 169.645 124.199C170.15 123.022 171.104 122.126 172.535 121.51C173.825 120.978 175.564 120.558 177.668 120.306C179.801 120.054 181.568 120.054 182.943 120.334C184.43 120.642 185.58 121.342 186.337 122.378C187.039 123.33 187.488 124.255 187.712 125.123C187.908 125.935 188.105 127.083 188.301 128.623L194.95 182.727C195.287 185.416 195.174 187.404 194.669 188.832C194.108 190.316 193.126 191.409 191.696 192.053C190.405 192.641 188.75 193.033 186.786 193.285C185.692 193.369 184.738 193.425 183.897 193.425ZM176.013 172.03L177.584 184.744C177.837 186.9 178.23 188.496 178.707 189.448L178.735 189.476C179.015 190.12 179.408 190.597 179.913 190.877C180.474 191.213 181.259 191.465 182.297 191.633C183.364 191.801 184.794 191.773 186.59 191.577C188.385 191.353 189.872 190.989 190.994 190.485C192.004 190.036 192.678 189.308 193.07 188.244C193.491 187.096 193.547 185.304 193.267 182.923L186.618 128.819C186.45 127.363 186.253 126.271 186.085 125.543C185.916 124.899 185.552 124.143 184.963 123.358C184.458 122.658 183.672 122.21 182.578 121.958C181.4 121.706 179.801 121.706 177.865 121.93C175.901 122.182 174.33 122.546 173.18 123.022C172.17 123.442 171.497 124.031 171.188 124.787C170.823 125.655 170.627 126.411 170.627 127.027C170.627 127.699 170.711 128.791 170.879 130.248L174.246 157.636L156.459 159.82L159.601 134.336C159.601 134.196 159.63 134.056 159.686 133.888C159.91 132.264 159.966 130.948 159.854 130.023C159.545 127.503 157.301 125.991 152.981 125.375C151.382 125.123 149.923 125.095 148.632 125.235C147.454 125.375 146.556 125.795 145.911 126.467C145.238 127.167 144.817 127.867 144.648 128.539C144.452 129.323 144.256 130.471 144.059 131.984L139.991 165.561C139.907 166.345 139.963 167.605 140.188 169.285C140.384 170.938 140.693 172.254 141.114 173.178C142.067 175.138 144.648 175.894 148.801 175.39L176.013 172.03Z" fill="#334155"/>
<defs>
<linearGradient id="paint0_linear_418_9310" x1="105.611" y1="120.586" x2="105.611" y2="175.306" gradientUnits="userSpaceOnUse">
<stop stop-color="#8851C8"/>
<stop offset="1" stop-color="#81E2B4"/>
</linearGradient>
<linearGradient id="paint1_linear_418_9310" x1="100.435" y1="121.734" x2="100.435" y2="198.102" gradientUnits="userSpaceOnUse">
<stop stop-color="#8851C8"/>
<stop offset="1" stop-color="#81E2B4"/>
</linearGradient>
<linearGradient id="paint2_linear_418_9310" x1="100.505" y1="120.474" x2="100.505" y2="198.942" gradientUnits="userSpaceOnUse">
<stop stop-color="#8851C8"/>
<stop offset="1" stop-color="#81E2B4"/>
</linearGradient>
<linearGradient id="paint3_linear_418_9310" x1="104.082" y1="76.8154" x2="104.082" y2="105.996" gradientUnits="userSpaceOnUse">
<stop stop-color="#9747FF"/>
<stop offset="1" stop-color="#81E2B4"/>
</linearGradient>
<linearGradient id="paint4_linear_418_9310" x1="104.208" y1="29.8524" x2="104.208" y2="101.459" gradientUnits="userSpaceOnUse">
<stop stop-color="#8851C8"/>
<stop offset="1" stop-color="#81E2B4"/>
</linearGradient>
<linearGradient id="paint5_linear_418_9310" x1="104.138" y1="29.0123" x2="104.138" y2="103.756" gradientUnits="userSpaceOnUse">
<stop stop-color="#8851C8"/>
<stop offset="1" stop-color="#81E2B4"/>
</linearGradient>
<linearGradient id="paint6_linear_418_9310" x1="103.801" y1="0" x2="103.801" y2="9.24139" gradientUnits="userSpaceOnUse">
<stop stop-color="#9747FF"/>
<stop offset="1" stop-color="#81E2B4"/>
</linearGradient>
<linearGradient id="paint7_linear_418_9310" x1="103.801" y1="6.91699" x2="103.801" y2="28.6762" gradientUnits="userSpaceOnUse">
<stop stop-color="#9747FF"/>
<stop offset="1" stop-color="#81E2B4"/>
</linearGradient>
</defs>
</svg>
