<svg width="92" height="40" viewBox="0 0 92 40" fill="none" xmlns="http://www.w3.org/2000/svg">
<rect width="92" height="40" fill="#F5F5F5"/>
<g clip-path="url(#clip0_8_679)">
<rect width="1440" height="900" transform="translate(-661 -494)" fill="#F8FAFC"/>
<rect x="-82.5" y="-23.5" width="257" height="87" rx="7.5" fill="white"/>
<rect x="-82.5" y="-23.5" width="257" height="87" rx="7.5" stroke="#E2E8F0"/>
<path d="M28.7635 28.344H25.1506L28.2689 22.0429H28.3119L28.7635 28.344ZM28.9355 31.1827L29.1506 33.6773H33.1076L31.7958 19.1182H25.9033L18.4409 33.6773H22.4839L23.7312 31.1827H28.9355Z" fill="#F38B00"/>
<path d="M38.6559 27.3117H39.2366L42.0753 23.4838H45.7312L41.8172 28.387L44.2258 33.6773H40.3334L38.7635 29.5483H38.1828L37.3011 33.6773H33.9678L37.043 19.1182H40.3979L38.6559 27.3117Z" fill="#F38B00"/>
<path d="M50.0109 29.4625C51.1077 29.4625 51.8173 29.5485 51.6453 30.3872C51.4087 31.4625 50.9571 31.6345 49.5593 31.6345C49.0432 31.6345 48.0969 31.6345 48.3335 30.5378C48.527 29.613 49.1937 29.4625 50.0109 29.4625ZM50.9356 33.6775H54.269L55.6238 27.312C56.3765 23.8066 55.0216 23.3765 51.6023 23.3765C49.2152 23.3765 46.9141 23.355 46.2259 26.5163H49.5593C49.7528 25.5915 50.312 25.4195 51.1507 25.4195C52.613 25.4195 52.5485 26.0216 52.3335 26.9679L51.9894 28.5808H51.8388C51.7098 27.4195 50.2475 27.441 49.3012 27.441C46.8926 27.441 45.4518 28.1937 44.9356 30.6453C44.3765 33.2474 45.6238 33.8066 47.9464 33.8066C49.1077 33.8066 50.6776 33.57 51.2152 32.1722H51.3227L50.9356 33.6775Z" fill="#F38B00"/>
<path d="M61.0216 23.484L60.7205 24.9249H60.8496C61.5162 23.7206 62.8281 23.3765 63.9678 23.3765C65.4087 23.3765 66.8281 23.6345 66.6345 25.3765H66.785C67.2797 23.9141 68.7635 23.3765 70.0539 23.3765C72.398 23.3765 73.4087 24.3442 72.8926 26.7098L71.4087 33.6775H68.0754L69.3227 27.7851C69.4947 26.7098 69.6668 25.9356 68.3764 25.9356C67.0861 25.9356 66.6345 26.7958 66.4195 27.8926L65.1936 33.6775H61.8603L63.1721 27.5055C63.3227 26.5808 63.4087 25.9356 62.2474 25.9356C60.8711 25.9356 60.4625 26.6668 60.2044 27.8926L58.9786 33.6775H55.6453L57.8173 23.484H61.0216Z" fill="#F38B00"/>
<path d="M78.1398 29.4625C79.215 29.4625 79.9462 29.5485 79.7742 30.3872C79.5591 31.4625 79.086 31.6345 77.6881 31.6345C77.1935 31.6345 76.2258 31.6345 76.4623 30.5378C76.6559 29.613 77.3226 29.4625 78.1398 29.4625ZM79.0645 33.6775H82.3978L83.7527 27.312C84.5053 23.8066 83.1505 23.3765 79.7312 23.3765C77.3441 23.3765 75.0215 23.355 74.3548 26.5163H77.6881C77.8817 25.5915 78.4408 25.4195 79.2795 25.4195C80.7419 25.4195 80.6774 26.0216 80.4623 26.9679L80.1613 28.5808H80.0107C79.8817 27.4195 78.4193 27.441 77.4731 27.441C75.0645 27.441 73.6236 28.1937 73.1075 30.6453C72.5484 33.2474 73.7957 33.8066 76.1183 33.8066C77.2795 33.8066 78.8494 33.57 79.4086 32.1722H79.5161L79.0645 33.6775Z" fill="#F38B00"/>
<path d="M87.2152 33.6774H83.8818L86.0324 23.4839H89.3657L87.2152 33.6774Z" fill="#F38B00"/>
<path d="M20.1399 37.2043C12.7421 34.9462 7.3442 28.1075 7.3442 20.0215C7.3442 11.8279 12.8496 4.92471 20.3765 2.75267C21.1507 2.53761 20.9356 2.02148 20.0109 2.02148C10.0109 2.02148 1.88184 10.086 1.88184 20.0215C1.88184 29.957 9.98936 38 20.0109 38C20.9356 38 20.9786 37.4623 20.1399 37.2043Z" fill="#009BDE"/>
<path d="M10.785 24.2148C10.742 23.7417 10.699 23.2471 10.699 22.7524C10.699 14.86 17.0861 8.47287 24.9785 8.47287C32.4409 8.47287 34.6775 11.8062 34.957 11.5912C35.2581 11.3546 32.2473 4.75244 23.4947 4.75244C15.6022 4.75244 9.21509 11.1395 9.21509 19.032C9.21509 20.86 9.55917 22.6019 10.1828 24.1933C10.4409 24.8815 10.8495 24.8815 10.785 24.2148Z" fill="#009BDE"/>
<path d="M16.7636 13.9357C20.4625 12.3228 25.1292 12.2798 29.7098 13.8712C32.7851 14.9464 34.57 16.4733 34.7206 16.4088C34.9571 16.3013 32.9356 13.0755 29.2582 11.6991C24.8066 10.0217 20.0324 10.9034 16.5485 13.6346C16.1614 13.9357 16.312 14.1292 16.7636 13.9357Z" fill="#009BDE"/>
<path d="M90.1184 20.6669C90.1184 21.6991 89.2797 22.5378 88.2474 22.5378C87.2152 22.5378 86.3765 21.6991 86.3765 20.6669C86.3765 19.6346 87.2152 18.7959 88.2474 18.7959C89.2797 18.7959 90.1184 19.6346 90.1184 20.6669Z" fill="#F38B00"/>
</g>
<defs>
<clipPath id="clip0_8_679">
<rect width="1440" height="900" fill="white" transform="translate(-661 -494)"/>
</clipPath>
</defs>
</svg>
