<svg width="24" height="31" viewBox="0 0 24 31" fill="none" xmlns="http://www.w3.org/2000/svg">
<path d="M10.311 24.7958C10.3136 24.7958 10.3162 24.8037 10.3162 24.8195C10.3189 24.93 10.3215 25.0379 10.3241 25.1485C10.3399 25.0643 10.3557 24.98 10.3741 24.8932C10.361 24.7326 10.2346 24.8142 10.311 24.7958Z" fill="#FEFEFE"/>
<path d="M17.2171 15.7949C17.2144 15.7975 17.2092 15.7975 17.2065 15.8002C17.2092 15.8028 17.2144 15.8055 17.2171 15.8081C17.2144 15.8055 17.2171 15.8002 17.2171 15.7949Z" fill="#FEFEFE"/>
<path d="M12.8667 4.74609V4.74869H12.8746C12.872 4.74869 12.8693 4.74609 12.8667 4.74609Z" fill="#FEFEFE"/>
<path d="M16.5645 26.9358C16.5987 26.5542 16.5803 26.1673 16.6277 25.7883C16.733 24.954 16.633 24.1012 16.8514 23.2775C16.9593 22.8511 16.6145 22.351 17.0567 21.9773L16.9462 21.6141C16.8225 21.4088 16.8856 21.2088 16.9593 21.0087C16.9514 20.2771 16.9593 19.5454 17.0909 18.8216C17.1304 17.8162 17.1725 16.8108 17.212 15.8028C17.2094 15.8001 17.2041 15.7975 17.2015 15.7949C15.0512 16.7818 13.0246 15.4001 12.6798 13.742C12.4534 12.6523 12.5745 11.6233 13.4246 10.7916C13.5668 10.6521 13.6878 10.4915 13.8194 10.3389C14.1668 8.25701 13.9247 6.34622 12.1455 4.85655C12.4113 4.7039 12.6508 4.79075 12.8667 4.75127V4.74868C10.6848 4.20124 8.03706 5.69354 7.16063 7.9728C6.88807 8.64633 6.76505 9.37102 6.80005 10.0968C8.9635 9.094 10.9032 10.2915 11.4375 12.1155C11.9929 14.0131 10.5137 16.0212 8.54766 16.0502C7.98469 16.0529 7.42463 15.9695 6.88691 15.8028C6.92639 16.8503 6.96674 17.8978 7.00798 18.9453C7.08431 19.6323 7.16589 20.3166 7.13168 21.0088C7.13694 21.1719 7.14221 21.3351 7.14747 21.4983C7.14221 21.6062 7.13695 21.7141 7.13168 21.8247C7.29223 22.4826 7.32644 23.1591 7.37645 23.8328C7.37168 23.8156 7.36816 23.798 7.36592 23.7802C7.36855 23.7986 7.37382 23.8144 7.37645 23.8328C7.42909 24.9777 7.46067 26.1252 7.54226 27.2701C7.57648 27.7439 7.4054 27.9808 6.9685 28.1018C6.45264 28.2466 5.94468 28.4203 5.43408 28.5835C6.10783 28.6682 6.78734 28.6981 7.46593 28.673C8.19498 28.6572 8.5266 28.3334 8.59767 27.6097C8.64241 27.1491 8.68189 26.6885 8.724 26.2279C8.77137 25.3936 8.81875 24.5566 8.86612 23.7223H8.96877V26.1042C8.98193 26.4648 8.98719 26.828 9.01088 27.1885C9.11616 28.8703 9.16616 28.8598 7.48962 29.1993C7.45124 29.2113 7.4142 29.2272 7.37908 29.2467C7.47909 29.3125 7.5791 29.3783 7.67912 29.4467C7.69431 29.4492 7.70878 29.4549 7.72151 29.4636C7.73424 29.4722 7.74492 29.4835 7.75282 29.4967C8.15287 29.4994 8.55556 29.5336 8.95035 29.4967C9.66886 29.4283 10.0084 29.0441 10.061 28.3308C10.0926 27.8728 10.14 27.4149 10.1795 26.9569C10.1163 26.349 10.2084 25.7515 10.3216 25.1541C10.319 25.0435 10.3163 24.9356 10.3137 24.8251C10.3137 24.8093 10.3084 24.7987 10.3084 24.8014C10.2321 24.8198 10.3584 24.7382 10.3716 24.8988C10.3848 24.8277 10.4005 24.7566 10.4137 24.6856V27.4438C10.4216 27.7676 10.4321 28.0887 10.4374 28.4124C10.4506 29.5836 10.3769 29.6889 9.26092 30.0231C8.95298 30.1153 8.63189 30.1705 8.32658 30.2732C8.1055 30.3495 7.82388 30.3074 7.61596 30.5679C8.52398 30.5337 9.37409 30.6364 10.2189 30.4995C11.0927 30.3574 11.4402 30.0047 11.6191 29.152C11.7507 28.5256 11.806 27.8807 12.0455 27.2464C12.0726 27.2898 12.0956 27.3356 12.1139 27.3833C12.235 27.9755 12.3561 28.5703 12.4719 29.1625C12.6351 29.9916 12.9719 30.3442 13.8142 30.4916C14.6853 30.6416 15.567 30.539 16.4698 30.5601C16.3408 30.339 16.1382 30.3758 15.975 30.3284C15.4144 30.1653 14.8433 30.0258 14.2932 29.8363C13.8931 29.6968 13.6062 29.4415 13.6115 28.9493C13.6247 27.6018 13.6168 26.2542 13.6168 24.9067H13.78C13.8379 25.7515 13.9063 26.5937 13.951 27.4386C14.0537 29.3915 14.2853 29.6047 16.2461 29.4967C16.3566 29.3125 16.6277 29.4573 16.7303 29.2599C16.2592 29.2573 15.8486 29.0309 15.417 28.8861C15.3006 28.8461 15.2008 28.7685 15.1332 28.6657C15.0655 28.5628 15.0339 28.4404 15.0433 28.3176C15.0643 26.9332 15.0117 25.5436 15.1986 24.1645C15.3117 25.3225 15.4012 26.4832 15.4907 27.6412C15.5328 28.1834 15.7776 28.6072 16.3461 28.644C17.1146 28.6966 17.8858 28.6572 18.6569 28.6572C18.2559 28.471 17.8405 28.3179 17.4146 28.1992C16.4724 27.8965 16.4777 27.8939 16.5645 26.9359L16.5645 26.9358ZM10.6374 7.18845C10.6357 7.3736 10.5614 7.55068 10.4305 7.68161C10.2996 7.81253 10.1225 7.88684 9.93732 7.88854C9.52411 7.89644 9.21354 7.65956 9.20564 7.12265C9.25038 6.73313 9.46883 6.4673 9.93205 6.45677C10.4242 6.44888 10.6453 6.7805 10.6374 7.18845ZM13.801 18.7005C13.8036 19.7665 12.9877 20.6955 12.056 20.6929C11.177 20.6903 10.2795 19.6533 10.311 18.6742C10.2637 18.3847 10.2137 18.0925 10.1479 17.6872C10.7769 18.1162 11.3059 18.5558 12.0139 18.5716C12.7377 18.5847 13.3062 18.2136 13.8984 17.7793C14.0247 18.1268 13.7062 18.3979 13.801 18.7005Z" fill="#FE733E"/>
<path d="M7.13429 21.006C7.08166 20.9875 7.03164 20.9639 6.98164 20.9454C6.26049 20.6507 5.63672 20.198 5.05769 19.6953C2.96794 17.8898 1.58881 15.6289 1.25455 12.8865C0.875552 9.77025 1.57301 6.89355 3.65224 4.42216C5.54986 2.16923 7.96861 0.855892 10.8558 0.553221C14.0642 0.218965 16.9461 1.11645 19.3728 3.33254C21.3967 5.18016 22.5785 7.46994 22.8811 10.1624C23.1391 12.4548 22.7259 14.6709 21.5468 16.6843C20.4756 18.5135 19.049 19.9979 17.1198 20.9375C17.0672 20.9639 17.0146 20.9902 16.9619 21.0139C16.8882 21.2139 16.8224 21.4139 16.9488 21.6192C16.99 21.5749 17.0358 21.5352 17.0856 21.5008C19.9992 19.9585 22.0205 17.6661 22.9654 14.4762C23.047 14.2051 23.1733 14.0708 23.476 14.1024C23.8865 14.1445 23.9971 13.8708 23.9971 13.5287C23.9997 12.2153 24.0005 10.9029 23.9997 9.59128C23.9997 9.30967 23.9312 8.9991 23.6391 8.96751C23.1022 8.90435 23.0364 8.51219 22.9285 8.13056C22.2968 5.9092 21.0809 4.06159 19.2754 2.64298C15.5643 -0.270574 11.4901 -0.796961 7.21584 1.17173C4.0391 2.63245 2.01515 5.167 1.09923 8.55956C1.04133 8.77012 1.06765 9.02015 0.709706 8.94646C0.199111 8.84118 0.00697693 9.14122 0.00434789 9.59392C-0.0035488 10.9073 0.00172417 12.218 0.00172417 13.5313C0.00172417 13.9682 0.222806 14.1998 0.643916 14.0972C1.03081 14.0024 1.12293 14.1945 1.20189 14.4893C1.54404 15.7371 2.11621 16.91 2.88896 17.9477C4.02069 19.4821 5.39982 20.7138 7.15269 21.4981C7.14742 21.335 7.14216 21.1692 7.13426 21.006L7.13429 21.006Z" fill="#B5D2F3"/>
<path d="M7.13682 21.8218C6.7473 22.914 5.71031 22.8877 4.82861 23.1614C5.49186 23.3325 6.16563 23.5299 6.82888 23.4167C7.22367 23.3483 7.3 23.4904 7.3579 23.7247C7.36317 23.7431 7.3658 23.7615 7.37106 23.7799C7.37369 23.7957 7.37896 23.8142 7.38159 23.8326C7.33159 23.1562 7.29737 22.4824 7.13682 21.8218Z" fill="#FE684B"/>
<path d="M16.8514 23.2802C17.6936 23.6618 18.4885 23.2775 19.3018 23.167C18.5069 22.8301 17.4778 23.0038 17.0593 21.98C16.6145 22.3537 16.9593 22.8538 16.8514 23.2802Z" fill="#FE6446"/>
<path d="M6.39746 29.4915H7.75554C7.73185 29.4757 7.70553 29.46 7.68184 29.4415C7.58183 29.3757 7.48182 29.3099 7.3818 29.2415C7.08439 29.2257 6.80541 29.2915 6.39746 29.4915Z" fill="#FE733E"/>
<path d="M16.2461 29.4913H17.5673C17.2989 29.336 17.0357 29.2044 16.7304 29.2544C16.6277 29.4545 16.354 29.3071 16.2461 29.4913Z" fill="#FE733E"/>
<path d="M17.1226 20.9347C19.0519 19.9977 20.4757 18.5133 21.5496 16.6815C22.7287 14.6681 23.1419 12.452 22.8839 10.1596C22.5813 7.46445 21.4022 5.17467 19.3756 3.32969C16.9489 1.11623 14.067 0.21611 10.8586 0.552993C7.97405 0.853034 5.55267 2.169 3.65505 4.42193C1.57319 6.89333 0.878358 9.77003 1.25736 12.8862C1.59161 15.6313 2.97075 17.8895 5.0605 19.695C5.64215 20.1977 6.26593 20.6531 6.98444 20.9452C7.03445 20.9663 7.08446 20.9873 7.1371 21.0057C7.17131 20.3135 7.08972 19.6292 7.01339 18.9423C6.96076 18.9055 6.90812 18.8686 6.85548 18.8291C6.3212 18.4422 5.86324 17.9659 5.40265 17.4974C5.26316 17.3553 5.08945 17.2342 5.08945 17.0026C4.77888 17.2263 4.55517 17.071 4.37357 16.8236C3.3629 15.4445 2.7523 13.9153 2.6707 12.194C2.59701 10.6728 2.73387 9.19363 3.37343 7.76975C4.1867 5.96162 5.43687 4.57985 7.11604 3.5534C7.40029 3.37969 7.56347 3.53499 7.76087 3.66394C7.85452 3.66026 7.94634 3.63678 8.03026 3.59504C8.11419 3.55331 8.18832 3.49426 8.24777 3.4218L8.22408 3.36653C8.05564 3.01122 8.04775 2.60854 8.45306 2.51379C8.86101 2.4164 9.09262 2.74803 9.09525 3.17703C12.1404 2.1769 14.9724 2.58222 17.528 4.53248C19.4388 5.99057 20.5336 7.9461 20.8679 10.3306C21.2995 13.3968 20.2625 15.9393 18.1254 18.0896C17.8732 18.3483 17.584 18.5682 17.2674 18.7423C17.2121 18.7712 17.1569 18.7976 17.1016 18.8239C16.97 19.5477 16.9621 20.2793 16.97 21.011C17.0174 20.9873 17.0674 20.961 17.1226 20.9347Z" fill="#E2F5FC"/>
<path d="M18.12 18.0923C20.2545 15.9421 21.2915 13.3996 20.8625 10.3334C20.5282 7.94624 19.4333 5.99071 17.5226 4.53525C14.9669 2.58499 12.1324 2.18231 9.08984 3.17981C9.08457 3.18241 9.07931 3.18771 9.07405 3.19033C8.83454 3.34298 8.64767 3.67197 8.30289 3.46668C8.28184 3.45351 8.26341 3.44299 8.24235 3.4272C8.18309 3.49988 8.109 3.55908 8.02504 3.60083C7.94107 3.64259 7.84916 3.66594 7.75545 3.66934C7.74755 3.70092 7.73702 3.72987 7.7265 3.76145C7.50804 4.37469 6.85269 4.53524 6.41316 4.90371C5.2209 5.90121 4.33656 7.09611 3.81544 8.54368C2.97849 10.8756 3.14956 13.1601 4.27077 15.3656C4.45691 15.7234 4.6726 16.065 4.91559 16.3868C5.04804 16.5622 5.10831 16.7816 5.08403 17.0001V17.008C5.08403 17.2369 5.25774 17.3607 5.39723 17.5028C5.86045 17.9713 6.31578 18.4476 6.85006 18.8345C6.9027 18.8714 6.95534 18.9109 7.00798 18.9477C6.9685 17.9002 6.92814 16.8527 6.88691 15.8052C6.88428 15.8052 6.88428 15.8025 6.88164 15.8025C5.97099 15.2051 5.30248 14.4418 5.18668 13.3048C5.04192 11.902 5.63147 10.865 6.779 10.1097C6.78426 10.1071 6.78952 10.1018 6.79479 10.0992C6.75934 9.37338 6.88238 8.64859 7.15536 7.97518C8.0318 5.69856 10.6795 4.20362 12.8614 4.75107C12.8628 4.75089 12.8643 4.75103 12.8656 4.75148C12.867 4.75193 12.8682 4.75267 12.8693 4.75366C14.3169 4.9879 15.5065 5.64852 16.3592 6.86184C17.0409 7.83302 17.3936 8.90422 17.3199 10.0991C18.1411 10.7229 18.8043 11.4546 18.9122 12.5363C19.057 13.9917 18.4358 15.055 17.212 15.7972V15.8104C17.1725 16.8158 17.1304 17.8212 17.0909 18.8292C17.1488 18.8029 17.2041 18.7766 17.2567 18.7476C17.5765 18.575 17.8677 18.3539 18.12 18.0923L18.12 18.0923Z" fill="#CDECF6"/>
<path d="M14.575 9.98082C15.4777 9.53602 16.3542 9.77553 17.2253 10.0624C17.2569 10.0729 17.2911 10.0835 17.3227 10.094C17.3964 8.89646 17.0437 7.82526 16.3621 6.85671C15.5093 5.64339 14.3197 4.98278 12.8721 4.74854H12.8642C12.6484 4.79065 12.4089 4.70116 12.1431 4.85381C13.9223 6.34349 14.167 8.25427 13.817 10.3361C13.8722 10.3098 13.9249 10.2861 13.9802 10.2598C14.1828 10.1677 14.3802 10.0782 14.575 9.98082Z" fill="#FE6B3C"/>
<path d="M18.9176 12.5337C18.8097 11.452 18.1464 10.7203 17.3253 10.0965C17.2937 10.086 17.2595 10.0755 17.2279 10.0649C16.3541 9.77807 15.4803 9.53856 14.5775 9.98336C14.3828 10.0807 14.1827 10.1729 13.9853 10.265C13.9301 10.2913 13.8774 10.315 13.8222 10.3413C13.6906 10.4913 13.5695 10.6545 13.4274 10.794C12.5746 11.6257 12.4562 12.6548 12.6825 13.7444C13.0273 15.4051 15.0539 16.7869 17.2068 15.8026C17.2094 15.7999 17.2147 15.7999 17.2174 15.7973C18.4412 15.0525 19.065 13.9865 18.9176 12.5337ZM15.6987 15.442C15.3703 15.4392 15.0457 15.3716 14.7434 15.243C14.4412 15.1145 14.1673 14.9275 13.9375 14.6929C13.7076 14.4583 13.5264 14.1806 13.4041 13.8758C13.2818 13.5709 13.2209 13.245 13.2249 12.9165C13.2289 12.5881 13.2977 12.2637 13.4273 11.9619C13.5569 11.6602 13.7449 11.387 13.9803 11.158C14.2158 10.929 14.4941 10.7487 14.7994 10.6276C15.1047 10.5064 15.4309 10.4467 15.7593 10.4518C17.1595 10.4624 18.2306 11.5652 18.2201 12.9811C18.2096 14.3866 17.1147 15.4551 15.6987 15.442Z" fill="#FE6142"/>
<path d="M6.78137 10.1046C5.63385 10.86 5.0443 11.897 5.18905 13.2998C5.30486 14.4368 5.97337 15.2001 6.88402 15.7975C6.88664 15.7975 6.88664 15.8001 6.88928 15.8001C7.42697 15.967 7.98706 16.0504 8.55003 16.0475C10.5135 16.0186 11.9952 14.013 11.4399 12.1128C10.9056 10.2889 8.96325 9.09133 6.80243 10.0941C6.79491 10.0965 6.78781 10.1 6.78138 10.1046L6.78137 10.1046ZM8.35001 15.4422C6.9156 15.4475 5.80493 14.3473 5.81019 12.9208C5.81282 11.5206 6.90508 10.4363 8.31316 10.4284C8.64487 10.4219 8.97455 10.4814 9.2831 10.6034C9.59165 10.7253 9.87293 10.9073 10.1106 11.1387C10.3483 11.3702 10.5378 11.6465 10.6679 11.9517C10.798 12.2569 10.8663 12.5849 10.8687 12.9166C10.8711 13.2484 10.8077 13.5773 10.6821 13.8844C10.5565 14.1915 10.3711 14.4706 10.1369 14.7055C9.90257 14.9404 9.624 15.1265 9.31728 15.2529C9.01055 15.3794 8.68178 15.4437 8.35001 15.4422Z" fill="#FE6143"/>
<path d="M10.6425 18.9054C10.5451 18.8081 10.4741 18.6765 10.3109 18.6738C10.2793 19.6529 11.1741 20.6899 12.0558 20.6925C12.9902 20.6951 13.8034 19.7661 13.8008 18.7001C13.4481 18.8817 13.2244 19.2555 12.8191 19.366C12.0111 19.5871 11.2689 19.5318 10.6425 18.9054Z" fill="#070909"/>
<path d="M13.8985 17.7791C13.3063 18.2134 12.7404 18.5845 12.014 18.5713C11.3034 18.5582 10.777 18.116 10.1479 17.687C10.2164 18.0923 10.2638 18.3818 10.3111 18.674C10.4743 18.6792 10.5454 18.8082 10.6428 18.9056C11.2665 19.532 12.0114 19.5873 12.8194 19.3662C13.2247 19.2556 13.4484 18.8845 13.8011 18.7003C13.7063 18.3976 14.0248 18.1265 13.8985 17.7791Z" fill="#FDFCFB"/>
<path d="M9.93198 6.45923C9.46613 6.46712 9.24768 6.73295 9.20557 7.12511C9.21346 7.66202 9.52403 7.89627 9.93724 7.891C10.1224 7.8893 10.2995 7.81499 10.4304 7.68406C10.5613 7.55314 10.6356 7.37605 10.6373 7.1909C10.6452 6.78032 10.4242 6.4487 9.93198 6.45923Z" fill="#FEA777"/>
<path d="M5.08422 16.9976C5.1085 16.7792 5.04822 16.5598 4.91578 16.3844C4.6737 16.0619 4.45806 15.7204 4.27095 15.3632C3.14975 13.1576 2.97604 10.8731 3.81563 8.54122C4.33675 7.09366 5.22108 5.89876 6.41335 4.90126C6.85288 4.53279 7.50823 4.37487 7.72668 3.759C7.7379 3.72881 7.74756 3.69806 7.75563 3.66688C7.55824 3.53792 7.39506 3.38263 7.11081 3.55634C5.43163 4.58279 4.18147 5.96455 3.3682 7.77269C2.72864 9.19656 2.59178 10.6757 2.66547 12.197C2.74969 13.9156 3.35767 15.4474 4.36833 16.8265C4.54993 17.0739 4.77628 17.2292 5.08422 17.0055L5.08422 16.9976Z" fill="#FDFEFE"/>
<path d="M9.07121 3.19038C9.07648 3.18778 9.08174 3.18248 9.087 3.17986C9.08174 2.75085 8.85276 2.41923 8.44481 2.51661C8.03949 2.61399 8.04739 3.01668 8.21583 3.36936L8.23952 3.42463C8.25886 3.43902 8.27908 3.45221 8.30006 3.46411C8.64484 3.67203 8.83171 3.34041 9.07121 3.19039L9.07121 3.19038Z" fill="#FBFDFE"/>
<path d="M18.22 12.9837C18.2305 11.5704 17.1593 10.4676 15.7591 10.4544C15.4307 10.4492 15.1045 10.509 14.7993 10.6301C14.494 10.7513 14.2157 10.9316 13.9802 11.1605C13.7448 11.3895 13.5568 11.6627 13.4272 11.9645C13.2976 12.2663 13.2288 12.5907 13.2248 12.9191C13.2208 13.2475 13.2817 13.5735 13.404 13.8783C13.5262 14.1832 13.7075 14.4608 13.9373 14.6955C14.1672 14.9301 14.441 15.1171 14.7433 15.2456C15.0455 15.3741 15.3702 15.4418 15.6986 15.4446C17.1146 15.4551 18.2095 14.3865 18.22 12.9837ZM15.8223 13.2574C15.3486 13.2653 15.0722 12.9969 15.0301 12.531C15.0235 12.4253 15.0391 12.3194 15.0756 12.22C15.1122 12.1206 15.1691 12.0299 15.2426 11.9537C15.3161 11.8775 15.4047 11.8174 15.5026 11.7772C15.6006 11.737 15.7059 11.7177 15.8118 11.7204C16.275 11.7546 16.5356 12.0257 16.5908 12.51C16.5277 12.9416 16.3066 13.2495 15.8223 13.2574Z" fill="#FEFEFE"/>
<path d="M8.31358 10.4311C7.98473 10.4274 7.65844 10.4892 7.35377 10.613C7.04909 10.7368 6.77215 10.9201 6.53912 11.1522C6.30609 11.3842 6.12164 11.6604 5.99655 11.9645C5.87147 12.2687 5.80826 12.5947 5.81061 12.9236C5.80799 14.3501 6.91602 15.4502 8.35042 15.445C8.68219 15.4465 9.01097 15.3822 9.31769 15.2557C9.62442 15.1292 9.90299 14.9432 10.1373 14.7082C10.3716 14.4733 10.5569 14.1943 10.6825 13.8872C10.8081 13.5801 10.8716 13.2512 10.8691 12.9194C10.8667 12.5876 10.7984 12.2597 10.6683 11.9545C10.5382 11.6493 10.3488 11.373 10.1111 11.1415C9.87335 10.9101 9.59207 10.7281 9.28352 10.6062C8.97497 10.4842 8.64529 10.4247 8.31358 10.4311ZM8.3162 13.2578C7.84771 13.2631 7.5661 12.9946 7.52925 12.5235C7.52365 12.4176 7.54025 12.3118 7.57797 12.2127C7.6157 12.1136 7.67372 12.0235 7.74832 11.9482C7.82291 11.8728 7.91243 11.8139 8.01113 11.7752C8.10984 11.7365 8.21554 11.7189 8.32146 11.7234C8.77942 11.7629 9.04788 12.0287 9.08999 12.513C9.03209 12.9578 8.78995 13.2526 8.3162 13.2578Z" fill="#FEFEFE"/>
<path d="M15.8117 11.7205C15.7057 11.7174 15.6002 11.7365 15.502 11.7765C15.4038 11.8165 15.3151 11.8766 15.2415 11.9529C15.1679 12.0293 15.111 12.1201 15.0746 12.2197C15.0382 12.3193 15.023 12.4254 15.03 12.5312C15.0721 12.9997 15.3484 13.2655 15.8222 13.2576C16.3038 13.2497 16.5275 12.9418 16.5907 12.5101C16.5354 12.0259 16.2749 11.7548 15.8117 11.7205Z" fill="#090B0B"/>
<path d="M8.32111 11.7234C8.21518 11.7188 8.10948 11.7365 8.01078 11.7752C7.91207 11.8139 7.82255 11.8728 7.74796 11.9481C7.67336 12.0235 7.61534 12.1136 7.57761 12.2126C7.53989 12.3117 7.52329 12.4176 7.52889 12.5235C7.56574 12.9946 7.84736 13.263 8.31584 13.2578C8.78959 13.2525 9.03173 12.9577 9.08963 12.5129C9.04489 12.026 8.77643 11.7602 8.32111 11.7234Z" fill="#090C0C"/>
</svg>
