<svg width="16" height="16" viewBox="0 0 16 16" fill="none" xmlns="http://www.w3.org/2000/svg">
  <g clip-path="url(#clip0_2299_57270)">
    <path d="M8.00008 4.00008V6.00008L10.6667 3.33341L8.00008 0.666748V2.66675C5.05341 2.66675 2.66675 5.05341 2.66675 8.00008C2.66675 9.04675 2.97341 10.0201 3.49341 10.8401L4.46675 9.86675C4.16675 9.31341 4.00008 8.67341 4.00008 8.00008C4.00008 5.79341 5.79341 4.00008 8.00008 4.00008ZM12.5067 5.16008L11.5334 6.13341C11.8267 6.69341 12.0001 7.32675 12.0001 8.00008C12.0001 10.2067 10.2067 12.0001 8.00008 12.0001V10.0001L5.33341 12.6667L8.00008 15.3334V13.3334C10.9467 13.3334 13.3334 10.9467 13.3334 8.00008C13.3334 6.95341 13.0267 5.98008 12.5067 5.16008Z" fill="#1D4ED8"/>
  </g>
  <defs>
    <clipPath id="clip0_2299_57270">
      <rect width="16" height="16" fill="white"/>
    </clipPath>
  </defs>
</svg> 