<svg width="68" height="40" viewBox="0 0 68 40" fill="none" xmlns="http://www.w3.org/2000/svg">
<rect width="68" height="40" fill="#F5F5F5"/>
<g clip-path="url(#clip0_8_679)">
<rect width="1440" height="900" transform="translate(-955 -494)" fill="#F8FAFC"/>
<rect x="-94.5" y="-23.5" width="257" height="87" rx="7.5" fill="white"/>
<rect x="-94.5" y="-23.5" width="257" height="87" rx="7.5" stroke="#E2E8F0"/>
<g clip-path="url(#clip1_8_679)">
<path d="M19.5827 14.5933C19.5827 15.4065 19.6706 16.0659 19.8245 16.5494C20.0003 17.0329 20.2201 17.5604 20.5278 18.1318C20.6377 18.3076 20.6816 18.4835 20.6816 18.6373C20.6816 18.8571 20.5498 19.0769 20.2641 19.2966L18.8794 20.2197C18.6816 20.3516 18.4838 20.4175 18.308 20.4175C18.0882 20.4175 17.8685 20.3076 17.6487 20.1098C17.341 19.7802 17.0772 19.4285 16.8575 19.0769C16.6377 18.7032 16.4179 18.2857 16.1761 17.7802C14.4619 19.8021 12.308 20.8131 9.7146 20.8131C7.86845 20.8131 6.39592 20.2857 5.319 19.2307C4.24208 18.1758 3.69263 16.7692 3.69263 15.0109C3.69263 13.1428 4.35197 11.6263 5.69263 10.4835C7.03329 9.3406 8.81351 8.76917 11.0772 8.76917C11.8245 8.76917 12.5937 8.83511 13.4069 8.945C14.2201 9.05489 15.0553 9.23071 15.9344 9.42851V7.82412C15.9344 6.15379 15.5827 4.98895 14.9014 4.30763C14.1981 3.62631 13.0113 3.29664 11.319 3.29664C10.5498 3.29664 9.75856 3.38456 8.94537 3.58236C8.13219 3.78016 7.34098 4.02192 6.57175 4.32961C6.2201 4.48346 5.95636 4.57137 5.80252 4.61533C5.64867 4.65928 5.53878 4.68126 5.45087 4.68126C5.14318 4.68126 4.98933 4.46148 4.98933 3.99994V2.92302C4.98933 2.57137 5.03329 2.30763 5.14318 2.15379C5.25307 1.99994 5.45087 1.84609 5.75856 1.69225C6.52779 1.29664 7.45087 0.966974 8.52779 0.703238C9.60471 0.417523 10.7476 0.285655 11.9564 0.285655C14.5717 0.285655 16.4838 0.879062 17.7146 2.06587C18.9234 3.25269 19.5388 5.05489 19.5388 7.47247V14.5933H19.5827ZM10.6597 17.934C11.3849 17.934 12.1322 17.8021 12.9234 17.5384C13.7146 17.2747 14.4179 16.7911 15.0113 16.1318C15.363 15.7142 15.6267 15.2527 15.7586 14.7252C15.8904 14.1977 15.9783 13.5604 15.9783 12.8131V11.89C15.341 11.7362 14.6597 11.6043 13.9564 11.5164C13.2531 11.4285 12.5717 11.3846 11.8904 11.3846C10.4179 11.3846 9.34098 11.6703 8.6157 12.2637C7.89043 12.8571 7.53878 13.6922 7.53878 14.7912C7.53878 15.8241 7.80252 16.5933 8.35197 17.1208C8.87944 17.6703 9.64867 17.934 10.6597 17.934ZM28.308 20.3076C27.9124 20.3076 27.6487 20.2417 27.4728 20.0879C27.297 19.956 27.1432 19.6483 27.0113 19.2307L21.8465 2.2417C21.7146 1.80214 21.6487 1.51642 21.6487 1.36258C21.6487 1.01093 21.8245 0.813128 22.1761 0.813128H24.33C24.7476 0.813128 25.0333 0.879062 25.1871 1.03291C25.363 1.16478 25.4948 1.47247 25.6267 1.89005L29.319 16.4395L32.7476 1.89005C32.8575 1.45049 32.9893 1.16478 33.1652 1.03291C33.341 0.90104 33.6487 0.813128 34.0443 0.813128H35.8025C36.2201 0.813128 36.5058 0.879062 36.6816 1.03291C36.8575 1.16478 37.0113 1.47247 37.0992 1.89005L40.5717 16.6153L44.3739 1.89005C44.5058 1.45049 44.6597 1.16478 44.8135 1.03291C44.9893 0.90104 45.275 0.813128 45.6707 0.813128H47.7146C48.0662 0.813128 48.2641 0.988952 48.2641 1.36258C48.2641 1.47247 48.2421 1.58236 48.2201 1.71423C48.1981 1.84609 48.1542 2.02192 48.0663 2.26368L42.7695 19.2527C42.6377 19.6922 42.4838 19.978 42.308 20.1098C42.1322 20.2417 41.8465 20.3296 41.4728 20.3296H39.5827C39.1652 20.3296 38.8794 20.2637 38.7036 20.1098C38.5278 19.956 38.3739 19.6703 38.286 19.2307L34.8794 5.05489L31.4948 19.2087C31.3849 19.6483 31.2531 19.934 31.0772 20.0879C30.9014 20.2417 30.5937 20.3076 30.1981 20.3076H28.308ZM56.5498 20.901C55.4069 20.901 54.2641 20.7692 53.1652 20.5054C52.0662 20.2417 51.2091 19.956 50.6377 19.6263C50.286 19.4285 50.0443 19.2087 49.9564 19.0109C49.8685 18.8131 49.8245 18.5933 49.8245 18.3955V17.2747C49.8245 16.8131 50.0003 16.5933 50.33 16.5933C50.4619 16.5933 50.5937 16.6153 50.7256 16.6593C50.8575 16.7032 51.0553 16.7911 51.275 16.8791C52.0223 17.2087 52.8355 17.4725 53.6926 17.6483C54.5717 17.8241 55.4289 17.912 56.308 17.912C57.6926 17.912 58.7696 17.6703 59.5168 17.1868C60.2641 16.7032 60.6597 15.9999 60.6597 15.0988C60.6597 14.4835 60.4619 13.978 60.0663 13.5604C59.6707 13.1428 58.9234 12.7692 57.8465 12.4175L54.6597 11.4285C53.0553 10.923 51.8685 10.1758 51.1432 9.18675C50.4179 8.21972 50.0443 7.1428 50.0443 5.99994C50.0443 5.07686 50.2421 4.26368 50.6377 3.56038C51.0333 2.85708 51.5608 2.2417 52.2201 1.75818C52.8794 1.25269 53.6267 0.879062 54.5058 0.615326C55.3849 0.351589 56.308 0.241699 57.275 0.241699C57.7586 0.241699 58.2641 0.263677 58.7476 0.329611C59.2531 0.395545 59.7146 0.483457 60.1761 0.571369C60.6157 0.68126 61.0333 0.79115 61.4289 0.923018C61.8245 1.05489 62.1322 1.18675 62.352 1.31862C62.6597 1.49445 62.8794 1.67027 63.0113 1.86807C63.1432 2.0439 63.2091 2.28566 63.2091 2.59335V3.62631C63.2091 4.08785 63.0333 4.32961 62.7036 4.32961C62.5278 4.32961 62.2421 4.2417 61.8684 4.06587C60.6157 3.49445 59.2091 3.20873 57.6487 3.20873C56.3959 3.20873 55.4069 3.40653 54.7256 3.82412C54.0443 4.2417 53.6926 4.87906 53.6926 5.78016C53.6926 6.39554 53.9124 6.92302 54.352 7.3406C54.7915 7.75818 55.6047 8.17577 56.7696 8.54939L59.8904 9.5384C61.4728 10.0439 62.6157 10.7472 63.297 11.6483C63.9783 12.5494 64.308 13.5824 64.308 14.7252C64.308 15.6703 64.1102 16.5274 63.7366 17.2747C63.341 18.0219 62.8135 18.6813 62.1322 19.2087C61.4509 19.7582 60.6377 20.1538 59.6926 20.4395C58.7036 20.7472 57.6707 20.901 56.5498 20.901Z" fill="#252F3E"/>
<path fill-rule="evenodd" clip-rule="evenodd" d="M60.7035 31.5822C53.4727 36.9229 42.9672 39.758 33.9343 39.758C21.2749 39.758 9.86834 35.0767 1.25296 27.2965C0.571637 26.6811 1.18702 25.8459 2.00021 26.3295C11.3189 31.7361 22.8134 35.0108 34.7035 35.0108C42.7255 35.0108 51.5387 33.3405 59.6486 29.9119C60.8574 29.3624 61.8903 30.7031 60.7035 31.5822Z" fill="#FF9900"/>
<path fill-rule="evenodd" clip-rule="evenodd" d="M63.7144 28.1539C62.7913 26.9671 57.6045 27.5824 55.2528 27.8682C54.5495 27.9561 54.4397 27.3407 55.077 26.8791C59.2089 23.978 66.0001 24.8132 66.7913 25.7802C67.5825 26.7693 66.5715 33.5605 62.7034 36.8132C62.11 37.3187 61.5386 37.055 61.8023 36.3956C62.6814 34.2198 64.6375 29.3187 63.7144 28.1539Z" fill="#FF9900"/>
</g>
</g>
<defs>
<clipPath id="clip0_8_679">
<rect width="1440" height="900" fill="white" transform="translate(-955 -494)"/>
</clipPath>
<clipPath id="clip1_8_679">
<rect width="66.8132" height="40" fill="white" transform="translate(0.593506)"/>
</clipPath>
</defs>
</svg>
