<svg width="172" height="162" viewBox="0 0 172 162" fill="none" xmlns="http://www.w3.org/2000/svg">
<path fill-rule="evenodd" clip-rule="evenodd" d="M143.313 95.3677V124.746C143.313 127.452 142.578 130.107 141.185 132.428C139.793 134.748 137.796 136.646 135.409 137.92L97.3424 158.244C95.1807 159.397 92.7685 160 90.3187 160C87.8689 160 85.4567 159.397 83.295 158.244L45.2287 137.92C42.8409 136.646 40.844 134.748 39.4517 132.428C38.0594 130.107 37.3241 127.452 37.3242 124.746V95.3677" fill="white"/>
<path d="M143.313 95.3677V124.746C143.313 127.452 142.578 130.107 141.185 132.428C139.793 134.748 137.796 136.646 135.409 137.92L97.3424 158.244C95.1807 159.397 92.7685 160 90.3187 160C87.8689 160 85.4567 159.397 83.295 158.244L45.2287 137.92C42.8409 136.646 40.844 134.748 39.4517 132.428C38.0594 130.107 37.3241 127.452 37.3242 124.746V95.3677" stroke="#E1E4E5" stroke-width="3"/>
<path fill-rule="evenodd" clip-rule="evenodd" d="M68.9578 27.3105L158.951 73.759C160.161 74.3835 161.177 75.3268 161.889 76.487C162.601 77.6471 162.982 78.98 162.991 80.3412C163.001 81.7025 162.638 83.0404 161.941 84.2101C161.245 85.3799 160.242 86.3369 159.041 86.9777L125.453 104.891C123.321 106.028 120.946 106.631 118.531 106.648C116.115 106.665 113.732 106.095 111.585 104.988L21.6137 58.5248C20.4039 57.9005 19.3878 56.9572 18.6755 55.797C17.9632 54.6368 17.5818 53.3039 17.5724 51.9425C17.5634 50.5811 17.9267 49.2432 18.6233 48.0735C19.3198 46.9038 20.323 45.9468 21.5242 45.3062L55.112 27.3927C57.2416 26.2618 59.6135 25.6635 62.0248 25.6492C64.4361 25.6349 66.8149 26.2049 68.9578 27.3105Z" fill="white" stroke="#E1E4E5" stroke-width="3"/>
<path d="M111.608 27.3105L21.6147 73.759C20.405 74.3835 19.3892 75.3268 18.677 76.487C17.9649 77.6472 17.5836 78.9801 17.5744 80.3413C17.5652 81.7026 17.9284 83.0405 18.6248 84.2102C19.3211 85.3799 20.3241 86.3369 21.5252 86.9777L55.113 104.891C57.2442 106.028 59.6196 106.631 62.0351 106.648C64.4506 106.665 66.8342 106.095 68.9811 104.988L158.952 58.5248C160.162 57.9005 161.178 56.9572 161.89 55.797C162.602 54.6368 162.984 53.3039 162.993 51.9425C163.002 50.5812 162.639 49.2433 161.943 48.0735C161.246 46.9038 160.243 45.9469 159.042 45.3062L125.454 27.3927C123.324 26.2618 120.952 25.6635 118.541 25.6492C116.13 25.6349 113.751 26.2049 111.608 27.3105V27.3105Z" stroke="#E1E4E5" stroke-width="3"/>
<path d="M90.2832 159.999V93.9722" stroke="#E1E4E5" stroke-width="3"/>
<path fill-rule="evenodd" clip-rule="evenodd" d="M67.4018 4.99772V6.61686H65.7221C65.0208 6.61686 64.4448 7.17216 64.4448 7.84769C64.4448 8.52353 65.0208 9.07852 65.7221 9.07852H67.4018V10.6977C67.4018 11.3732 67.9778 11.9285 68.6791 11.9285C69.38 11.9285 69.9561 11.3732 69.9561 10.6977V9.08542H71.643C72.3439 9.08542 72.9203 8.52981 72.9203 7.85428C72.9203 7.17875 72.3439 6.62345 71.643 6.62345H69.9633V4.99772C69.9633 4.32219 69.3869 3.76689 68.6791 3.76689C67.9778 3.76689 67.4018 4.32219 67.4018 4.99772ZM3.59256 92.1312V94.03H1.6049C0.775556 94.03 0.09375 94.6814 0.09375 95.4737C0.09375 96.2663 0.775556 96.9174 1.6049 96.9174H3.59256V98.8162C3.59256 99.6088 4.27406 100.26 5.10372 100.26C5.93306 100.26 6.61486 99.6088 6.61486 98.8162V96.9252H8.61069C9.44003 96.9252 10.1218 96.2742 10.1218 95.4815C10.1218 94.6892 9.44003 94.0379 8.61069 94.0379H6.62303V92.1312C6.62303 91.3389 5.94122 90.6875 5.10372 90.6875C4.27406 90.6875 3.59256 91.3389 3.59256 92.1312ZM67.818 130.341V132.24H65.8304C65.0007 132.24 64.3192 132.891 64.3192 133.684C64.3192 134.476 65.0007 135.127 65.8304 135.127H67.818V137.026C67.818 137.819 68.4995 138.47 69.3292 138.47C70.1585 138.47 70.8403 137.819 70.8403 137.026V135.135H72.8362C73.6655 135.135 74.3473 134.484 74.3473 133.692C74.3473 132.899 73.6655 132.248 72.8362 132.248H70.8485V130.341C70.8485 129.549 70.1667 128.898 69.3292 128.898C68.4995 128.898 67.818 129.549 67.818 130.341ZM165.375 105.952V107.851H163.388C162.558 107.851 161.877 108.502 161.877 109.294C161.877 110.087 162.558 110.738 163.388 110.738H165.375V112.637C165.375 113.429 166.057 114.081 166.887 114.081C167.716 114.081 168.398 113.429 168.398 112.637V110.746H170.394C171.223 110.746 171.905 110.095 171.905 109.302C171.905 108.51 171.223 107.859 170.394 107.859H168.406V105.952C168.406 105.16 167.724 104.508 166.887 104.508C166.057 104.508 165.375 105.16 165.375 105.952ZM88.9958 15.0603V17.1152H86.8182C85.9095 17.1152 85.1627 17.8199 85.1627 18.6775C85.1627 19.5351 85.9095 20.2398 86.8182 20.2398H88.9958V22.2946C88.9958 23.1522 89.7426 23.857 90.6513 23.857C91.5604 23.857 92.3072 23.1522 92.3072 22.2946V20.2483H94.4936C95.4026 20.2483 96.1494 19.5436 96.1494 18.686C96.1494 17.8284 95.4026 17.1237 94.4936 17.1237H92.316V15.0603C92.316 14.2027 91.5692 13.498 90.6513 13.498C89.7426 13.498 88.9958 14.2027 88.9958 15.0603ZM114.072 2.31978V5.37096H111.024C109.751 5.37096 108.706 6.41721 108.706 7.69073C108.706 8.96425 109.751 10.0105 111.024 10.0105H114.072V13.0617C114.072 14.3349 115.118 15.3815 116.39 15.3815C117.662 15.3815 118.708 14.3349 118.708 13.0617V10.0231H121.769C123.042 10.0231 124.087 8.97681 124.087 7.70329C124.087 6.43008 123.042 5.38351 121.769 5.38351H118.721V2.31978C118.721 1.04657 117.675 0 116.39 0C115.118 0 114.072 1.04657 114.072 2.31978Z" fill="#E1E4E5"/>
<path d="M90.4941 84.4261C105.67 84.4261 117.973 72.2 117.973 57.1183C117.973 42.0366 105.67 29.8105 90.4941 29.8105C75.3182 29.8105 63.0156 42.0366 63.0156 57.1183C63.0156 72.2 75.3182 84.4261 90.4941 84.4261Z" fill="url(#paint0_linear_1420_32457)"/>
<path d="M100.221 51.9976L88.063 64.2861L80.7637 56.9143" stroke="white" stroke-width="6" stroke-linecap="round" stroke-linejoin="round"/>
<defs>
<linearGradient id="paint0_linear_1420_32457" x1="63.0156" y1="57.1198" x2="117.974" y2="57.1198" gradientUnits="userSpaceOnUse">
<stop stop-color="#9747FF"/>
<stop offset="1" stop-color="#81E2B4"/>
</linearGradient>
</defs>
</svg>
