<svg width="194" height="186" viewBox="0 0 194 186" fill="none" xmlns="http://www.w3.org/2000/svg">
<g id="Group">
<path id="Vector" d="M101.702 17.1326C101.702 17.1326 106.736 49.5043 161 50.3978C209.191 51.1912 193.875 108.509 176.769 126.533C154.609 149.88 111.182 143.773 108.902 170.948C106.623 198.124 45.3999 187.573 46.4426 146.6C47.7398 95.6307 19.8213 111.129 5.6876 97.4955C-4.45624 87.7105 -0.969541 42.4159 31.1829 37.2303C58.2384 32.8667 56.8358 21.4038 58.9869 12.9179C62.0888 0.679341 93.4536 -10.407 101.702 17.1326Z" fill="#E2E8F0"/>
<g id="Group_2">
<path id="Vector_2" d="M152.75 132.365C152.753 133.188 152.594 134.003 152.281 134.763C151.968 135.524 151.508 136.215 150.928 136.798C150.347 137.381 149.658 137.843 148.898 138.159C148.139 138.474 147.324 138.637 146.502 138.637L46.2771 138.841C45.4548 138.843 44.6402 138.683 43.8798 138.37C43.1195 138.057 42.4282 137.597 41.8457 137.017C41.2632 136.436 40.8008 135.747 40.485 134.988C40.1691 134.229 40.0061 133.415 40.0051 132.592L39.8643 62.1216L95.3404 27.2934C95.5886 27.1368 95.8757 27.053 96.1692 27.0517C96.4627 27.0503 96.7507 27.1313 97.0003 27.2856L151.31 61.0877L152.609 61.8943V63.0218L152.75 132.365Z" fill="#64748B"/>
<path id="Vector_3" d="M144.58 33.0001H47.4195C47.1878 33.0001 47 33.113 47 33.2523V95.7479C47 95.8872 47.1878 96.0001 47.4195 96.0001H144.58C144.812 96.0001 145 95.8872 145 95.7479V33.2523C145 33.113 144.812 33.0001 144.58 33.0001Z" fill="url(#paint0_linear_4846_8689)"/>
<path id="Vector_4" d="M146.402 138.538L96.6551 100.608C96.615 100.577 96.5828 100.538 96.561 100.492C96.5393 100.447 96.5286 100.397 96.5299 100.347C96.5312 100.296 96.5444 100.247 96.5685 100.203C96.5926 100.158 96.6268 100.121 96.6684 100.092L152.108 62.2001C152.156 62.1675 152.212 62.1485 152.27 62.1452C152.327 62.1419 152.385 62.1544 152.436 62.1813C152.487 62.2083 152.53 62.2487 152.56 62.2982C152.59 62.3477 152.606 62.4044 152.606 62.4623L152.746 132.331C152.75 133.973 152.108 135.55 150.961 136.723C149.814 137.897 148.251 138.573 146.61 138.607C146.535 138.608 146.462 138.583 146.402 138.538Z" fill="#94A3B8"/>
<path id="Vector_5" d="M46.3612 138.737L95.9556 100.61C95.9956 100.579 96.0276 100.539 96.0492 100.494C96.0708 100.448 96.0813 100.398 96.0798 100.348C96.0783 100.297 96.0648 100.248 96.0406 100.204C96.0163 100.16 95.9819 100.122 95.9402 100.094L40.3499 62.4234C40.302 62.391 40.2461 62.3722 40.1884 62.3691C40.1306 62.366 40.0731 62.3787 40.022 62.4059C39.9709 62.433 39.9282 62.4736 39.8984 62.5232C39.8686 62.5728 39.8529 62.6296 39.853 62.6874L39.993 132.556C39.9963 134.198 40.6435 135.772 41.7955 136.941C42.9474 138.11 44.5121 138.78 46.153 138.807C46.2283 138.808 46.3016 138.783 46.3612 138.737Z" fill="#94A3B8"/>
<path id="Vector_6" d="M146.494 138.608L46.2693 138.808C44.7531 138.807 43.2885 138.257 42.146 137.26C41.0035 136.264 40.2602 134.887 40.0533 133.385C40.0192 133.129 40.0488 132.869 40.1395 132.627C40.2302 132.385 40.3792 132.169 40.5732 131.998L95.2362 83.6374C95.5217 83.3848 95.8895 83.245 96.2707 83.2443C96.6519 83.2435 97.0203 83.3818 97.3068 83.6332L152.162 131.775C152.357 131.945 152.507 132.16 152.598 132.402C152.69 132.643 152.721 132.904 152.688 133.16C152.487 134.663 151.749 136.042 150.611 137.043C149.472 138.045 148.01 138.6 146.494 138.608Z" fill="#64748B"/>
<path id="Vector_7" d="M71.7818 59.1982C73.7278 59.1982 75.3053 57.0948 75.3053 54.5002C75.3053 51.9056 73.7278 49.8022 71.7818 49.8022C69.8358 49.8022 68.2583 51.9056 68.2583 54.5002C68.2583 57.0948 69.8358 59.1982 71.7818 59.1982Z" fill="white"/>
<path id="Vector_8" d="M121.112 59.1982C123.058 59.1982 124.635 57.0948 124.635 54.5002C124.635 51.9056 123.058 49.8022 121.112 49.8022C119.166 49.8022 117.588 51.9056 117.588 54.5002C117.588 57.0948 119.166 59.1982 121.112 59.1982Z" fill="white"/>
<path id="Vector_9" d="M109.759 74.7756C109.64 74.7757 109.523 74.7455 109.419 74.6879C109.315 74.6304 109.227 74.5472 109.164 74.4464C109.128 74.388 105.296 68.4684 96.389 67.7264C92.6819 67.4177 89.1639 68.4499 85.9367 70.7956C84.4974 71.8291 83.2188 73.0699 82.1427 74.4776C82.0356 74.6283 81.8733 74.7306 81.6911 74.762C81.5089 74.7935 81.3217 74.7516 81.1703 74.6455C81.0189 74.5394 80.9157 74.3777 80.8831 74.1957C80.8504 74.0137 80.8911 73.8263 80.9962 73.6742C81.0549 73.5902 82.4632 71.5995 85.0718 69.6933C88.5395 67.1593 92.4933 65.9973 96.505 66.3309C106.14 67.1338 110.184 73.4367 110.351 73.7046C110.417 73.8105 110.454 73.9322 110.457 74.057C110.461 74.1819 110.43 74.3054 110.37 74.4147C110.309 74.524 110.221 74.6151 110.113 74.6786C110.006 74.7421 109.883 74.7756 109.758 74.7757L109.759 74.7756Z" fill="white"/>
</g>
</g>
<defs>
<linearGradient id="paint0_linear_4846_8689" x1="96" y1="33.0001" x2="96" y2="96.0001" gradientUnits="userSpaceOnUse">
<stop stop-color="#8851C8"/>
<stop offset="1" stop-color="#81E2B4"/>
</linearGradient>
</defs>
</svg>
