<svg height='96' width='96' viewBox="0 0 96 96" fill="none" xmlns="http://www.w3.org/2000/svg">
  <circle cx="48" cy="48" r="48" fill="#64748B"/>
  <rect x="27" y="15" width="41.1633" height="11.7755" rx="1" stroke="white" stroke-width="2"/>
  <circle cx="32.8877" cy="20.8877" r="2.29592" fill="white"/>
  <circle cx="39.3164" cy="20.8877" r="2.29592" fill="white"/>
  <rect x="27" y="30.6123" width="41.1633" height="11.7755" rx="1" stroke="white" stroke-width="2"/>
  <circle cx="32.8877" cy="36.5" r="2.29592" fill="white"/>
  <circle cx="39.3164" cy="36.5" r="2.29592" fill="white"/>
  <rect x="27" y="46.2246" width="41.1633" height="11.7755" rx="1" stroke="white" stroke-width="2"/>
  <circle cx="32.8877" cy="52.1123" r="2.29592" fill="white"/>
  <circle cx="39.3164" cy="52.1123" r="2.29592" fill="white"/>
  <path d="M28.3324 73.959H26.1586V72.5879H28.3324C28.6684 72.5879 28.9418 72.5332 29.1527 72.4238C29.3637 72.3105 29.518 72.1543 29.6156 71.9551C29.7133 71.7559 29.7621 71.5312 29.7621 71.2812C29.7621 71.0273 29.7133 70.791 29.6156 70.5723C29.518 70.3535 29.3637 70.1777 29.1527 70.0449C28.9418 69.9121 28.6684 69.8457 28.3324 69.8457H26.768V77H25.0102V68.4688H28.3324C29.0004 68.4688 29.5727 68.5898 30.0492 68.832C30.5297 69.0703 30.8969 69.4004 31.1508 69.8223C31.4047 70.2441 31.5316 70.7266 31.5316 71.2695C31.5316 71.8203 31.4047 72.2969 31.1508 72.6992C30.8969 73.1016 30.5297 73.4121 30.0492 73.6309C29.5727 73.8496 29.0004 73.959 28.3324 73.959ZM34.6855 68V77H32.998V68H34.6855ZM34.4453 73.6074H33.9824C33.9863 73.166 34.0449 72.7598 34.1582 72.3887C34.2715 72.0137 34.4336 71.6895 34.6445 71.416C34.8555 71.1387 35.1074 70.9238 35.4004 70.7715C35.6973 70.6191 36.0254 70.543 36.3848 70.543C36.6973 70.543 36.9805 70.5879 37.2344 70.6777C37.4922 70.7637 37.7129 70.9043 37.8965 71.0996C38.084 71.291 38.2285 71.543 38.3301 71.8555C38.4316 72.168 38.4824 72.5469 38.4824 72.9922V77H36.7832V72.9805C36.7832 72.6992 36.7422 72.4785 36.6602 72.3184C36.582 72.1543 36.4668 72.0391 36.3145 71.9727C36.166 71.9023 35.9824 71.8672 35.7637 71.8672C35.5215 71.8672 35.3145 71.9121 35.1426 72.002C34.9746 72.0918 34.8398 72.2168 34.7383 72.377C34.6367 72.5332 34.5625 72.7168 34.5156 72.9277C34.4688 73.1387 34.4453 73.3652 34.4453 73.6074ZM42.0465 76.2852L43.7281 70.6602H45.5387L42.9898 77.9551C42.9352 78.1152 42.8609 78.2871 42.7672 78.4707C42.6773 78.6543 42.5543 78.8281 42.398 78.9922C42.2457 79.1602 42.0523 79.2969 41.818 79.4023C41.5875 79.5078 41.3043 79.5605 40.9684 79.5605C40.8082 79.5605 40.6773 79.5508 40.5758 79.5312C40.4742 79.5117 40.3531 79.4844 40.2125 79.4492V78.2129C40.2555 78.2129 40.3004 78.2129 40.3473 78.2129C40.3941 78.2168 40.4391 78.2188 40.482 78.2188C40.7047 78.2188 40.8863 78.1934 41.027 78.1426C41.1676 78.0918 41.2809 78.0137 41.3668 77.9082C41.4527 77.8066 41.5211 77.6738 41.5719 77.5098L42.0465 76.2852ZM41.3434 70.6602L42.7203 75.2539L42.9605 77.041L41.8121 77.1641L39.5328 70.6602H41.3434ZM50.0402 75.248C50.0402 75.127 50.0051 75.0176 49.9348 74.9199C49.8645 74.8223 49.7336 74.7324 49.5422 74.6504C49.3547 74.5645 49.0832 74.4863 48.7277 74.416C48.4074 74.3457 48.1086 74.2578 47.8313 74.1523C47.5578 74.043 47.3195 73.9121 47.1164 73.7598C46.9172 73.6074 46.7609 73.4277 46.6477 73.2207C46.5344 73.0098 46.4777 72.7695 46.4777 72.5C46.4777 72.2344 46.5344 71.9844 46.6477 71.75C46.7648 71.5156 46.9309 71.3086 47.1457 71.1289C47.3645 70.9453 47.6301 70.8027 47.9426 70.7012C48.259 70.5957 48.6145 70.543 49.009 70.543C49.5598 70.543 50.0324 70.6309 50.427 70.8066C50.8254 70.9824 51.1301 71.2246 51.341 71.5332C51.5559 71.8379 51.6633 72.1855 51.6633 72.5762H49.9758C49.9758 72.4121 49.9406 72.2656 49.8703 72.1367C49.8039 72.0039 49.6984 71.9004 49.5539 71.8262C49.4133 71.748 49.2297 71.709 49.0031 71.709C48.8156 71.709 48.6535 71.7422 48.5168 71.8086C48.3801 71.8711 48.2746 71.957 48.2004 72.0664C48.1301 72.1719 48.0949 72.2891 48.0949 72.418C48.0949 72.5156 48.1145 72.6035 48.1535 72.6816C48.1965 72.7559 48.2648 72.8242 48.3586 72.8867C48.4523 72.9492 48.5734 73.0078 48.7219 73.0625C48.8742 73.1133 49.0617 73.1602 49.2844 73.2031C49.7414 73.2969 50.1496 73.4199 50.509 73.5723C50.8684 73.7207 51.1535 73.9238 51.3645 74.1816C51.5754 74.4355 51.6809 74.7695 51.6809 75.1836C51.6809 75.4648 51.6184 75.7227 51.4934 75.957C51.3684 76.1914 51.1887 76.3965 50.9543 76.5723C50.7199 76.7441 50.4387 76.8789 50.1105 76.9766C49.7863 77.0703 49.4211 77.1172 49.0148 77.1172C48.425 77.1172 47.925 77.0117 47.5148 76.8008C47.1086 76.5898 46.8 76.3223 46.5891 75.998C46.382 75.6699 46.2785 75.334 46.2785 74.9902H47.8781C47.8859 75.2207 47.9445 75.4062 48.0539 75.5469C48.1672 75.6875 48.3098 75.7891 48.4816 75.8516C48.6574 75.9141 48.8469 75.9453 49.05 75.9453C49.2688 75.9453 49.4504 75.916 49.5949 75.8574C49.7395 75.7949 49.8488 75.7129 49.923 75.6113C50.0012 75.5059 50.0402 75.3848 50.0402 75.248ZM54.9578 70.6602V77H53.2645V70.6602H54.9578ZM53.159 69.0078C53.159 68.7617 53.2449 68.5586 53.4168 68.3984C53.5887 68.2383 53.8191 68.1582 54.1082 68.1582C54.3934 68.1582 54.6219 68.2383 54.7938 68.3984C54.9695 68.5586 55.0574 68.7617 55.0574 69.0078C55.0574 69.2539 54.9695 69.457 54.7938 69.6172C54.6219 69.7773 54.3934 69.8574 54.1082 69.8574C53.8191 69.8574 53.5887 69.7773 53.4168 69.6172C53.2449 69.457 53.159 69.2539 53.159 69.0078ZM59.3715 75.7988C59.5785 75.7988 59.7621 75.7598 59.9223 75.6816C60.0824 75.5996 60.2074 75.4863 60.2973 75.3418C60.391 75.1934 60.4398 75.0195 60.4437 74.8203H62.0316C62.0277 75.2656 61.9086 75.6621 61.6742 76.0098C61.4398 76.3535 61.1254 76.625 60.7309 76.8242C60.3363 77.0195 59.8949 77.1172 59.4066 77.1172C58.9145 77.1172 58.4848 77.0352 58.1176 76.8711C57.7543 76.707 57.4516 76.4805 57.2094 76.1914C56.9672 75.8984 56.7855 75.5586 56.6645 75.1719C56.5434 74.7812 56.4828 74.3633 56.4828 73.918V73.748C56.4828 73.2988 56.5434 72.8809 56.6645 72.4941C56.7855 72.1035 56.9672 71.7637 57.2094 71.4746C57.4516 71.1816 57.7543 70.9531 58.1176 70.7891C58.4809 70.625 58.9066 70.543 59.3949 70.543C59.9145 70.543 60.3695 70.6426 60.7602 70.8418C61.1547 71.041 61.4633 71.3262 61.6859 71.6973C61.9125 72.0645 62.0277 72.5 62.0316 73.0039H60.4437C60.4398 72.793 60.3949 72.6016 60.309 72.4297C60.227 72.2578 60.1059 72.1211 59.9457 72.0195C59.7895 71.9141 59.5961 71.8613 59.3656 71.8613C59.1195 71.8613 58.9184 71.9141 58.7621 72.0195C58.6059 72.1211 58.4848 72.2617 58.3988 72.4414C58.3129 72.6172 58.2523 72.8184 58.2172 73.0449C58.1859 73.2676 58.1703 73.502 58.1703 73.748V73.918C58.1703 74.1641 58.1859 74.4004 58.2172 74.627C58.2484 74.8535 58.307 75.0547 58.393 75.2305C58.4828 75.4062 58.6059 75.5449 58.7621 75.6465C58.9184 75.748 59.1215 75.7988 59.3715 75.7988ZM66.832 75.5703V72.7461C66.832 72.543 66.7988 72.3691 66.7324 72.2246C66.666 72.0762 66.5625 71.9609 66.4219 71.8789C66.2852 71.7969 66.1074 71.7559 65.8887 71.7559C65.7012 71.7559 65.5391 71.7891 65.4023 71.8555C65.2656 71.918 65.1602 72.0098 65.0859 72.1309C65.0117 72.248 64.9746 72.3867 64.9746 72.5469H63.2871C63.2871 72.2773 63.3496 72.0215 63.4746 71.7793C63.5996 71.5371 63.7812 71.3242 64.0195 71.1406C64.2578 70.9531 64.541 70.8066 64.8691 70.7012C65.2012 70.5957 65.5723 70.543 65.9824 70.543C66.4746 70.543 66.9121 70.625 67.2949 70.7891C67.6777 70.9531 67.9785 71.1992 68.1973 71.5273C68.4199 71.8555 68.5312 72.2656 68.5312 72.7578V75.4707C68.5312 75.8184 68.5527 76.1035 68.5957 76.3262C68.6387 76.5449 68.7012 76.7363 68.7832 76.9004V77H67.0781C66.9961 76.8281 66.9336 76.6133 66.8906 76.3555C66.8516 76.0938 66.832 75.832 66.832 75.5703ZM67.0547 73.1387L67.0664 74.0938H66.123C65.9004 74.0938 65.707 74.1191 65.543 74.1699C65.3789 74.2207 65.2441 74.293 65.1387 74.3867C65.0332 74.4766 64.9551 74.582 64.9043 74.7031C64.8574 74.8242 64.834 74.957 64.834 75.1016C64.834 75.2461 64.8672 75.377 64.9336 75.4941C65 75.6074 65.0957 75.6973 65.2207 75.7637C65.3457 75.8262 65.4922 75.8574 65.6602 75.8574C65.9141 75.8574 66.1348 75.8066 66.3223 75.7051C66.5098 75.6035 66.6543 75.4785 66.7559 75.3301C66.8613 75.1816 66.916 75.041 66.9199 74.9082L67.3652 75.623C67.3027 75.7832 67.2168 75.9492 67.1074 76.1211C67.002 76.293 66.8672 76.4551 66.7031 76.6074C66.5391 76.7559 66.3418 76.8789 66.1113 76.9766C65.8809 77.0703 65.6074 77.1172 65.291 77.1172C64.8887 77.1172 64.5234 77.0371 64.1953 76.877C63.8711 76.7129 63.6133 76.4883 63.4219 76.2031C63.2344 75.9141 63.1406 75.5859 63.1406 75.2188C63.1406 74.8867 63.2031 74.5918 63.3281 74.334C63.4531 74.0762 63.6367 73.8594 63.8789 73.6836C64.125 73.5039 64.4316 73.3691 64.7988 73.2793C65.166 73.1855 65.5918 73.1387 66.0762 73.1387H67.0547ZM72.0133 68V77H70.3199V68H72.0133Z" fill="white"/>
</svg>
