<svg width="96" height="96" viewBox="0 0 96 96" fill="none" xmlns="http://www.w3.org/2000/svg">
<g id="Group 47648">
<g id="Group 47656">
<circle id="Ellipse 1477" cx="48" cy="48" r="48" fill="#F5D0FE"/>
<g id="Group 47664">
<path id="Vector" d="M35.852 48.973V38.8116L26.9731 33.6816V43.843L35.852 48.973ZM37.825 48.973L46.7039 43.843V33.6487L37.825 38.8063V48.973ZM36.8385 37.1345L45.5858 32.0373L36.8385 26.9731L28.0583 32.0373L36.8385 37.1345ZM25.9865 45.553C25.6741 45.3682 25.4316 45.1248 25.259 44.8225C25.0863 44.5202 25 44.1937 25 43.843V32.6621C25 32.3114 25.0863 31.9849 25.259 31.6826C25.4316 31.3804 25.6741 31.1369 25.9865 30.9521L35.852 25.2631C36.1661 25.0877 36.4967 25 36.8439 25C37.1911 25 37.5181 25.0877 37.825 25.2631L47.6905 30.9521C48.0029 31.1369 48.2454 31.3804 48.418 31.6826C48.5907 31.9849 48.677 32.3114 48.677 32.6621V43.843C48.677 44.1937 48.5907 44.5202 48.418 44.8225C48.2454 45.1248 48.0029 45.3682 47.6905 45.553L37.825 51.242C37.5109 51.4174 37.1803 51.5051 36.8331 51.5051C36.4859 51.5051 36.1589 51.4174 35.852 51.242L25.9865 45.553Z" fill="white"/>
<path id="Vector_2" d="M46.7485 67.4681V57.3067L37.8696 52.1767V62.3381L46.7485 67.4681ZM48.7216 67.4681L57.6005 62.3381V52.1438L48.7216 57.3014V67.4681ZM47.735 55.6296L56.4824 50.5325L47.735 45.4682L38.9548 50.5325L47.735 55.6296ZM36.8831 64.0481C36.5707 63.8634 36.3282 63.6199 36.1555 63.3176C35.9829 63.0154 35.8965 62.6888 35.8965 62.3381V51.1573C35.8965 50.8065 35.9829 50.48 36.1555 50.1777C36.3282 49.8755 36.5707 49.632 36.8831 49.4473L46.7485 43.7582C47.0626 43.5828 47.3933 43.4951 47.7404 43.4951C48.0876 43.4951 48.4147 43.5828 48.7216 43.7582L58.587 49.4473C58.8994 49.632 59.1419 49.8755 59.3146 50.1777C59.4872 50.48 59.5735 50.8065 59.5735 51.1573V62.3381C59.5735 62.6888 59.4872 63.0154 59.3146 63.3176C59.1419 63.6199 58.8994 63.8634 58.587 64.0481L48.7216 69.7371C48.4075 69.9125 48.0768 70.0002 47.7297 70.0002C47.3825 70.0002 47.0554 69.9125 46.7485 69.7371L36.8831 64.0481Z" fill="white"/>
<path id="Vector_3" d="M57.645 48.973V38.8116L48.7662 33.6816V43.843L57.645 48.973ZM59.6181 48.973L68.497 43.843V33.6487L59.6181 38.8063V48.973ZM58.6316 37.1345L67.3789 32.0373L58.6316 26.9731L49.8514 32.0373L58.6316 37.1345ZM47.7796 45.553C47.4672 45.3682 47.2247 45.1248 47.0521 44.8225C46.8794 44.5202 46.7931 44.1937 46.7931 43.843V32.6621C46.7931 32.3114 46.8794 31.9849 47.0521 31.6826C47.2247 31.3804 47.4672 31.1369 47.7796 30.9521L57.645 25.2631C57.9592 25.0877 58.2898 25 58.637 25C58.9842 25 59.3112 25.0877 59.6181 25.2631L69.4836 30.9521C69.796 31.1369 70.0385 31.3804 70.2111 31.6826C70.3838 31.9849 70.4701 32.3114 70.4701 32.6621V43.843C70.4701 44.1937 70.3838 44.5202 70.2111 44.8225C70.0385 45.1248 69.796 45.3682 69.4836 45.553L59.6181 51.242C59.304 51.4174 58.9734 51.5051 58.6262 51.5051C58.279 51.5051 57.952 51.4174 57.645 51.242L47.7796 45.553Z" fill="white"/>
</g>
</g>
</g>
</svg>
