<svg width="96" height="96" viewBox="0 0 96 96" fill="none" xmlns="http://www.w3.org/2000/svg">
<circle cx="48" cy="48" r="48" fill="#CBD5E1"/>
<path d="M35.852 48.973V38.8116L26.9731 33.6816V43.843L35.852 48.973ZM37.825 48.973L46.7039 43.843V33.6487L37.825 38.8063V48.973ZM36.8385 37.1345L45.5858 32.0373L36.8385 26.9731L28.0583 32.0373L36.8385 37.1345ZM25.9865 45.553C25.6741 45.3682 25.4316 45.1248 25.259 44.8225C25.0863 44.5202 25 44.1937 25 43.843V32.6621C25 32.3114 25.0863 31.9849 25.259 31.6826C25.4316 31.3804 25.6741 31.1369 25.9865 30.9521L35.852 25.2631C36.1661 25.0877 36.4967 25 36.8439 25C37.1911 25 37.5181 25.0877 37.825 25.2631L47.6905 30.9521C48.0029 31.1369 48.2454 31.3804 48.418 31.6826C48.5907 31.9849 48.677 32.3114 48.677 32.6621V43.843C48.677 44.1937 48.5907 44.5202 48.418 44.8225C48.2454 45.1248 48.0029 45.3682 47.6905 45.553L37.825 51.242C37.5109 51.4174 37.1803 51.5051 36.8331 51.5051C36.4859 51.5051 36.1589 51.4174 35.852 51.242L25.9865 45.553Z" fill="white"/>
<path d="M46.7484 67.4678V57.3065L37.8696 52.1764V62.3378L46.7484 67.4678ZM48.7215 67.4678L57.6004 62.3378V52.1436L48.7215 57.3011V67.4678ZM47.735 55.6293L56.4823 50.5322L47.735 45.468L38.9548 50.5322L47.735 55.6293ZM36.883 64.0478C36.5706 63.8631 36.3281 63.6196 36.1555 63.3174C35.9828 63.0151 35.8965 62.6886 35.8965 62.3378V51.157C35.8965 50.8062 35.9828 50.4797 36.1555 50.1775C36.3281 49.8752 36.5706 49.6317 36.883 49.447L46.7484 43.758C47.0626 43.5826 47.3932 43.4949 47.7404 43.4949C48.0876 43.4949 48.4146 43.5826 48.7215 43.758L58.587 49.447C58.8994 49.6317 59.1419 49.8752 59.3145 50.1775C59.4872 50.4797 59.5735 50.8062 59.5735 51.157V62.3378C59.5735 62.6886 59.4872 63.0151 59.3145 63.3174C59.1419 63.6196 58.8994 63.8631 58.587 64.0478L48.7215 69.7369C48.4074 69.9123 48.0768 70 47.7296 70C47.3824 70 47.0554 69.9123 46.7484 69.7369L36.883 64.0478Z" fill="white"/>
<path d="M57.6451 48.973V38.8116L48.7662 33.6816V43.843L57.6451 48.973ZM59.6181 48.973L68.497 43.843V33.6487L59.6181 38.8063V48.973ZM58.6316 37.1345L67.3789 32.0373L58.6316 26.9731L49.8514 32.0373L58.6316 37.1345ZM47.7796 45.553C47.4672 45.3682 47.2247 45.1248 47.0521 44.8225C46.8794 44.5202 46.7931 44.1937 46.7931 43.843V32.6621C46.7931 32.3114 46.8794 31.9849 47.0521 31.6826C47.2247 31.3804 47.4672 31.1369 47.7796 30.9521L57.6451 25.2631C57.9592 25.0877 58.2898 25 58.637 25C58.9842 25 59.3112 25.0877 59.6181 25.2631L69.4836 30.9521C69.796 31.1369 70.0385 31.3804 70.2111 31.6826C70.3838 31.9849 70.4701 32.3114 70.4701 32.6621V43.843C70.4701 44.1937 70.3838 44.5202 70.2111 44.8225C70.0385 45.1248 69.796 45.3682 69.4836 45.553L59.6181 51.242C59.304 51.4174 58.9734 51.5051 58.6262 51.5051C58.279 51.5051 57.952 51.4174 57.6451 51.242L47.7796 45.553Z" fill="white"/>
</svg>
