<svg width="24" height="24" viewBox="0 0 24 24" fill="none" xmlns="http://www.w3.org/2000/svg">
<path fill-rule="evenodd" clip-rule="evenodd" d="M4.40281 11.6221C5.51881 12.0051 6.40781 12.9391 6.77981 14.1231L6.81981 14.2431C7.24581 15.4991 7.07281 16.8511 6.35881 17.8651C6.22881 18.0491 6.25781 18.2691 6.39481 18.3731L8.46681 19.9471C8.53981 20.0021 8.61081 20.0021 8.65481 19.9971C8.70481 19.9891 8.77781 19.9621 8.83681 19.8781L9.06781 19.5501C9.75681 18.5731 10.8668 17.9701 12.0388 17.9361C13.3548 17.9091 14.5368 18.5121 15.2728 19.5751L15.3908 19.7461C15.4498 19.8301 15.5218 19.8581 15.5728 19.8661C15.6168 19.8751 15.6888 19.8721 15.7608 19.8161L17.8218 18.2611C17.9658 18.1531 17.9978 17.9221 17.8908 17.7671L17.6308 17.3921C16.9608 16.4241 16.7618 15.1681 17.0988 14.0331C17.4648 12.7971 18.3958 11.8191 19.5908 11.4191L19.7918 11.3511C19.9528 11.2981 20.0398 11.0981 19.9828 10.9141L19.1958 8.39309C19.1588 8.27509 19.0828 8.22209 19.0408 8.20009C18.9808 8.16909 18.9158 8.16409 18.8538 8.18509L18.5138 8.29809C17.3508 8.68509 16.0678 8.47509 15.0828 7.73409L14.9748 7.65309C14.0388 6.94909 13.4818 5.81409 13.4858 4.61809L13.4878 4.33809C13.4878 4.20509 13.4248 4.12209 13.3868 4.08409C13.3508 4.04709 13.2898 4.00309 13.2038 4.00309L10.6568 4.00009C10.5008 4.00009 10.3738 4.14909 10.3728 4.33309L10.3718 4.57509C10.3668 5.79009 9.79781 6.94609 8.84981 7.66909L8.72081 7.76709C7.67781 8.56009 6.31781 8.78409 5.08581 8.36409C5.03881 8.34809 4.99481 8.35109 4.95281 8.37309C4.92081 8.38909 4.86281 8.43009 4.83481 8.52109L4.01781 11.1171C3.95881 11.3061 4.05581 11.5031 4.23881 11.5661L4.40281 11.6221ZM8.61381 22.0001C8.12781 22.0001 7.65581 21.8421 7.25781 21.5391L5.18581 19.9661C4.19581 19.2161 3.97681 17.7731 4.69681 16.7501C5.07081 16.2201 5.14781 15.5391 4.92781 14.8931L4.87281 14.7251C4.68981 14.1431 4.27181 13.6911 3.75481 13.5141H3.75381L3.59081 13.4571C2.37281 13.0401 1.72281 11.7491 2.10981 10.5171L2.92581 7.92209C3.11081 7.33509 3.50981 6.86109 4.04981 6.58809C4.57781 6.32209 5.17481 6.28109 5.73281 6.47209C6.33181 6.67609 6.99681 6.56509 7.50981 6.17509L7.63881 6.07709C8.09481 5.72909 8.36981 5.16409 8.37181 4.56709L8.37281 4.32609C8.37781 3.04209 9.40281 2.00009 10.6558 2.00009H10.6598L13.2068 2.00309C13.8088 2.00409 14.3768 2.24209 14.8048 2.67309C15.2478 3.11809 15.4898 3.71309 15.4878 4.34809L15.4858 4.62709C15.4838 5.19309 15.7428 5.72809 16.1798 6.05609L16.2868 6.13709C16.7458 6.48209 17.3438 6.58109 17.8808 6.40109L18.2198 6.28809C18.7968 6.09609 19.4108 6.14309 19.9518 6.42009C20.5068 6.70409 20.9168 7.19309 21.1048 7.79809L21.8918 10.3191C22.2718 11.5371 21.6138 12.8511 20.4268 13.2481L20.2258 13.3151C19.6498 13.5091 19.1968 13.9891 19.0158 14.6011C18.8498 15.1621 18.9458 15.7791 19.2748 16.2531L19.5348 16.6281C20.2488 17.6601 20.0208 19.1081 19.0268 19.8571L16.9658 21.4131C16.4708 21.7871 15.8638 21.9381 15.2548 21.8411C14.6408 21.7421 14.1048 21.4021 13.7458 20.8841L13.6278 20.7121C13.2778 20.2081 12.7178 19.9021 12.1308 19.9351C11.5428 19.9511 11.0348 20.2301 10.7028 20.7021L10.4718 21.0301C10.1098 21.5431 9.57281 21.8781 8.96181 21.9741C8.84481 21.9921 8.72881 22.0001 8.61381 22.0001ZM12 10.5C11.173 10.5 10.5 11.173 10.5 12C10.5 12.827 11.173 13.5 12 13.5C12.827 13.5 13.5 12.827 13.5 12C13.5 11.173 12.827 10.5 12 10.5ZM12 15.5C10.07 15.5 8.50001 13.93 8.50001 12C8.50001 10.07 10.07 8.49999 12 8.49999C13.93 8.49999 15.5 10.07 15.5 12C15.5 13.93 13.93 15.5 12 15.5Z" fill="black"/>
</svg>
