<svg width="200" height="148" viewBox="0 0 200 148" fill="none" xmlns="http://www.w3.org/2000/svg">
  <path d="M103.864 147.859C149.677 147.859 186.816 145.645 186.816 142.915C186.816 140.184 149.677 137.97 103.864 137.97C58.0519 137.97 20.9131 140.184 20.9131 142.915C20.9131 145.645 58.0519 147.859 103.864 147.859Z" fill="#E5E7EB"/>
  <path d="M106.656 139.435H101.073C100.895 139.435 100.751 137.818 100.751 135.824V96.5355C100.751 94.5413 100.895 92.9241 101.073 92.9241H106.656C106.833 92.9241 106.977 94.5413 106.977 96.5355V135.824C106.977 137.818 106.833 139.435 106.656 139.435Z" fill="white" stroke="#E5E7EB" stroke-width="2"/>
  <path d="M65.846 139.7L63.731 137.585C63.6636 137.517 64.9601 136.112 66.6261 134.446L99.4481 101.624C101.114 99.9579 102.52 98.6614 102.587 98.7288L104.702 100.844C104.769 100.911 103.473 102.316 101.807 103.982L68.9846 136.805C67.3186 138.471 65.9134 139.767 65.846 139.7Z" fill="white" stroke="#E5E7EB" stroke-width="2"/>
  <path d="M142.79 140.103L144.905 137.988C144.972 137.921 143.662 136.501 141.978 134.818L108.816 101.655C107.133 99.9718 105.713 98.6614 105.646 98.7288L103.531 100.844C103.463 100.911 104.774 102.331 106.457 104.014L139.62 137.176C141.303 138.86 142.723 140.17 142.79 140.103Z" fill="white" stroke="#E5E7EB" stroke-width="2"/>
  <path d="M178.248 112.334H29.481C25.1514 112.334 21.6455 108.839 21.6455 104.536V11.7281C21.6455 7.42524 25.1514 3.92993 29.481 3.92993H178.248C182.577 3.92993 186.083 7.42524 186.083 11.7281V104.536C186.083 108.839 182.577 112.334 178.248 112.334Z" fill="white" stroke="#E5E7EB" stroke-width="2"/>
  <path d="M42.6503 71.3805L38.2039 75.8225L36.0435 73.6687M52.2844 69.2545H65.4262M93.4378 69.2545H106.58M134.006 69.134H157.188M134.006 84.2202H157.188M52.3869 75.7745H74.1194M93.5403 75.7745H115.273M133.998 75.7112H167.942M133.998 90.7973H167.942M42.6503 86.5934L38.2039 91.0354L36.0435 88.882M52.2844 84.4678H65.4262M93.4378 84.4678H106.58M52.3869 90.9878H74.1194M93.5403 90.9878H115.273" stroke="#E5E7EB" stroke-width="2" stroke-linecap="round" stroke-linejoin="round"/>
  <path d="M122.091 142.365H85.6382C85.1017 142.365 84.6409 142.309 84.3362 142.23C84.3144 142.225 84.2927 142.219 84.2711 142.212V137.025C84.2908 137.019 84.3128 137.013 84.3362 137.007C84.6409 136.929 85.1017 136.872 85.6382 136.872H122.091C122.627 136.872 123.088 136.929 123.393 137.007C123.416 137.013 123.438 137.019 123.458 137.025V142.212C123.436 142.219 123.414 142.225 123.393 142.23C123.088 142.309 122.627 142.365 122.091 142.365ZM84.0843 142.142C84.0693 142.133 84.0726 142.133 84.0857 142.143L84.0843 142.142ZM84.0843 137.095L84.0857 137.094C84.0726 137.104 84.0693 137.104 84.0843 137.095ZM123.645 137.095C123.66 137.104 123.656 137.104 123.643 137.094L123.645 137.095ZM123.645 142.142L123.643 142.143C123.656 142.133 123.66 142.133 123.645 142.142ZM72.5517 136.872V142.365H60.0998V136.872H72.5517ZM147.629 136.872V142.365H135.177V136.872H147.629ZM21.6455 3.92993H186.083V10.1559H21.6455V3.92993Z" fill="white" stroke="#E5E7EB" stroke-width="2"/>
  <path d="M115.217 1H91.7785C90.2615 1 89.0317 2.22975 89.0317 3.74673C89.0317 5.26371 90.2615 6.49347 91.7785 6.49347H115.217C116.734 6.49347 117.964 5.26371 117.964 3.74673C117.964 2.22975 116.734 1 115.217 1Z" fill="white" stroke="#E5E7EB" stroke-width="2"/>
  <path fill-rule="evenodd" clip-rule="evenodd" d="M34.4297 30.962V55.3428C34.4297 56.666 35.4896 57.7376 36.7981 57.7376H71.0385H51.1496L57.4144 48.8078C57.7132 48.3818 58.46 48.3818 58.7588 48.8078L60.9521 51.9346L60.969 51.9592L60.984 51.9376L65.6879 45.1077C66.0131 44.6349 66.8283 44.6349 67.1535 45.1077L73.3835 54.1544V55.349V30.962C73.3835 29.6385 72.3211 28.5669 71.0154 28.5669H36.7981C35.4896 28.5669 34.4297 29.6385 34.4297 30.962Z" fill="url(#paint0_linear_4194_72108)"/>
  <path d="M45.4151 47.1679C42.0279 47.1679 39.2822 44.4219 39.2822 41.035C39.2822 37.6477 42.0279 34.9021 45.4151 34.9021C48.802 34.9021 51.5477 37.6477 51.5477 41.035C51.5477 44.4219 48.802 47.1679 45.4151 47.1679Z" fill="white"/>
  <path fill-rule="evenodd" clip-rule="evenodd" d="M83.0293 30.962V55.3428C83.0293 56.666 84.0888 57.7376 85.3973 57.7376H119.638H99.7488L106.014 48.8078C106.312 48.3818 107.06 48.3818 107.358 48.8078L109.551 51.9346L109.569 51.9592L109.583 51.9376L114.287 45.1077C114.613 44.6349 115.428 44.6349 115.753 45.1077L121.983 54.1544V55.3472V30.962C121.983 29.6385 120.92 28.5669 119.615 28.5669H85.3973C84.0888 28.5669 83.0293 29.6385 83.0293 30.962Z" fill="url(#paint1_linear_4194_72108)"/>
  <path d="M94.0138 47.1679C90.6265 47.1679 87.8809 44.4219 87.8809 41.035C87.8809 37.6477 90.6265 34.9021 94.0138 34.9021C97.4007 34.9021 100.147 37.6477 100.147 41.035C100.147 44.4219 97.4007 47.1679 94.0138 47.1679Z" fill="white"/>
  <path fill-rule="evenodd" clip-rule="evenodd" d="M131.628 30.962V55.3428C131.628 56.666 132.688 57.7376 133.996 57.7376H168.237H148.348L154.613 48.8078C154.912 48.3818 155.659 48.3818 155.958 48.8078L158.151 51.9346L158.168 51.9592L158.182 51.9376L162.887 45.1077C163.212 44.6349 164.027 44.6349 164.352 45.1077L170.582 54.1544V55.3483V30.962C170.582 29.6385 169.52 28.5669 168.214 28.5669H133.996C132.688 28.5669 131.628 29.6385 131.628 30.962Z" fill="url(#paint2_linear_4194_72108)"/>
  <path d="M142.613 47.1679C139.226 47.1679 136.48 44.4219 136.48 41.035C136.48 37.6477 139.226 34.9021 142.613 34.9021C146.001 34.9021 148.746 37.6477 148.746 41.035C148.746 44.4219 146.001 47.1679 142.613 47.1679Z" fill="white"/>
  <path d="M8.48559 52.3413C5.42756 55.1521 0.0223446 54.2515 0.0223446 54.2515C0.0223446 54.2515 -0.420794 48.7932 2.6398 45.9842C5.69783 43.173 11.1001 44.0721 11.1001 44.0721C11.1001 44.0721 11.5436 49.5301 8.48559 52.3413Z" fill="url(#paint3_linear_4194_72108)"/>
  <path d="M6.99624 73.8801C8.41208 73.8801 9.55985 75.0279 9.55985 76.4437C9.55985 77.8596 8.41208 79.0073 6.99624 79.0073C5.58039 79.0073 4.43262 77.8596 4.43262 76.4437C4.43262 75.0279 5.58039 73.8801 6.99624 73.8801Z" fill="#E5E7EB"/>
  <path d="M9.55973 14.1842C11.1778 14.1842 12.4896 15.5779 12.4896 17.2972C12.4896 19.0164 11.1778 20.4102 9.55973 20.4102C7.94162 20.4102 6.62988 19.0164 6.62988 17.2972C6.62988 15.5779 7.94162 14.1842 9.55973 14.1842Z" fill="url(#paint4_linear_4194_72108)"/>
  <path d="M186.816 94.0226C188.838 94.0226 190.478 92.383 190.478 90.3603C190.478 88.3377 188.838 86.698 186.816 86.698C184.793 86.698 183.153 88.3377 183.153 90.3603C183.153 92.383 184.793 94.0226 186.816 94.0226Z" fill="#E5E7EB"/>
  <path d="M191.258 26.705C191.088 27.3429 191.466 27.9986 192.104 28.1695C192.742 28.3404 193.398 27.9618 193.568 27.324C193.739 26.6861 193.361 26.0304 192.723 25.8595C192.085 25.6885 191.429 26.0671 191.258 26.705Z" fill="#E5E7EB"/>
  <path d="M198.169 49.7087C199.18 49.7087 200 48.8889 200 47.8775C200 46.8662 199.18 46.0464 198.169 46.0464C197.158 46.0464 196.338 46.8662 196.338 47.8775C196.338 48.8889 197.158 49.7087 198.169 49.7087Z" fill="#E5E7EB"/>
  <path d="M176.407 20.4102H176.351C176.02 24.9316 172.533 25.0012 172.533 25.0012C172.533 25.0012 176.378 25.0737 176.378 30.2984C176.378 25.0737 180.224 25.0012 180.224 25.0012C180.224 25.0012 176.738 24.9316 176.407 20.4102Z" fill="#E5E7EB"/>
  <defs>
    <linearGradient id="paint0_linear_4194_72108" x1="53.9066" y1="28.5669" x2="53.9066" y2="57.7376" gradientUnits="userSpaceOnUse">
      <stop stop-color="#8851C8"/>
      <stop offset="1" stop-color="#81E2B4"/>
    </linearGradient>
    <linearGradient id="paint1_linear_4194_72108" x1="102.506" y1="28.5669" x2="102.506" y2="57.7376" gradientUnits="userSpaceOnUse">
      <stop stop-color="#8851C8"/>
      <stop offset="1" stop-color="#81E2B4"/>
    </linearGradient>
    <linearGradient id="paint2_linear_4194_72108" x1="151.105" y1="28.5669" x2="151.105" y2="57.7376" gradientUnits="userSpaceOnUse">
      <stop stop-color="#8851C8"/>
      <stop offset="1" stop-color="#81E2B4"/>
    </linearGradient>
    <linearGradient id="paint3_linear_4194_72108" x1="-3.62898" y1="61.8582" x2="19.0671" y2="29.9803" gradientUnits="userSpaceOnUse">
      <stop stop-color="white"/>
      <stop offset="1" stop-color="#EEEEEE"/>
    </linearGradient>
    <linearGradient id="paint4_linear_4194_72108" x1="12.6145" y1="7.58071" x2="12.4105" y2="24.0695" gradientUnits="userSpaceOnUse">
      <stop stop-color="white"/>
      <stop offset="1" stop-color="#EEEEEE"/>
    </linearGradient>
  </defs>
</svg>