<svg width="180" height="32" viewBox="0 0 180 32" fill="none" xmlns="http://www.w3.org/2000/svg">
<rect width="180" height="32" fill="#F5F5F5"/>
<g clip-path="url(#clip0_8_679)">
<rect width="1440" height="900" transform="translate(-335 -610)" fill="#F8FAFC"/>
<rect x="-38.5" y="-27.5" width="257" height="87" rx="7.5" fill="white"/>
<rect x="-38.5" y="-27.5" width="257" height="87" rx="7.5" stroke="#E2E8F0"/>
<g clip-path="url(#clip1_8_679)">
<path d="M15.5522 31.1046V25.2538C21.7612 25.2538 26.5373 19.1046 24.1791 12.5971C23.2836 10.1792 21.3731 8.23888 18.9552 7.37321C12.4478 5.015 6.2985 9.79112 6.2985 16.0001H0.447754C0.447754 6.11948 9.99999 -1.58202 20.3582 1.64186C24.8955 3.04485 28.4776 6.65679 29.8806 11.1643C33.1045 21.5523 25.4328 31.1046 15.5522 31.1046Z" fill="#0080FF"/>
<path fill-rule="evenodd" clip-rule="evenodd" d="M15.5523 25.254H9.73145V19.4331H15.5523V25.254Z" fill="#0080FF"/>
<path fill-rule="evenodd" clip-rule="evenodd" d="M9.73127 29.7315H5.25366V25.2539H9.73127V29.7315Z" fill="#0080FF"/>
<path fill-rule="evenodd" clip-rule="evenodd" d="M5.25363 25.2538H1.49243V21.5225H5.25363V25.2538Z" fill="#0080FF"/>
<path d="M54.1791 9.6417C52.4478 8.44767 50.2985 7.8208 47.7911 7.8208H42.3284V25.1641H47.7911C50.2985 25.1641 52.4478 24.5372 54.1791 23.2536C55.1343 22.5969 55.8806 21.6417 56.3881 20.4775C56.8955 19.3133 57.1642 17.9402 57.1642 16.388C57.1642 14.8656 56.8955 13.4924 56.3881 12.3283C55.8806 11.1939 55.1343 10.2686 54.1791 9.6417ZM45.5224 10.776H47.2537C49.1642 10.776 50.7463 11.1641 51.9403 11.8805C53.2537 12.6865 53.9403 14.2089 53.9403 16.388C53.9403 18.6566 53.2537 20.2387 51.9403 21.1044C50.806 21.8507 49.2239 22.2387 47.2836 22.2387H45.5523V10.776H45.5224Z" fill="#0080FF"/>
<path d="M60.9852 7.61182C60.4478 7.61182 60.0001 7.79092 59.6419 8.14913C59.2837 8.50734 59.0747 8.9551 59.0747 9.46256C59.0747 9.99988 59.2538 10.4476 59.6419 10.8058C60.0001 11.1641 60.4478 11.373 60.9852 11.373C61.5225 11.373 61.9702 11.1939 62.3284 10.8058C62.6867 10.4476 62.8956 9.97003 62.8956 9.46256C62.8956 8.92525 62.7165 8.47749 62.3284 8.14913C61.9702 7.79092 61.4926 7.61182 60.9852 7.61182Z" fill="#0080FF"/>
<path d="M62.4777 12.9551H59.4031V25.1939H62.4777V12.9551Z" fill="#0080FF"/>
<path d="M73.6717 13.9702C72.7463 13.1344 71.7016 12.6567 70.5971 12.6567C68.8956 12.6567 67.4926 13.2538 66.3881 14.3881C65.2837 15.5224 64.7463 17.0149 64.7463 18.7761C64.7463 20.5075 65.2837 21.9702 66.3881 23.1642C67.4926 24.2985 68.8956 24.8955 70.5971 24.8955C71.7911 24.8955 72.806 24.5672 73.6419 23.9105V24.209C73.6419 25.2239 73.3732 26 72.8359 26.5672C72.2986 27.1045 71.5523 27.3732 70.6269 27.3732C69.1941 27.3732 68.3284 26.806 67.224 25.3433L65.1344 27.3433L65.1941 27.4329C65.6419 28.0597 66.3284 28.6866 67.2538 29.2836C68.1792 29.8806 69.3135 30.1791 70.6866 30.1791C72.5075 30.1791 74.0001 29.612 75.0747 28.5075C76.1792 27.403 76.7165 25.9105 76.7165 24.0597V12.9552H73.7016V13.9702H73.6717ZM72.8657 21.1941C72.3284 21.7911 71.6419 22.0896 70.7463 22.0896C69.8508 22.0896 69.1642 21.7911 68.6568 21.1941C68.1195 20.597 67.8508 19.7911 67.8508 18.806C67.8508 17.8209 68.1195 16.9851 68.6568 16.3881C69.1941 15.7911 69.8807 15.4627 70.7463 15.4627C71.6419 15.4627 72.3284 15.7612 72.8657 16.3881C73.4031 16.9851 73.6717 17.8209 73.6717 18.806C73.6717 19.7911 73.3732 20.597 72.8657 21.1941Z" fill="#0080FF"/>
<path d="M82.3881 12.9551H79.3135V25.1939H82.3881V12.9551Z" fill="#0080FF"/>
<path d="M80.8956 7.61182C80.3582 7.61182 79.9105 7.79092 79.5523 8.14913C79.1941 8.50734 78.9851 8.9551 78.9851 9.46256C78.9851 9.99988 79.1642 10.4476 79.5523 10.8058C79.9105 11.1641 80.3582 11.373 80.8956 11.373C81.4329 11.373 81.8806 11.1939 82.2388 10.8058C82.597 10.4476 82.806 9.97003 82.806 9.46256C82.806 8.92525 82.6269 8.47749 82.2388 8.14913C81.8806 7.79092 81.403 7.61182 80.8956 7.61182Z" fill="#0080FF"/>
<path d="M89.1343 9.67188H86.1193V12.9853H84.3582V15.7913H86.1193V20.8659C86.1193 22.448 86.4477 23.5823 87.0746 24.239C87.7014 24.8958 88.8059 25.2241 90.388 25.2241C90.8955 25.2241 91.4029 25.1943 91.8805 25.1644H92.0298V22.3584L90.985 22.4181C90.2387 22.4181 89.7611 22.2987 89.5223 22.0301C89.2835 21.7614 89.1641 21.2241 89.1641 20.4181V15.7614H92.0298V12.9555H89.1641V9.67188H89.1343Z" fill="#0080FF"/>
<path d="M109.493 7.8208H106.418V25.1641H109.493V7.8208Z" fill="#0080FF"/>
<path d="M140.567 20.806C140.03 21.4329 139.463 21.9702 139.015 22.2388C138.597 22.5075 138.06 22.6567 137.433 22.6567C136.537 22.6567 135.791 22.3284 135.194 21.6418C134.597 20.9552 134.298 20.0896 134.298 19.0448C134.298 18 134.597 17.1343 135.164 16.4776C135.761 15.7911 136.478 15.4627 137.373 15.4627C138.358 15.4627 139.403 16.0896 140.298 17.1343L142.328 15.1941C141.015 13.4627 139.313 12.6567 137.284 12.6567C135.582 12.6567 134.119 13.2836 132.925 14.4776C131.731 15.6717 131.134 17.2239 131.134 19.0448C131.134 20.8657 131.731 22.3881 132.925 23.612C134.119 24.8358 135.582 25.4329 137.284 25.4329C139.522 25.4329 141.313 24.4776 142.507 22.7164L140.567 20.806Z" fill="#0080FF"/>
<path d="M153.194 14.6567C152.746 14.0597 152.149 13.5523 151.433 13.1941C150.687 12.8358 149.851 12.6567 148.896 12.6567C147.164 12.6567 145.761 13.2836 144.717 14.5373C143.702 15.7911 143.164 17.3135 143.164 19.1344C143.164 20.9851 143.731 22.5075 144.866 23.7015C145.97 24.8657 147.493 25.4627 149.314 25.4627C151.373 25.4627 153.105 24.6269 154.358 22.9552L154.418 22.8657L152.418 20.9254C152.239 21.1642 151.97 21.403 151.731 21.6418C151.433 21.9403 151.134 22.1493 150.836 22.2985C150.388 22.5373 149.851 22.6269 149.284 22.6269C148.418 22.6269 147.731 22.3881 147.194 21.8806C146.687 21.4329 146.388 20.806 146.328 20.0299H154.478L154.508 18.8955C154.508 18.0896 154.388 17.3433 154.179 16.6269C153.97 15.9403 153.642 15.2836 153.194 14.6567ZM146.478 17.5523C146.627 16.9552 146.896 16.4776 147.284 16.0896C147.702 15.6717 148.239 15.4627 148.896 15.4627C149.642 15.4627 150.209 15.6717 150.597 16.0896C150.955 16.4776 151.164 16.9552 151.224 17.5224H146.478V17.5523Z" fill="#0080FF"/>
<path d="M165.015 13.8806C164.09 13.0746 162.806 12.6865 161.194 12.6865C160.179 12.6865 159.224 12.9253 158.358 13.3432C157.552 13.7611 156.776 14.4179 156.269 15.3134L156.299 15.3432L158.269 17.2238C159.075 15.9403 159.97 15.4925 161.164 15.4925C161.821 15.4925 162.328 15.6716 162.746 16C163.164 16.3283 163.343 16.7761 163.343 17.3134V17.9104C162.567 17.6716 161.821 17.5522 161.075 17.5522C159.552 17.5522 158.299 17.9104 157.373 18.6268C156.448 19.3432 155.97 20.388 155.97 21.6716C155.97 22.8059 156.358 23.7612 157.164 24.4477C157.97 25.1044 158.955 25.4626 160.119 25.4626C161.284 25.4626 162.388 24.985 163.373 24.1791V25.194H166.388V17.3134C166.448 15.8507 165.97 14.6865 165.015 13.8806ZM159.552 20.5074C159.911 20.2686 160.388 20.1492 161.015 20.1492C161.761 20.1492 162.537 20.2985 163.343 20.597V21.791C162.687 22.4179 161.791 22.7164 160.687 22.7164C160.149 22.7164 159.731 22.597 159.463 22.3582C159.194 22.1194 159.045 21.8507 159.045 21.4626C159.045 21.0746 159.224 20.7462 159.552 20.5074Z" fill="#0080FF"/>
<path d="M178.269 14.1194C177.403 13.1641 176.209 12.6865 174.687 12.6865C173.463 12.6865 172.478 13.0447 171.731 13.7313V12.985H168.717V25.2238H171.791V18.4477C171.791 17.5223 172 16.7761 172.448 16.2686C172.896 15.7313 173.463 15.4925 174.269 15.4925C174.955 15.4925 175.493 15.7313 175.881 16.1791C176.269 16.6567 176.478 17.2835 176.478 18.0895V25.1641H179.552V18.0895C179.552 16.4179 179.134 15.0746 178.269 14.1194Z" fill="#0080FF"/>
<path d="M102.567 13.8806C101.642 13.0746 100.358 12.6865 98.7463 12.6865C97.7314 12.6865 96.7762 12.9253 95.9105 13.3432C95.1046 13.7611 94.3284 14.4179 93.821 15.3134L93.8508 15.3432L95.821 17.2238C96.6269 15.9403 97.5225 15.4925 98.7165 15.4925C99.3732 15.4925 99.8807 15.6716 100.299 16C100.716 16.3283 100.896 16.7761 100.896 17.3134V17.9104C100.119 17.6716 99.3732 17.5522 98.6269 17.5522C97.1046 17.5522 95.8508 17.9104 94.9254 18.6268C94.0001 19.3432 93.5225 20.388 93.5225 21.6716C93.5225 22.8059 93.9105 23.7612 94.7165 24.4477C95.5225 25.1044 96.5075 25.4626 97.6717 25.4626C98.8359 25.4626 99.9404 24.985 100.925 24.1791V25.194H103.94V17.3134C103.97 15.8507 103.493 14.6865 102.567 13.8806ZM97.1046 20.5074C97.4628 20.2686 97.9404 20.1492 98.5672 20.1492C99.3135 20.1492 100.09 20.2985 100.896 20.597V21.791C100.239 22.4179 99.3434 22.7164 98.2389 22.7164C97.7016 22.7164 97.2837 22.597 97.015 22.3582C96.7463 22.1194 96.5971 21.8507 96.5971 21.4626C96.5971 21.0746 96.7463 20.7462 97.1046 20.5074Z" fill="#0080FF"/>
<path d="M120.657 25.4329C115.731 25.4329 111.701 21.4329 111.701 16.4777C111.701 11.5225 115.701 7.52246 120.657 7.52246C125.582 7.52246 129.612 11.5225 129.612 16.4777C129.612 21.4329 125.582 25.4329 120.657 25.4329ZM120.657 10.7165C117.463 10.7165 114.866 13.3135 114.866 16.5075C114.866 19.7016 117.463 22.2986 120.657 22.2986C123.851 22.2986 126.448 19.7016 126.448 16.5075C126.448 13.3135 123.851 10.7165 120.657 10.7165Z" fill="#0080FF"/>
</g>
</g>
<defs>
<clipPath id="clip0_8_679">
<rect width="1440" height="900" fill="white" transform="translate(-335 -610)"/>
</clipPath>
<clipPath id="clip1_8_679">
<rect width="180" height="30.7463" fill="white" transform="translate(0 0.626953)"/>
</clipPath>
</defs>
</svg>
