<svg width="24" height="20" viewBox="0 0 24 20" fill="none" xmlns="http://www.w3.org/2000/svg">
<path d="M23.6005 7.78774L23.5668 7.71487L20.3002 0.510541C20.2337 0.369339 20.116 0.249558 19.964 0.168383C19.8119 0.0885864 19.6345 0.0501539 19.4557 0.0582745C19.2769 0.066395 19.1054 0.120677 18.9643 0.213793C18.8248 0.309581 18.7235 0.439378 18.6744 0.58552L16.4688 6.28816H7.53749L5.33186 0.58552C5.28402 0.438582 5.18257 0.308135 5.04194 0.212736C4.90083 0.119621 4.7293 0.0653387 4.55053 0.0572182C4.37175 0.0490977 4.19433 0.0875302 4.04222 0.167326C3.89054 0.24883 3.77297 0.368506 3.70606 0.509484L0.433225 7.71065L0.400734 7.78351C-0.069507 8.82182 -0.127551 9.96118 0.235354 11.0298C0.598259 12.0984 1.36244 13.0384 2.41267 13.7079L2.42392 13.7153L2.45391 13.7333L7.43002 16.8824L9.89184 18.4569L11.3914 19.4137C11.5668 19.5263 11.781 19.5872 12.0012 19.5872C12.2215 19.5872 12.4357 19.5263 12.6111 19.4137L14.1107 18.4569L16.5725 16.8824L21.5786 13.7143L21.5911 13.7058C22.639 13.0361 23.4014 12.0971 23.7637 11.03C24.1261 9.96279 24.0688 8.82506 23.6005 7.78774Z" fill="#E24329"/>
<path d="M23.6005 7.78771L23.5668 7.71484C21.9751 7.99094 20.4752 8.56069 19.1743 9.38339L12 13.9677C14.4431 15.5296 16.57 16.8866 16.57 16.8866L21.5761 13.7185L21.5886 13.71C22.638 13.0404 23.4015 12.1008 23.7644 11.0327C24.1272 9.96458 24.0697 8.82579 23.6005 7.78771Z" fill="#FC6D26"/>
<path d="M7.43018 16.8867L9.89199 18.4612L11.3916 19.418C11.567 19.5306 11.7812 19.5915 12.0014 19.5915C12.2216 19.5915 12.4358 19.5306 12.6112 19.418L14.1108 18.4612L16.5726 16.8867C16.5726 16.8867 14.4432 15.5254 12.0002 13.9678C9.55708 15.5254 7.43018 16.8867 7.43018 16.8867Z" fill="#FCA326"/>
<path d="M4.8245 9.38322C3.5246 8.55882 2.02503 7.98759 0.433225 7.71045L0.400734 7.78332C-0.0695071 8.82162 -0.127551 9.96098 0.235354 11.0296C0.598259 12.0982 1.36244 13.0382 2.41267 13.7077L2.42392 13.7151L2.45391 13.7331L7.43002 16.8822C7.43002 16.8822 9.55443 15.5252 12 13.9633L4.8245 9.38322Z" fill="#FC6D26"/>
</svg>
