<svg width="50" height="52" viewBox="0 0 50 52" fill="none" xmlns="http://www.w3.org/2000/svg">
<g id="icon-googlecloud 1">
<g id="Page-1">
<g id="Layout_Getting-started-Copy-2">
<g id="Cloud-Logo">
<g id="Supercloud-Logo">
<path id="Fill-1" fill-rule="evenodd" clip-rule="evenodd" d="M31.8648 21.1366L33.4515 21.1664L37.7637 16.8933L37.9727 15.0839C34.5464 12.0643 30.0389 10.2246 25.1035 10.2246C16.1678 10.2246 8.62896 16.248 6.3938 24.4116C6.86545 24.0879 7.8695 24.3286 7.8695 24.3286L16.4868 22.9259C16.4868 22.9259 16.9327 22.1999 17.1527 22.2449C19.1241 20.1069 21.9584 18.7633 25.1035 18.7633C27.6625 18.7633 30.0148 19.6537 31.8648 21.1366Z" fill="#EA4335"/>
<path id="Fill-3" fill-rule="evenodd" clip-rule="evenodd" d="M43.8167 24.4218C42.8165 20.7608 40.7504 17.5314 37.9687 15.0801L31.8607 21.1328C34.3065 23.0912 35.8741 26.0848 35.8741 29.4362V30.5038C38.8441 30.5038 41.2599 32.8977 41.2599 35.8402C41.2599 38.7828 38.8441 41.1767 35.873 41.1767H25.1038L24.0259 42.2497V48.6538L25.1038 49.7154H35.8741C43.5951 49.7154 49.8766 43.4908 49.8766 35.8402C49.8766 31.1105 47.474 26.9279 43.8167 24.4218Z" fill="#4285F4"/>
<path id="Fill-5" fill-rule="evenodd" clip-rule="evenodd" d="M14.3324 49.7153H25.0945V41.1766H14.3335C13.5423 41.1766 12.7927 41.0025 12.1153 40.6973L10.563 41.1674L6.24864 45.4422L5.87109 46.885C8.22334 48.6591 11.155 49.7148 14.3324 49.7153Z" fill="#34A853"/>
<path id="Fill-7" fill-rule="evenodd" clip-rule="evenodd" d="M14.0019 22.0742C6.28088 22.0742 0 28.2988 0 35.9494C0 40.4546 2.1788 44.4632 5.54604 46.9997L11.7913 40.8103C9.92224 39.9726 8.61671 38.1112 8.61671 35.9494C8.61671 33.0068 11.0324 30.613 14.0019 30.613C16.1834 30.613 18.0613 31.9067 18.9072 33.7589L25.1525 27.5701C22.5934 24.2333 18.5477 22.0742 14.0019 22.0742Z" fill="#FBBC05"/>
</g>
</g>
</g>
</g>
</g>
</svg>
