<svg width="180" height="32" viewBox="0 0 180 32" fill="none" xmlns="http://www.w3.org/2000/svg">
<rect width="180" height="32" fill="#F5F5F5"/>
<g clip-path="url(#clip0_8_679)">
<rect width="1440" height="900" transform="translate(-617 -610)" fill="#F8FAFC"/>
<rect x="-38.5" y="-27.5" width="257" height="87" rx="7.5" fill="white"/>
<rect x="-38.5" y="-27.5" width="257" height="87" rx="7.5" stroke="#E2E8F0"/>
<g clip-path="url(#clip1_8_679)">
<path d="M22.1955 9.74658H23.2066L26.0883 6.8649L26.2298 5.64146C24.579 4.1844 22.584 3.17223 20.4333 2.70056C18.2825 2.2289 16.047 2.31331 13.938 2.94582C11.8289 3.57834 9.91591 4.73807 8.37969 6.31548C6.84346 7.89288 5.73472 9.83587 5.1582 11.9609C5.47923 11.8293 5.83486 11.808 6.16932 11.9003L11.9327 10.9498C11.9327 10.9498 12.2259 10.4645 12.3776 10.4948C13.6125 9.13856 15.3191 8.30564 17.148 8.16654C18.9769 8.02744 20.7899 8.59269 22.2157 9.74658H22.1955Z" fill="#EA4335"/>
<path d="M30.1935 11.9612C29.5311 9.52203 28.1712 7.32924 26.2805 5.65186L22.236 9.69631C23.0789 10.385 23.7544 11.2562 24.2116 12.2441C24.6687 13.2319 24.8956 14.3107 24.875 15.399V16.1169C25.3477 16.1169 25.8158 16.21 26.2525 16.3909C26.6892 16.5718 27.0861 16.8369 27.4203 17.1712C27.7546 17.5054 28.0197 17.9022 28.2006 18.339C28.3815 18.7757 28.4746 19.2437 28.4746 19.7165C28.4746 20.1892 28.3815 20.6572 28.2006 21.0939C28.0197 21.5307 27.7546 21.9275 27.4203 22.2617C27.0861 22.596 26.6892 22.8611 26.2525 23.042C25.8158 23.2229 25.3477 23.316 24.875 23.316H17.6759L16.958 24.044V28.3615L17.6759 29.0794H24.875C26.8854 29.095 28.8473 28.4632 30.4707 27.2773C32.0941 26.0915 33.2927 24.4146 33.8892 22.4947C34.4857 20.5749 34.4484 18.514 33.7828 16.617C33.1172 14.7199 31.8587 13.0875 30.1935 11.9612Z" fill="#4285F4"/>
<path d="M10.4666 29.0386H17.6657V23.2752H10.4666C9.95367 23.2751 9.44678 23.1648 8.98024 22.9517L7.96913 23.2651L5.06723 26.1468L4.81445 27.1579C6.44177 28.3867 8.42745 29.0474 10.4666 29.0386Z" fill="#34A853"/>
<path d="M10.4667 10.3433C8.51603 10.355 6.61776 10.9756 5.03696 12.1184C3.45617 13.2613 2.2718 14.8694 1.64927 16.718C1.02674 18.5667 0.997149 20.5636 1.56462 22.4299C2.13209 24.2962 3.26829 25.9386 4.81453 27.1278L8.99043 22.9519C8.45976 22.7122 7.99518 22.3472 7.63655 21.8885C7.27792 21.4297 7.03594 20.8907 6.93139 20.3179C6.82684 19.745 6.86282 19.1554 7.03627 18.5995C7.20971 18.0436 7.51542 17.5381 7.92718 17.1263C8.33894 16.7146 8.84445 16.4088 9.40034 16.2354C9.95623 16.062 10.5459 16.026 11.1187 16.1305C11.6916 16.2351 12.2305 16.4771 12.6893 16.8357C13.1481 17.1943 13.513 17.6589 13.7528 18.1896L17.9287 14.0137C17.0522 12.8678 15.9225 11.9403 14.628 11.3035C13.3335 10.6668 11.9093 10.3382 10.4667 10.3433Z" fill="#FBBC05"/>
<path d="M53.4792 25.0144C52.2397 25.0302 51.0098 24.7956 49.8631 24.3248C48.7165 23.8539 47.6766 23.1565 46.8059 22.2742C45.9077 21.4294 45.195 20.4072 44.7128 19.2723C44.2307 18.1374 43.9897 16.9147 44.0051 15.6818C43.9903 14.4489 44.2316 13.2264 44.7137 12.0916C45.1958 10.9569 45.9082 9.93452 46.8059 9.08932C47.6723 8.19792 48.7103 7.49113 49.8572 7.01153C51.004 6.53192 52.2361 6.28943 53.4792 6.29865C54.6637 6.28286 55.8395 6.50267 56.9382 6.9453C58.037 7.38793 59.0368 8.04455 59.8796 8.87699L58.0798 10.7071C56.8473 9.51596 55.1931 8.86156 53.4792 8.8871C52.5902 8.87618 51.7086 9.05032 50.8905 9.39846C50.0723 9.7466 49.3356 10.2611 48.727 10.9093C48.0945 11.5368 47.5956 12.2858 47.2602 13.1112C46.9248 13.9366 46.76 14.8213 46.7755 15.7121C46.7681 16.5927 46.937 17.466 47.2721 18.2804C47.6072 19.0948 48.1019 19.8339 48.727 20.4542C49.9791 21.7021 51.6688 22.4119 53.4364 22.4327C55.204 22.4534 56.9099 21.7835 58.191 20.5655C58.9841 19.6969 59.4707 18.5923 59.5762 17.4209H53.5096V14.8324H62.0939C62.1783 15.3538 62.2121 15.882 62.195 16.4098C62.2484 17.5022 62.0797 18.5941 61.6991 19.6195C61.3185 20.6448 60.7339 21.5823 59.9807 22.3754C59.1432 23.2473 58.1314 23.933 57.0112 24.3877C55.891 24.8424 54.6875 25.0559 53.4792 25.0144ZM73.4386 23.2955C72.2866 24.3998 70.7524 25.0163 69.1565 25.0163C67.5607 25.0163 66.0265 24.3998 64.8745 23.2955C64.3011 22.7395 63.8495 22.0704 63.5484 21.3306C63.2472 20.5909 63.1032 19.7966 63.1253 18.9982C63.1038 18.1999 63.2481 17.4058 63.5492 16.6662C63.8503 15.9265 64.3016 15.2574 64.8745 14.701C66.0277 13.599 67.5614 12.984 69.1565 12.984C70.7517 12.984 72.2854 13.599 73.4386 14.701C74.0115 15.2574 74.4628 15.9265 74.7639 16.6662C75.065 17.4058 75.2093 18.1999 75.1878 18.9982C75.2087 19.7974 75.063 20.5921 74.7601 21.3319C74.4572 22.0717 74.0037 22.7404 73.4285 23.2955H73.4386ZM66.7653 21.6069C67.0717 21.9342 67.442 22.195 67.8534 22.3734C68.2647 22.5517 68.7082 22.6437 69.1565 22.6437C69.6049 22.6437 70.0484 22.5517 70.4597 22.3734C70.8711 22.195 71.2414 21.9342 71.5478 21.6069C71.882 21.2616 72.1436 20.8529 72.3172 20.4048C72.4909 19.9568 72.5731 19.4785 72.559 18.9982C72.5739 18.5163 72.4921 18.0363 72.3184 17.5865C72.1447 17.1367 71.8827 16.7263 71.5478 16.3795C71.2373 16.0556 70.8645 15.7978 70.4518 15.6217C70.0392 15.4457 69.5951 15.3549 69.1464 15.3549C68.6978 15.3549 68.2537 15.4457 67.841 15.6217C67.4283 15.7978 67.0555 16.0556 66.745 16.3795C66.4102 16.7263 66.1481 17.1367 65.9745 17.5865C65.8008 18.0363 65.719 18.5163 65.7339 18.9982C65.7212 19.4792 65.8049 19.9579 65.9803 20.406C66.1558 20.8541 66.4192 21.2624 66.7552 21.6069H66.7653ZM86.6033 23.2955C85.4513 24.3998 83.9171 25.0163 82.3213 25.0163C80.7254 25.0163 79.1912 24.3998 78.0392 23.2955C77.4658 22.7395 77.0142 22.0704 76.7131 21.3306C76.4119 20.5909 76.2679 19.7966 76.29 18.9982C76.2685 18.1999 76.4128 17.4058 76.7139 16.6662C77.015 15.9265 77.4663 15.2574 78.0392 14.701C79.1912 13.5967 80.7254 12.9801 82.3213 12.9801C83.9171 12.9801 85.4513 13.5967 86.6033 14.701C87.1762 15.2574 87.6275 15.9265 87.9286 16.6662C88.2297 17.4058 88.374 18.1999 88.3525 18.9982C88.3746 19.7966 88.2306 20.5909 87.9294 21.3306C87.6283 22.0704 87.1767 22.7395 86.6033 23.2955ZM79.93 21.6069C80.2364 21.9342 80.6067 22.195 81.0181 22.3734C81.4294 22.5517 81.8729 22.6437 82.3213 22.6437C82.7696 22.6437 83.2131 22.5517 83.6244 22.3734C84.0358 22.195 84.4061 21.9342 84.7125 21.6069C85.0467 21.2616 85.3083 20.8529 85.4819 20.4048C85.6556 19.9568 85.7378 19.4785 85.7236 18.9982C85.7386 18.5163 85.6568 18.0363 85.4831 17.5865C85.3094 17.1367 85.0474 16.7263 84.7125 16.3795C84.402 16.0556 84.0292 15.7978 83.6166 15.6217C83.2039 15.4457 82.7598 15.3549 82.3111 15.3549C81.8625 15.3549 81.4184 15.4457 81.0057 15.6217C80.593 15.7978 80.2202 16.0556 79.9097 16.3795C79.5749 16.7263 79.3128 17.1367 79.1392 17.5865C78.9655 18.0363 78.8837 18.5163 78.8986 18.9982C78.8859 19.4792 78.9696 19.9579 79.145 20.406C79.3204 20.8541 79.5839 21.2624 79.9199 21.6069H79.93ZM95.2585 30.4137C94.0465 30.4523 92.8581 30.0739 91.8914 29.3419C91.0332 28.6967 90.3572 27.8396 89.9299 26.8546L92.2352 25.894C92.4861 26.4827 92.8786 27.0002 93.3778 27.4006C93.9121 27.8313 94.5826 28.0572 95.2686 28.0376C95.7036 28.0641 96.1392 27.9965 96.5457 27.8394C96.9523 27.6824 97.3202 27.4396 97.6245 27.1276C98.2336 26.3928 98.5344 25.4505 98.4637 24.4987V23.6291H98.3727C97.9874 24.0868 97.5008 24.4484 96.9515 24.6853C96.4021 24.9222 95.8052 25.028 95.2079 24.9941C94.4487 24.9964 93.6974 24.8413 93.0012 24.5385C92.3051 24.2356 91.6793 23.7917 91.1634 23.2348C90.6037 22.6823 90.1618 22.022 89.8646 21.2938C89.5674 20.5656 89.4211 19.7846 89.4344 18.9982C89.4205 18.2072 89.5664 17.4216 89.8635 16.6884C90.1606 15.9551 90.6028 15.2895 91.1634 14.7313C91.678 14.1721 92.3033 13.726 92.9996 13.4214C93.6959 13.1167 94.4479 12.9603 95.2079 12.9619C95.8511 12.9608 96.4865 13.1023 97.0683 13.3764C97.5717 13.5963 98.0205 13.9242 98.3828 14.337H98.4738V13.3764H100.981V24.1448C101.047 24.9966 100.939 25.853 100.662 26.6614C100.386 27.4699 99.9474 28.2134 99.3737 28.8465C98.8272 29.3693 98.1815 29.7774 97.4747 30.0465C96.7679 30.3157 96.0143 30.4406 95.2585 30.4137ZM95.4405 22.6484C95.8722 22.6578 96.3008 22.5722 96.6957 22.3974C97.0906 22.2227 97.4422 21.9631 97.7256 21.6372C98.3494 20.9223 98.6783 19.9971 98.6457 19.0488C98.6831 18.0845 98.3544 17.1418 97.7256 16.4098C97.4427 16.0833 97.0911 15.8234 96.6961 15.6486C96.3011 15.4738 95.8723 15.3885 95.4405 15.3987C94.9969 15.3896 94.5565 15.475 94.1485 15.6494C93.7406 15.8237 93.3744 16.0829 93.0744 16.4098C92.4056 17.1154 92.0423 18.0565 92.0633 19.0286C92.053 19.5054 92.1371 19.9795 92.3106 20.4237C92.4841 20.8679 92.7437 21.2734 93.0744 21.617C93.373 21.947 93.7384 22.2097 94.1464 22.3875C94.5543 22.5653 94.9955 22.6543 95.4405 22.6484ZM105.44 6.97609V24.6504H102.801V6.97609H105.44ZM112.68 25.0144C111.89 25.0347 111.104 24.8916 110.371 24.5941C109.639 24.2966 108.975 23.851 108.423 23.2854C107.863 22.7238 107.422 22.0543 107.128 21.3173C106.835 20.5803 106.694 19.7913 106.714 18.9982C106.684 18.2032 106.815 17.4103 107.098 16.6668C107.381 15.9233 107.811 15.2444 108.362 14.6707C108.882 14.1231 109.51 13.6901 110.206 13.3993C110.903 13.1085 111.652 12.9664 112.407 12.9821C113.101 12.9748 113.789 13.109 114.429 13.3764C115.006 13.6092 115.531 13.9527 115.976 14.3876C116.358 14.7562 116.697 15.1666 116.987 15.611C117.222 15.9862 117.422 16.3822 117.584 16.794L117.857 17.4816L109.768 20.8081C110.013 21.3702 110.422 21.845 110.942 22.1699C111.461 22.4948 112.067 22.6545 112.68 22.6281C113.276 22.6298 113.862 22.4769 114.381 22.1845C114.9 21.8921 115.335 21.4702 115.643 20.9598L117.665 22.3248C117.149 23.0631 116.488 23.6892 115.723 24.165C114.814 24.7397 113.756 25.035 112.68 25.0144ZM109.303 18.8162L114.682 16.5817C114.516 16.1877 114.22 15.8628 113.843 15.6616C113.42 15.4231 112.942 15.301 112.458 15.3077C111.635 15.329 110.853 15.6742 110.284 16.2682C109.943 16.5945 109.678 16.9921 109.508 17.4326C109.339 17.873 109.269 18.3455 109.303 18.8162ZM131.679 25.0144C130.556 25.0337 129.442 24.8261 128.402 24.404C127.362 23.9818 126.418 23.3539 125.626 22.5578C124.835 21.7617 124.212 20.8139 123.797 19.7713C123.381 18.7288 123.18 17.6129 123.206 16.4907C123.18 15.3685 123.381 14.2526 123.797 13.21C124.212 12.1674 124.835 11.2196 125.626 10.4236C126.418 9.62747 127.362 8.99951 128.402 8.57737C129.442 8.15523 130.556 7.94761 131.679 7.96698C132.815 7.93147 133.944 8.1531 134.982 8.61533C136.021 9.07756 136.941 9.76843 137.675 10.6363L136.219 12.0519C135.68 11.3743 134.989 10.8335 134.202 10.4733C133.415 10.1131 132.554 9.94381 131.689 9.9791C130.856 9.96034 130.029 10.1101 129.255 10.4194C128.482 10.7287 127.779 11.1911 127.189 11.7789C126.576 12.3957 126.097 13.1326 125.782 13.9435C125.467 14.7543 125.323 15.6216 125.359 16.4907C125.323 17.3598 125.467 18.227 125.782 19.0379C126.097 19.8487 126.576 20.5857 127.189 21.2025C127.779 21.7902 128.482 22.2527 129.255 22.562C130.029 22.8712 130.856 23.021 131.689 23.0022C132.655 23.0131 133.612 22.806 134.487 22.3964C135.362 21.9867 136.134 21.3851 136.744 20.6362L138.2 22.0922C137.438 23.0039 136.481 23.7329 135.4 24.2257C134.234 24.7638 132.962 25.0334 131.679 25.0144ZM142.113 24.6504H140.02V8.32087H142.113V24.6504ZM145.531 14.8223C146.628 13.7332 148.111 13.1219 149.656 13.1219C151.202 13.1219 152.685 13.7332 153.782 14.8223C154.318 15.3886 154.737 16.0553 155.015 16.7841C155.292 17.5129 155.423 18.2895 155.4 19.069C155.423 19.8486 155.292 20.6251 155.015 21.3539C154.737 22.0827 154.318 22.7494 153.782 23.3157C152.685 24.4049 151.202 25.0161 149.656 25.0161C148.111 25.0161 146.628 24.4049 145.531 23.3157C144.995 22.7494 144.576 22.0827 144.298 21.3539C144.02 20.6251 143.89 19.8486 143.913 19.069C143.89 18.2895 144.02 17.5129 144.298 16.7841C144.576 16.0553 144.995 15.3886 145.531 14.8223ZM147.088 22.0012C147.418 22.3498 147.815 22.6274 148.256 22.8171C148.697 23.0068 149.172 23.1047 149.651 23.1047C150.131 23.1047 150.606 23.0068 151.047 22.8171C151.487 22.6274 151.885 22.3498 152.215 22.0012C152.58 21.6087 152.864 21.1473 153.05 20.6439C153.236 20.1404 153.32 19.6051 153.296 19.069C153.32 18.5329 153.236 17.9976 153.05 17.4942C152.864 16.9908 152.58 16.5293 152.215 16.1368C151.885 15.7883 151.487 15.5107 151.047 15.3209C150.606 15.1312 150.131 15.0334 149.651 15.0334C149.172 15.0334 148.697 15.1312 148.256 15.3209C147.815 15.5107 147.418 15.7883 147.088 16.1368C146.722 16.5293 146.438 16.9908 146.253 17.4942C146.067 17.9976 145.983 18.5329 146.006 19.069C145.986 19.6041 146.072 20.138 146.259 20.6396C146.447 21.1412 146.732 21.6006 147.098 21.9911L147.088 22.0012ZM166.997 24.6504H164.975V23.1034H164.914C164.554 23.6909 164.045 24.1724 163.438 24.4987C162.808 24.8637 162.093 25.0555 161.365 25.0548C160.774 25.0952 160.182 25.0017 159.632 24.7811C159.082 24.5605 158.589 24.2185 158.19 23.7808C157.424 22.812 157.039 21.5963 157.108 20.3632V13.4877H159.201V19.979C159.201 22.0619 160.121 23.1034 161.962 23.1034C162.371 23.1161 162.777 23.031 163.146 22.8551C163.515 22.6793 163.837 22.4177 164.085 22.0922C164.627 21.4047 164.917 20.5514 164.904 19.6757V13.4877H166.997V24.6504ZM174.105 25.0144C173.395 25.0167 172.693 24.8652 172.047 24.5702C171.401 24.2752 170.827 23.8438 170.364 23.3056C169.316 22.1478 168.754 20.6303 168.797 19.069C168.754 17.5077 169.316 15.9902 170.364 14.8324C170.827 14.2943 171.401 13.8628 172.047 13.5678C172.693 13.2728 173.395 13.1213 174.105 13.1237C174.901 13.1111 175.686 13.2989 176.39 13.6697C177.009 13.9809 177.532 14.4523 177.907 15.0347H177.998L177.907 13.4877V8.32087H180V24.6504H177.978V23.1034H177.887C177.512 23.6858 176.989 24.1571 176.37 24.4684C175.672 24.8359 174.894 25.0235 174.105 25.0144ZM174.449 23.1034C174.922 23.1102 175.391 23.0164 175.825 22.8282C176.259 22.6399 176.648 22.3615 176.967 22.0114C177.678 21.2018 178.041 20.1446 177.978 19.069C178.041 17.9934 177.678 16.9362 176.967 16.1267C176.646 15.7747 176.256 15.4934 175.821 15.301C175.385 15.1085 174.915 15.0091 174.439 15.0091C173.963 15.0091 173.492 15.1085 173.057 15.301C172.622 15.4934 172.231 15.7747 171.911 16.1267C171.558 16.5249 171.287 16.9888 171.113 17.492C170.94 17.9952 170.867 18.5277 170.9 19.0589C170.867 19.5901 170.94 20.1226 171.113 20.6258C171.287 21.129 171.558 21.593 171.911 21.9911C172.23 22.3475 172.621 22.6313 173.059 22.8231C173.497 23.015 173.971 23.1106 174.449 23.1034Z" fill="#5F6368"/>
</g>
</g>
<defs>
<clipPath id="clip0_8_679">
<rect width="1440" height="900" fill="white" transform="translate(-617 -610)"/>
</clipPath>
<clipPath id="clip1_8_679">
<rect width="180" height="31.536" fill="white" transform="translate(0 0.231934)"/>
</clipPath>
</defs>
</svg>
