<svg width="99" height="97" viewBox="0 0 99 97" fill="none" xmlns="http://www.w3.org/2000/svg">
<g id="layer1">
<g id="g70">
<path id="path3055" d="M49.2003 3.04255L49.2002 3.04255C48.4372 3.08105 47.6897 3.27052 47.0016 3.59974C47.0016 3.59975 47.0016 3.59975 47.0015 3.59976L14.3978 19.2016L14.3977 19.2017C13.6213 19.573 12.9394 20.1132 12.4025 20.7818C11.8657 21.4504 11.4875 22.2303 11.2959 23.0636C11.2959 23.0636 11.2959 23.0637 11.2959 23.0638L3.25237 58.1093L3.25231 58.1096C3.08166 58.8514 3.06257 59.6197 3.19615 60.369C3.32973 61.1183 3.6133 61.8336 4.03023 62.4724L4.03125 62.474C4.13215 62.6299 4.24066 62.7808 4.35639 62.9261C4.35662 62.9264 4.35684 62.9267 4.35706 62.927L26.9228 91.0262C26.9228 91.0262 26.9228 91.0263 26.9228 91.0263C27.4598 91.6947 28.1418 92.2347 28.9182 92.6059C29.6946 92.9771 30.5454 93.1698 31.4074 93.1696L67.5972 93.1612H67.5976C68.4593 93.1619 69.3099 92.9697 70.0863 92.5992C70.8625 92.2288 71.5445 91.6897 72.0818 91.0222L49.2003 3.04255ZM49.2003 3.04255C50.1602 2.99394 51.1168 3.1856 51.9824 3.59975L51.9825 3.5998L84.5904 19.1933C85.3668 19.5646 86.0486 20.1048 86.5856 20.7735C87.1225 21.4421 87.5006 22.2221 87.6922 23.0554L95.7482 58.1011C95.9398 58.9348 95.9398 59.8006 95.7481 60.6343C95.5564 61.4679 95.178 62.2482 94.6407 62.917L94.6405 62.9172L72.0823 91.0217L49.2003 3.04255Z" fill="#A7F3D0" stroke="#A7F3D0"/>
<path id="path3054-2-9" d="M49.1573 0.00863159C48.2831 0.0544933 47.4268 0.273133 46.6387 0.65175L12.2169 17.1181C11.3261 17.5442 10.5434 18.1641 9.92693 18.9319C9.31044 19.6997 8.87601 20.5956 8.65592 21.5531L0.166187 58.549C-0.0304841 59.4018 -0.0528439 60.2851 0.100434 61.1466C0.253712 62.0082 0.579505 62.8303 1.05852 63.5645C1.17505 63.7431 1.30028 63.9159 1.43378 64.0823L25.2559 93.7493C25.8726 94.5168 26.6553 95.1365 27.5462 95.5623C28.437 95.9881 29.4129 96.2092 30.4015 96.209L68.6053 96.2006C69.5935 96.2013 70.5692 95.9809 71.46 95.5558C72.3508 95.1307 73.1338 94.5118 73.7508 93.7451L97.5646 64.074C98.181 63.3064 98.6154 62.4107 98.8356 61.4535C99.0557 60.4963 99.056 59.5022 98.8364 58.5448L90.3342 21.5447C90.1135 20.588 89.6788 19.693 89.0624 18.9259C88.4459 18.1589 87.6635 17.5396 86.7732 17.1139L52.3514 0.647574C51.3574 0.172055 50.2591 -0.0476581 49.1573 0.00863159ZM49.174 2.54769C50.2168 2.49488 51.2563 2.7031 52.1971 3.15323L84.805 18.7467C85.6489 19.1503 86.3903 19.7376 86.9744 20.4649C87.5584 21.1922 87.9699 22.0409 88.1784 22.9479L96.2345 57.9936C96.443 58.901 96.443 59.8434 96.2343 60.7508C96.0257 61.6581 95.6139 62.5071 95.0294 63.2346L72.4707 91.3397C71.8862 92.0661 71.1444 92.6523 70.3006 93.055C69.4567 93.4577 68.5324 93.6665 67.5962 93.6658L31.4064 93.6741C30.4699 93.6743 29.5453 93.4649 28.7015 93.0615C27.8576 92.6581 27.116 92.071 26.5319 91.3439L3.96488 63.243C3.83872 63.0846 3.72044 62.9201 3.61045 62.7502C3.15687 62.0552 2.84825 61.2769 2.70285 60.4613C2.55746 59.6457 2.57824 58.8095 2.76398 58.002L10.8075 22.9563C11.016 22.0493 11.4276 21.2006 12.0116 20.4733C12.5956 19.746 13.3371 19.1587 14.1809 18.7551L46.7847 3.15326C47.5326 2.79543 48.3449 2.58952 49.174 2.54769Z" fill="#A7F3D0"/>
</g>
</g>
</svg>
