<svg width="50" height="88" viewBox="0 0 50 88" fill="none" xmlns="http://www.w3.org/2000/svg">
<path d="M0.47506 51.8683C0.771932 51.9221 0.85283 52.003 0.906823 52.111C0.960816 52.2461 0.960816 52.354 0.933911 52.4891V52.5158C0.879918 52.7318 0.717938 52.8398 0.47506 52.8398C0.285993 52.786 0.151101 52.7047 0.0702029 52.57C-0.0108784 52.462 -0.0108784 52.327 0.0162097 52.1919C0.097108 51.9763 0.259088 51.8683 0.47506 51.8683Z" fill="#0DCEFF"/>
<path d="M0.0429688 46.1732C0.0429688 46.0652 0.0700569 45.9843 0.12405 45.903L9.35487 34.1622C9.43577 34.0542 9.57085 34 9.70574 34C9.81372 34 9.89462 34.0271 9.9757 34.0813C10.2186 34.2701 10.2455 34.459 10.0566 34.7021L0.933765 46.335V50.8426C0.933765 51.0853 0.717792 51.3013 0.474914 51.3013C0.232036 51.3013 0.0429688 51.0853 0.0429688 50.8426V46.1732Z" fill="#0DCEFF"/>
<path d="M0.0429688 42.2593V34.5129C0.0429688 34.2702 0.232036 34.0542 0.474914 34.0542C0.717792 34.0542 0.933765 34.2702 0.933765 34.5129V42.2593C0.933765 42.5024 0.717792 42.7184 0.474914 42.7184C0.232036 42.7184 0.0429688 42.5024 0.0429688 42.2593Z" fill="#0DCEFF"/>
<path d="M3.30876 39.5062C3.30876 39.7493 3.09279 39.9653 2.84991 39.9653C2.60704 39.9653 2.41797 39.7493 2.41797 39.5062V36.9153C2.41797 36.6184 2.55304 36.4833 2.84991 36.4833C3.11988 36.4833 3.30876 36.6451 3.30876 36.9153V39.5062Z" fill="#1A1A1A"/>
<path d="M2.41797 52.4078V47.4145C2.41797 47.2798 2.44506 47.1989 2.49905 47.1447L4.09157 45.1204C4.17247 45.0124 4.30736 44.9586 4.44244 44.9586C4.60424 44.9586 4.71222 45.0124 4.7933 45.1204L10.1913 52.1919C10.3533 52.4349 10.3264 52.6238 10.1104 52.8127C10.0295 52.8669 9.94846 52.894 9.84048 52.894C9.70559 52.894 9.57069 52.8398 9.48961 52.7318L4.44244 46.119L3.30876 47.5496V52.4078C3.30876 52.6509 3.09279 52.8398 2.84991 52.8398C2.55304 52.8398 2.41797 52.7047 2.41797 52.4078Z" fill="#0DCEFF"/>
<path d="M13.4304 34.7021L6.65559 43.285L13.4573 52.1381C13.5383 52.219 13.5653 52.3269 13.5383 52.4349C13.5113 52.57 13.4573 52.678 13.3493 52.7589C13.2953 52.8127 13.2144 52.8398 13.0795 52.8398C12.9444 52.8398 12.8364 52.786 12.7286 52.678L5.73789 43.5548C5.603 43.3659 5.603 43.2041 5.73789 43.0152L12.7555 34.1622C12.8364 34.0542 12.9444 34 13.0795 34C13.2144 34 13.2953 34.0271 13.3764 34.0813C13.6192 34.2701 13.6192 34.4861 13.4304 34.7021Z" fill="#1A1A1A"/>
<path d="M23.0914 34.6479C23.1185 34.7559 23.1185 34.8639 23.0645 34.9719C22.9836 35.0799 22.9025 35.1608 22.7677 35.1879C20.3925 35.7816 18.8 37.617 18.8 40.1C18.8 40.343 18.584 40.559 18.3411 40.559C18.0443 40.559 17.9092 40.3972 17.9092 40.1C17.9092 37.1042 19.8257 35.0799 22.5517 34.324C22.8486 34.324 23.0105 34.324 23.0914 34.6479Z" fill="#0DCEFF"/>
<path d="M18.3958 46.47C18.6387 46.47 18.8547 46.686 18.8547 46.9287C18.8547 49.844 21.4727 51.9492 24.2529 52.0571C24.3878 52.0839 24.4958 52.138 24.5767 52.2189C24.6577 52.2998 24.6846 52.4078 24.6577 52.5429C24.6577 52.8127 24.5227 52.9478 24.2258 52.9478C20.879 52.7318 17.9639 50.3835 17.9639 46.9287C17.9639 46.686 18.1529 46.47 18.3958 46.47Z" fill="#0DCEFF"/>
<path d="M25.7104 36.1594C27.303 36.1594 28.8955 36.5642 29.8403 37.941C30.1639 38.3996 30.3528 38.8045 30.434 39.1555C30.4878 39.5333 30.5149 39.7222 30.5149 39.7493C30.5149 41.2607 29.9479 42.7451 28.5444 43.4472C29.9479 44.3378 30.4878 45.4444 30.4878 47.1176C30.4878 48.4402 29.4892 49.7089 28.3556 50.3027C27.6267 50.6804 26.763 50.8693 25.7104 50.8693H25.6294C22.9573 50.8693 20.4202 49.9249 20.4202 46.9287C20.4202 46.686 20.6362 46.47 20.8791 46.47C21.149 46.47 21.3108 46.6589 21.3108 46.9287C21.3108 49.4658 23.6591 49.9787 25.6834 49.9787H25.7104C27.3839 49.9787 29.0306 49.3311 29.5163 47.6037C29.5701 47.3069 29.5972 47.1447 29.5972 47.1176C29.5972 46.7398 29.543 46.3621 29.4621 45.9843C29.1115 44.8773 28.3556 43.9867 27.1139 43.9058C26.925 43.852 26.709 43.6628 26.709 43.4739C26.709 43.2041 26.871 43.069 27.1139 43.0152C27.249 42.9881 27.3839 42.961 27.5188 42.9072C27.6538 42.8801 27.7887 42.8263 27.9236 42.7451C29.1653 42.2593 29.6243 41.0447 29.6243 39.7764C29.6243 39.2902 29.3812 38.8045 29.0844 38.4267C28.4365 37.509 27.303 37.05 25.7104 37.05C23.7671 37.05 21.257 37.7788 21.257 40.1C21.257 40.3972 21.1219 40.559 20.8251 40.559C20.5822 40.559 20.3662 40.343 20.3662 40.1C20.3662 37.2659 23.3082 36.1594 25.7104 36.1594Z" fill="#1A1A1A"/>
<path d="M24.3332 43.9597C24.8729 44.0947 25.3318 44.2298 25.7366 44.3916C26.4655 44.7694 27.0052 45.1475 27.4911 45.8221C27.68 46.1461 27.8689 46.5239 28.058 46.9829C28.0851 47.0909 28.0851 47.1989 28.058 47.3069C28.0042 47.4416 27.9229 47.5225 27.8149 47.5496C27.5991 47.5496 27.3292 47.5496 27.2212 47.3069C26.5734 45.4715 25.4938 45.1475 23.7934 44.7427C23.5504 44.7156 23.4424 44.5538 23.4424 44.3107V42.7722C23.4424 42.5295 23.5504 42.3673 23.7663 42.3402C24.2252 42.2055 24.6301 42.0975 24.9809 41.9895C26.2226 41.6118 26.7623 40.9097 27.2212 39.7764C27.3023 39.5871 27.4371 39.5062 27.6531 39.5062C27.9229 39.5604 28.0042 39.6413 28.058 39.7493C28.0851 39.8844 28.0851 39.9923 28.058 40.1C27.2483 42.0434 26.2226 42.6104 24.3332 43.0961V43.9597Z" fill="#0DCEFF"/>
<path d="M23.686 34.3782C23.74 34.1622 23.9018 34.0542 24.1449 34.0542C24.4418 34.108 24.5227 34.1893 24.5767 34.2973C24.6306 34.432 24.6306 34.54 24.6037 34.675V34.7021C24.5227 34.9177 24.3607 35.0257 24.1449 35.0257C23.7129 34.9177 23.551 34.7021 23.686 34.3782Z" fill="#0DCEFF"/>
<path d="M36.3965 52.462V36.8882C36.3965 36.6451 36.5854 36.4295 36.8284 36.4295H41.4978C43.9808 36.4295 45.9784 37.9139 47.004 40.127C47.4089 41.1256 47.6249 42.2322 47.6249 43.4472C47.6249 46.4968 46.2481 49.3849 43.1982 50.3297C42.8742 50.3297 42.6853 50.2217 42.6315 50.0329C42.6044 49.8978 42.6044 49.7898 42.6586 49.6818C42.7124 49.5738 42.7933 49.4929 42.9284 49.4658C45.6273 48.737 46.7339 46.011 46.7339 43.4472C46.7339 40.8288 45.7353 38.6965 43.2791 37.6441C42.6853 37.4281 42.0916 37.3201 41.4978 37.3201H37.2871V52.462C37.2871 52.7047 37.0711 52.9207 36.8284 52.9207C36.5854 52.9207 36.3965 52.7047 36.3965 52.462Z" fill="#0DCEFF"/>
<path d="M39.1768 35.0257C38.9337 35.0257 38.7178 34.8368 38.7178 34.5941C38.7178 34.351 38.9337 34.1351 39.1768 34.1351H42.0917C45.1959 34.1351 47.9486 36.2403 49.1364 39.0475C49.7031 40.3972 50 41.9353 50 43.636C50 48.6832 47.3819 52.894 42.0917 52.894H39.2039C38.9608 52.894 38.7449 52.7047 38.7449 52.462V38.9396C38.7449 38.6427 38.9067 38.4805 39.2039 38.4805C39.5008 38.4805 39.6355 38.6427 39.6355 38.9396V52.003H42.0917C47.1122 52.003 49.1094 48.0353 49.1094 43.636C49.1094 40.127 47.6788 36.6184 44.1702 35.4038C43.3605 35.1608 42.6587 35.0257 42.0917 35.0257L39.1768 35.0257Z" fill="#1A1A1A"/>
<path d="M41.1465 50.3568C41.0656 50.2488 41.0656 50.1138 41.1198 49.9787C41.1465 49.8169 41.2278 49.7089 41.3625 49.6818C41.4976 49.6547 41.6056 49.6547 41.7407 49.6547C41.8754 49.7089 41.9563 49.7898 42.0104 49.8978C42.0642 50.0329 42.0642 50.1408 42.0375 50.2756V50.3026C41.9563 50.5186 41.7945 50.6266 41.5785 50.6266C41.3625 50.5724 41.2278 50.4915 41.1465 50.3568Z" fill="#0DCEFF"/>
</svg>
