<svg width="194" height="200" viewBox="0 0 194 200" fill="none" xmlns="http://www.w3.org/2000/svg">
<g id="Group">
<path id="Vector" d="M20.4057 87.5389C20.4057 87.5389 54.531 86.1723 61.9055 30.0776C68.4543 -19.74 125.999 2.93514 142.632 22.7936C164.18 48.5186 152.694 92.7709 180.568 98.3613C208.443 103.952 190.24 166.106 147.928 160.157C95.2935 152.757 108.028 183.514 92.2274 196.532C80.8876 205.875 34.3902 196.881 32.8405 162.964C31.5365 134.424 19.4976 134.515 10.9644 131.279C-1.34246 126.611 -9.09713 92.8092 20.4057 87.5389Z" fill="#F1F5F9"/>
<g id="Group_2">
<g id="Group_3">
<rect id="Rectangle 333" x="35.7852" y="15.4584" width="127.386" height="162.593" rx="11" fill="white" stroke="#E2E8F0" stroke-width="2"/>
<path id="Vector_2" d="M134.792 135.154L101.265 102.025L94.6258 108.743L128.153 141.872L134.792 135.154Z" fill="#94A3B8"/>
<path id="Vector_3" d="M148.599 144.056L122.515 118.281C122.37 118.138 122.136 118.139 121.992 118.284L112.119 128.275C111.976 128.421 111.977 128.655 112.123 128.798L138.207 154.573C138.352 154.716 138.586 154.715 138.73 154.57L148.602 144.579C148.746 144.433 148.744 144.199 148.599 144.056Z" fill="#64748B"/>
<path id="Vector_4" d="M110.313 76.9221C110.313 97.7787 93.4057 114.686 72.5492 114.686C51.6927 114.686 34.7852 97.7787 34.7852 76.9221C34.7852 56.0656 51.6927 39.1581 72.5492 39.1581C93.4057 39.1581 110.313 56.0656 110.313 76.9221Z" stroke="url(#paint0_linear_5001_82984)" stroke-width="8"/>
</g>
<g id="Group_4">
<path id="Vector_5" d="M59.9631 139.829C55.7204 141.231 54.6031 144.389 55.164 146.087C55.5692 147.313 56.7931 147.536 57.6419 147.255C59.3389 146.694 57.8475 144.502 61.0531 143.443C62.6249 142.923 64.1102 143.2 64.5882 144.645C65.1491 146.343 63.7113 147.899 62.965 149.122C62.3134 150.209 61.5451 151.892 62.4386 154.595C62.9787 156.23 63.5744 156.556 64.8631 156.13C66.4029 155.621 66.4886 154.826 66.2912 154.228C65.751 152.594 65.4708 151.641 66.7526 149.718C67.383 148.777 69.3478 145.757 68.3713 142.802C67.3948 139.848 63.9858 138.499 59.9631 139.829Z" fill="#8851C8"/>
<path id="Vector_6" d="M65.6104 158.289C64.9757 158.506 64.4525 158.966 64.1543 159.567C63.8561 160.168 63.807 160.863 64.0176 161.5C64.2281 162.137 64.6815 162.665 65.2792 162.97C65.8769 163.275 66.5708 163.332 67.2103 163.129C67.8488 162.914 68.3762 162.455 68.6774 161.853C68.9785 161.25 69.0289 160.553 68.8175 159.913C68.6061 159.274 68.1501 158.744 67.5491 158.439C66.9482 158.135 66.2512 158.081 65.6104 158.289Z" fill="#8851C8"/>
</g>
<g id="Group_5">
<path id="Vector_7" d="M145.248 36.6876C139.01 34.0809 134.6 36.5815 133.557 39.0771C132.804 40.8798 133.981 42.3487 135.229 42.8702C137.724 43.9127 138.194 39.9291 142.908 41.8986C145.22 42.8638 146.642 44.6532 145.754 46.7792C144.711 49.2751 141.525 49.6266 139.459 50.2835C137.636 50.8791 135.088 52.0404 133.428 56.0151C132.424 58.4184 132.781 59.3819 134.676 60.1736C136.94 61.1196 137.827 60.2959 138.194 59.4177C139.198 57.0143 139.823 55.647 143.195 54.7216C144.849 54.2724 150.09 52.7705 151.905 48.4262C153.72 44.0818 151.163 39.159 145.248 36.6876Z" fill="#8851C8"/>
<path id="Vector_8" d="M133.389 63.3819C132.447 63.0012 131.394 63.0069 130.457 63.398C129.52 63.789 128.775 64.5338 128.383 65.4707C127.992 66.4076 127.985 67.461 128.366 68.4025C128.746 69.3439 129.482 70.0974 130.415 70.4995C131.357 70.8873 132.415 70.8863 133.357 70.4965C134.299 70.1068 135.048 69.36 135.441 68.4195C135.834 67.479 135.839 66.4212 135.454 65.4773C135.069 64.5333 134.327 63.78 133.389 63.3819Z" fill="#8851C8"/>
</g>
</g>
</g>
<defs>
<linearGradient id="paint0_linear_5001_82984" x1="72.5492" y1="35.1581" x2="72.5492" y2="118.686" gradientUnits="userSpaceOnUse">
<stop stop-color="#8851C8"/>
<stop offset="1" stop-color="#81E2B4"/>
</linearGradient>
</defs>
</svg>
