<svg width="99" height="97" viewBox="0 0 99 97" fill="none" xmlns="http://www.w3.org/2000/svg">
  <path d="M49.2003 3.04255L49.2002 3.04255C48.4372 3.08105 47.6897 3.27052 47.0015 3.59974C47.0015 3.59975 47.0015 3.59975 47.0015 3.59976L14.3978 19.2016L14.3977 19.2017C13.6213 19.573 12.9394 20.1132 12.4025 20.7818C11.8656 21.4504 11.4875 22.2303 11.2959 23.0636C11.2959 23.0636 11.2959 23.0637 11.2959 23.0638L3.25234 58.1093L3.25228 58.1096C3.08163 58.8514 3.06254 59.6197 3.19612 60.369C3.3297 61.1183 3.61327 61.8336 4.0302 62.4724L4.03122 62.474C4.13212 62.6299 4.24063 62.7808 4.35636 62.9261C4.35658 62.9264 4.35681 62.9267 4.35703 62.927L26.9227 91.0262C26.9227 91.0262 26.9228 91.0263 26.9228 91.0263C27.4598 91.6947 28.1417 92.2347 28.9181 92.6059C29.6946 92.9771 30.5454 93.1698 31.4073 93.1696L67.5971 93.1612H67.5976C68.4593 93.1619 69.3099 92.9697 70.0863 92.5992C70.8625 92.2288 71.5445 91.6897 72.0818 91.0222L49.2003 3.04255ZM49.2003 3.04255C50.1601 2.99394 51.1168 3.1856 51.9823 3.59975L51.9824 3.5998L84.5903 19.1933C85.3667 19.5646 86.0486 20.1048 86.5855 20.7735C87.1224 21.4421 87.5006 22.2221 87.6921 23.0554L95.7482 58.1011C95.9398 58.9348 95.9397 59.8006 95.7481 60.6343C95.5564 61.4679 95.1779 62.2482 94.6406 62.917L94.6405 62.9172L72.0822 91.0217L49.2003 3.04255Z" fill="#A7F3D0" stroke="#A7F3D0"/>
  <path d="M49.1573 0.00863159C48.2831 0.0544933 47.4268 0.273133 46.6387 0.65175L12.2169 17.1181C11.3261 17.5442 10.5434 18.1641 9.92693 18.9319C9.31044 19.6997 8.87601 20.5956 8.65592 21.5531L0.166187 58.549C-0.0304841 59.4018 -0.0528439 60.2851 0.100434 61.1466C0.253712 62.0082 0.579505 62.8303 1.05852 63.5645C1.17505 63.7431 1.30028 63.9159 1.43378 64.0823L25.2559 93.7493C25.8726 94.5168 26.6553 95.1365 27.5462 95.5623C28.437 95.9881 29.4129 96.2092 30.4015 96.209L68.6053 96.2006C69.5935 96.2013 70.5692 95.9809 71.46 95.5558C72.3508 95.1307 73.1338 94.5118 73.7508 93.7451L97.5646 64.074C98.181 63.3064 98.6154 62.4107 98.8356 61.4535C99.0557 60.4963 99.056 59.5022 98.8364 58.5448L90.3342 21.5447C90.1135 20.588 89.6788 19.693 89.0624 18.9259C88.4459 18.1589 87.6635 17.5396 86.7732 17.1139L52.3514 0.647574C51.3574 0.172055 50.2591 -0.0476581 49.1573 0.00863159ZM49.174 2.54769C50.2168 2.49488 51.2563 2.7031 52.1971 3.15323L84.805 18.7467C85.6489 19.1503 86.3903 19.7376 86.9744 20.4649C87.5584 21.1922 87.9699 22.0409 88.1784 22.9479L96.2345 57.9936C96.443 58.901 96.443 59.8434 96.2343 60.7508C96.0257 61.6581 95.6139 62.5071 95.0294 63.2346L72.4707 91.3397C71.8862 92.0661 71.1444 92.6523 70.3006 93.055C69.4567 93.4577 68.5324 93.6665 67.5962 93.6658L31.4064 93.6741C30.4699 93.6743 29.5453 93.4649 28.7015 93.0615C27.8576 92.6581 27.116 92.071 26.5319 91.3439L3.96488 63.243C3.83872 63.0846 3.72044 62.9201 3.61045 62.7502C3.15687 62.0552 2.84825 61.2769 2.70285 60.4613C2.55746 59.6457 2.57824 58.8095 2.76398 58.002L10.8075 22.9563C11.016 22.0493 11.4276 21.2006 12.0116 20.4733C12.5956 19.746 13.3371 19.1587 14.1809 18.7551L46.7847 3.15326C47.5326 2.79543 48.3449 2.58952 49.174 2.54769Z" fill="#A7F3D0"/>
  <g clip-path="url(#clip0_2299_56999)">
    <path d="M65.7577 51.3825L65.8483 50.827C65.9989 49.9039 66.0766 48.9617 66.0766 48.0257C66.0766 47.0893 65.9989 46.1423 65.8484 45.2253L65.7573 44.6693L66.1855 44.3033L69.5425 41.4339C69.5427 41.4338 69.5428 41.4337 69.5429 41.4336C69.6421 41.3485 69.7131 41.2353 69.7465 41.109L70.7133 41.3644L69.7465 41.109C69.7799 40.9825 69.774 40.8488 69.7296 40.7258L69.7252 40.7136L69.7253 40.7135L69.6825 40.5897C69.6819 40.5881 69.6814 40.5865 69.6808 40.5849C68.7977 38.1172 67.4752 35.8298 65.7772 33.8332C65.7768 33.8326 65.7763 33.832 65.7758 33.8314L65.6858 33.7265L65.6833 33.7236C65.5984 33.6237 65.4851 33.5518 65.3585 33.5176C65.2324 33.4835 65.0991 33.4882 64.9758 33.531C64.9752 33.5312 64.9746 33.5314 64.9741 33.5316L60.8096 35.0138L60.2772 35.2033L59.8402 34.845C58.3828 33.6499 56.7638 32.7101 55.0115 32.0567L54.4806 31.8587L54.3776 31.3015L53.5716 26.9431C53.5716 26.943 53.5716 26.9429 53.5716 26.9428C53.5477 26.8141 53.4852 26.6957 53.3925 26.6034L54.0974 25.8957L53.3925 26.6034C53.2997 26.5109 53.181 26.4489 53.0521 26.4255L53.0483 26.4249L52.9139 26.3999C52.9132 26.3998 52.9125 26.3997 52.9118 26.3996C50.3611 25.9387 47.6697 25.9387 45.119 26.3996C45.1183 26.3997 45.1176 26.3998 45.1169 26.3999L44.9825 26.4248L44.9787 26.4256C44.8498 26.4489 44.7311 26.5109 44.6383 26.6034M65.7577 51.3825L44.6383 26.6034M65.7577 51.3825L66.1855 51.7482L69.5402 54.6155C69.5406 54.6159 69.541 54.6162 69.5413 54.6165C69.7491 54.7963 69.8217 55.0794 69.7358 55.3271L69.7356 55.3276L69.6913 55.4555C68.8028 57.9225 67.4935 60.1926 65.7864 62.2093C65.7858 62.21 65.7852 62.2107 65.7846 62.2114L65.6961 62.3147L65.6919 62.3196C65.6077 62.4192 65.4951 62.4908 65.3691 62.5249C65.2434 62.5589 65.1104 62.5539 64.9877 62.5107C64.9874 62.5106 64.9871 62.5105 64.9868 62.5104L60.8199 61.0274L60.2875 60.8379L59.8505 61.1962C58.3943 62.3903 56.7749 63.3259 55.0195 63.9854L54.4906 64.1841L54.3879 64.7396L53.5819 69.0981C53.5819 69.0982 53.5819 69.0983 53.5818 69.0983C53.558 69.227 53.4955 69.3454 53.4028 69.4378C53.31 69.5303 53.1912 69.5923 53.0623 69.6156L53.0585 69.6163L52.9249 69.6411C52.924 69.6413 52.923 69.6414 52.9221 69.6416C50.3451 70.105 47.7061 70.105 45.1292 69.6416C45.1283 69.6414 45.1274 69.6412 45.1265 69.6411L44.9928 69.6163L44.989 69.6156C44.8601 69.5923 44.7414 69.5303 44.6486 69.4378C44.5558 69.3454 44.4933 69.2269 44.4694 69.0981L43.4862 69.2802L44.4694 69.0981L43.6583 64.7188L43.5551 64.1621L43.0247 63.9641C41.2894 63.3164 39.6807 62.3773 38.2326 61.1867L37.7955 60.8274L37.2624 61.017L33.067 62.5095C33.0665 62.5097 33.066 62.5099 33.0656 62.51C32.9422 62.553 32.8087 62.5577 32.6826 62.5236C32.556 62.4893 32.4427 62.4175 32.3577 62.3176L32.3552 62.3147L32.2652 62.2096C32.2648 62.2092 32.2644 62.2087 32.2641 62.2083C30.5588 60.2037 29.2491 57.9242 28.3599 55.4553L28.3157 55.3276L28.3158 55.3276L28.3114 55.3154C28.267 55.1924 28.2612 55.0587 28.2946 54.9322C28.328 54.8057 28.3991 54.6923 28.4985 54.6073L31.8869 51.7066L32.3158 51.3394L32.223 50.7825C32.0735 49.8854 32.0004 48.9549 32.0004 48.0206C32.0004 47.0972 32.0734 46.166 32.2233 45.2569L32.3151 44.7L31.8858 44.3336L28.4906 41.4359C28.4901 41.4355 28.4897 41.4351 28.4892 41.4348C28.2842 41.2572 28.2116 40.9746 28.3014 40.7252L28.3014 40.7252L28.3055 40.7135L28.3498 40.5856C29.2365 38.1189 30.559 35.8315 32.2543 33.8323C32.2548 33.8317 32.2554 33.831 32.2559 33.8304L32.345 33.7265L32.345 33.7265L32.3491 33.7216C32.4334 33.622 32.546 33.5504 32.672 33.5163C32.7977 33.4823 32.9308 33.4872 33.0536 33.5305C33.0538 33.5306 33.0541 33.5307 33.0543 33.5308M65.7577 51.3825L33.0543 33.5308M44.6383 26.6034C44.5455 26.6958 44.483 26.8143 44.4592 26.9431L44.4592 26.9431L43.648 31.3224L43.5455 31.8756L43.0195 32.0752C41.2801 32.7353 39.6597 33.6741 38.2219 34.8548L37.7849 35.2137L37.2521 35.0241L33.0543 33.5308M44.6383 26.6034L33.0543 33.5308M49.0257 42.7675L49.0287 42.7675C49.6509 42.7656 50.2673 42.8873 50.8421 43.1256C51.4168 43.364 51.9385 43.7141 52.3768 44.1558L52.3778 44.1568C53.2769 45.0602 53.7705 46.245 53.7705 47.5123C53.7705 48.7789 53.2775 49.963 52.3795 50.8662C51.4764 51.7642 50.2922 52.2572 49.0257 52.2572C47.7591 52.2572 46.575 51.7642 45.6718 50.8662C44.7738 49.963 44.2808 48.7789 44.2808 47.5123C44.2808 46.2453 44.7741 45.0609 45.6727 44.1576C46.5737 43.257 47.7567 42.7675 49.0257 42.7675ZM39.0002 47.5123C39.0002 53.0497 43.4883 57.5378 49.0257 57.5378C54.563 57.5378 59.0511 53.0497 59.0511 47.5123C59.0511 41.975 54.563 37.4869 49.0257 37.4869C43.4883 37.4869 39.0002 41.975 39.0002 47.5123Z" fill="#A7F3D0" stroke="white" stroke-width="2"/>
    <path d="M65.7577 51.3825L65.8483 50.827C65.9989 49.9039 66.0766 48.9617 66.0766 48.0257C66.0766 47.0893 65.9989 46.1423 65.8485 45.2253L65.7573 44.6693L66.1855 44.3033L69.5425 41.4339C69.5427 41.4338 69.5428 41.4337 69.5429 41.4336C69.6421 41.3485 69.7131 41.2353 69.7465 41.109L70.7133 41.3644L69.7465 41.109C69.7799 40.9825 69.774 40.8488 69.7296 40.7257L69.7252 40.7136L69.7253 40.7135L69.6825 40.5897C69.6819 40.5881 69.6814 40.5865 69.6808 40.5849C68.7977 38.1173 67.4752 35.8299 65.7774 33.8333C65.7768 33.8327 65.7763 33.8321 65.7758 33.8314L65.6858 33.7265L65.6833 33.7236C65.5984 33.6237 65.4851 33.5518 65.3585 33.5176C65.2325 33.4835 65.0991 33.4882 64.9758 33.531C64.9752 33.5312 64.9747 33.5314 64.9741 33.5316L60.8096 35.0138L60.2772 35.2033L59.8402 34.845C58.3828 33.6499 56.7638 32.7101 55.0115 32.0567L54.4806 31.8587L54.3776 31.3015L53.5716 26.9431C53.5716 26.943 53.5716 26.9429 53.5716 26.9428C53.5477 26.8141 53.4852 26.6957 53.3925 26.6034C53.2997 26.5109 53.181 26.4489 53.0521 26.4255L53.0483 26.4249L52.9139 26.3999C52.9132 26.3998 52.9125 26.3997 52.9118 26.3996C50.3611 25.9387 47.6697 25.9387 45.119 26.3996C45.1183 26.3997 45.1176 26.3998 45.1169 26.3999L44.9825 26.4248L44.9787 26.4256C44.8498 26.4489 44.7311 26.5109 44.6383 26.6034M65.7577 51.3825L44.6383 26.6034M65.7577 51.3825L66.1855 51.7482L69.5402 54.6155C69.5406 54.6159 69.541 54.6162 69.5413 54.6165C69.7491 54.7963 69.8217 55.0794 69.7358 55.3271L69.7356 55.3276L69.6913 55.4555C68.8028 57.9225 67.4935 60.1926 65.7864 62.2093C65.7858 62.21 65.7852 62.2107 65.7846 62.2114L65.6961 62.3147L65.6919 62.3196C65.6077 62.4192 65.4951 62.4908 65.3691 62.5249C65.2434 62.5589 65.1104 62.5539 64.9877 62.5107C64.9874 62.5106 64.9871 62.5105 64.9868 62.5104L60.8199 61.0274L60.2875 60.8379L59.8505 61.1962C58.3943 62.3903 56.7749 63.3259 55.0195 63.9854L54.4906 64.1841L54.3879 64.7396L53.5819 69.0981C53.558 69.2269 53.4956 69.3454 53.4028 69.4378C53.31 69.5303 53.1912 69.5923 53.0623 69.6156L53.0585 69.6163L52.9249 69.6411C52.924 69.6413 52.923 69.6414 52.9221 69.6416C50.3451 70.105 47.7061 70.105 45.1292 69.6416C45.1283 69.6414 45.1274 69.6412 45.1265 69.6411L44.9928 69.6163L44.989 69.6156C44.8601 69.5923 44.7414 69.5303 44.6486 69.4378C44.5558 69.3454 44.4933 69.2269 44.4694 69.0981L43.4862 69.2802L44.4694 69.0981L43.6583 64.7188L43.5551 64.1621L43.0247 63.9641C41.2894 63.3164 39.6807 62.3773 38.2326 61.1867L37.7955 60.8274L37.2624 61.017L33.067 62.5095C33.0665 62.5097 33.066 62.5099 33.0656 62.51C32.9422 62.553 32.8087 62.5577 32.6826 62.5236L32.4213 63.4889L32.6826 62.5236C32.556 62.4893 32.4427 62.4175 32.3577 62.3176L32.3552 62.3147L32.2652 62.2096C32.2648 62.2091 32.2644 62.2087 32.264 62.2082C30.5587 60.2037 29.2491 57.9241 28.3599 55.4553L28.3157 55.3276L28.3158 55.3276L28.3114 55.3154C28.267 55.1923 28.2612 55.0587 28.2946 54.9322C28.328 54.8057 28.3991 54.6923 28.4985 54.6073L31.8869 51.7066L32.3158 51.3394L32.223 50.7825C32.0735 49.8854 32.0004 48.9549 32.0004 48.0206C32.0004 47.0972 32.0734 46.166 32.2233 45.2569L32.3151 44.7L31.8858 44.3336L28.4906 41.4359C28.4901 41.4355 28.4897 41.4351 28.4892 41.4348C28.2842 41.2572 28.2116 40.9746 28.3014 40.7252L28.3014 40.7252L28.3055 40.7135L28.3498 40.5856C29.2365 38.119 30.559 35.8316 32.2542 33.8324C32.2548 33.8317 32.2554 33.831 32.2559 33.8304L32.345 33.7265L32.345 33.7265L32.3491 33.7216C32.4334 33.622 32.546 33.5504 32.672 33.5163C32.7977 33.4823 32.9308 33.4872 33.0536 33.5305C33.0538 33.5306 33.0541 33.5307 33.0543 33.5308M65.7577 51.3825L33.0543 33.5308M44.6383 26.6034C44.5455 26.6958 44.483 26.8143 44.4592 26.9431L44.4592 26.9431L43.648 31.3224L43.5455 31.8756L43.0195 32.0752C41.2801 32.7353 39.6597 33.6741 38.2219 34.8548L37.7849 35.2137L37.2521 35.0241L33.0543 33.5308M44.6383 26.6034L33.0543 33.5308M49.0257 42.7675L49.0287 42.7675C49.6509 42.7656 50.2673 42.8873 50.8421 43.1256C51.4168 43.364 51.9385 43.7141 52.3768 44.1558L52.3778 44.1568C53.2769 45.0602 53.7705 46.245 53.7705 47.5123C53.7705 48.7789 53.2775 49.963 52.3795 50.8662C51.4764 51.7642 50.2922 52.2572 49.0257 52.2572C47.7591 52.2572 46.575 51.7642 45.6718 50.8662C44.7738 49.963 44.2808 48.7789 44.2808 47.5123C44.2808 46.2455 44.774 45.0612 45.6724 44.158C46.5735 43.2571 47.7565 42.7675 49.0257 42.7675ZM39.0002 47.5123C39.0002 53.0497 43.4883 57.5378 49.0257 57.5378C54.563 57.5378 59.0511 53.0497 59.0511 47.5123C59.0511 41.975 54.563 37.4869 49.0257 37.4869C43.4883 37.4869 39.0002 41.975 39.0002 47.5123Z" fill="#A7F3D0" stroke="white" stroke-width="2"/>
  </g>
  <defs>
  <clipPath id="clip0_2299_56999">
    <rect width="46" height="46" fill="white" transform="translate(26 25)"/>
  </clipPath>
  </defs>
</svg>
