<svg width="99" height="97" viewBox="0 0 99 97" fill="none" xmlns="http://www.w3.org/2000/svg">
<path d="M49.2003 3.04255C48.4373 3.08105 47.6897 3.27052 47.0016 3.59974C47.0017 3.59973 47.0016 3.59975 47.0016 3.59974L14.3978 19.2016C13.6214 19.5729 12.9394 20.1132 12.4025 20.7818C11.8657 21.4504 11.4875 22.2303 11.2959 23.0636L3.25237 58.1093C3.08172 58.8511 3.06257 59.6197 3.19615 60.369C3.32973 61.1183 3.6133 61.8336 4.03023 62.4724L4.03125 62.474C4.13215 62.6299 4.24066 62.7808 4.35639 62.9261C4.35662 62.9264 4.35684 62.9267 4.35706 62.927L26.9228 91.0262C27.4598 91.6946 28.1418 92.2347 28.9182 92.6059C29.6946 92.9771 30.5454 93.1698 31.4074 93.1696L67.5972 93.1612C68.4589 93.1619 69.3099 92.9697 70.0863 92.5992C70.8625 92.2288 71.5445 91.6897 72.0818 91.0222L49.2003 3.04255ZM49.2003 3.04255C50.1602 2.99394 51.1168 3.1856 51.9824 3.59975L84.5904 19.1933C85.3668 19.5646 86.0486 20.1048 86.5856 20.7735C87.1225 21.4421 87.5006 22.2221 87.6922 23.0554L95.7482 58.1011C95.9398 58.9348 95.9398 59.8006 95.7481 60.6343C95.5564 61.4679 95.178 62.2482 94.6407 62.917L72.0818 91.0222L49.2003 3.04255Z" fill="#D452E7"/>
<path d="M49.2003 3.04255C48.4373 3.08105 47.6897 3.27052 47.0016 3.59974M49.2003 3.04255L72.0818 91.0222M49.2003 3.04255C50.1602 2.99394 51.1168 3.1856 51.9824 3.59975L84.5904 19.1933C85.3668 19.5646 86.0486 20.1048 86.5856 20.7735C87.1225 21.4421 87.5006 22.2221 87.6922 23.0554L95.7482 58.1011C95.9398 58.9348 95.9398 59.8006 95.7481 60.6343C95.5564 61.4679 95.178 62.2482 94.6407 62.917L72.0818 91.0222M47.0016 3.59974C47.0016 3.59975 47.0017 3.59973 47.0016 3.59974ZM47.0016 3.59974L14.3978 19.2016C13.6214 19.5729 12.9394 20.1132 12.4025 20.7818C11.8657 21.4504 11.4875 22.2303 11.2959 23.0636L3.25237 58.1093C3.08172 58.8511 3.06257 59.6197 3.19615 60.369C3.32973 61.1183 3.6133 61.8336 4.03023 62.4724L4.03125 62.474C4.13215 62.6299 4.24066 62.7808 4.35639 62.9261C4.35662 62.9264 4.35684 62.9267 4.35706 62.927L26.9228 91.0262C27.4598 91.6946 28.1418 92.2347 28.9182 92.6059C29.6946 92.9771 30.5454 93.1698 31.4074 93.1696L67.5972 93.1612C68.4589 93.1619 69.3099 92.9697 70.0863 92.5992C70.8625 92.2288 71.5445 91.6897 72.0818 91.0222" stroke="#D452E7"/>
<path d="M49.1573 0.00863158C48.2831 0.0544933 47.4268 0.273133 46.6387 0.65175L12.2169 17.1181C11.3261 17.5442 10.5434 18.1641 9.92693 18.9319C9.31044 19.6997 8.87601 20.5956 8.65592 21.5531L0.166187 58.549C-0.0304841 59.4018 -0.052844 60.2851 0.100434 61.1466C0.253712 62.0082 0.579505 62.8303 1.05852 63.5645C1.17505 63.7431 1.30028 63.9159 1.43378 64.0823L25.2559 93.7493C25.8726 94.5168 26.6553 95.1365 27.5462 95.5623C28.437 95.9881 29.4129 96.2092 30.4015 96.209L68.6053 96.2006C69.5935 96.2013 70.5692 95.9809 71.46 95.5558C72.3508 95.1307 73.1338 94.5118 73.7508 93.7451L97.5646 64.074C98.181 63.3064 98.6154 62.4107 98.8356 61.4535C99.0557 60.4963 99.056 59.5022 98.8364 58.5448L90.3342 21.5447C90.1135 20.588 89.6788 19.693 89.0624 18.9259C88.4459 18.1589 87.6635 17.5396 86.7732 17.1139L52.3514 0.647574C51.3574 0.172055 50.2591 -0.0476581 49.1573 0.00863158ZM49.174 2.54769C50.2168 2.49488 51.2563 2.7031 52.1971 3.15323L84.805 18.7467C85.6489 19.1503 86.3903 19.7376 86.9744 20.4649C87.5584 21.1922 87.9699 22.0409 88.1784 22.9479L96.2345 57.9936C96.443 58.901 96.443 59.8434 96.2343 60.7508C96.0257 61.6581 95.6139 62.5071 95.0294 63.2346L72.4707 91.3397C71.8862 92.0661 71.1444 92.6523 70.3006 93.055C69.4567 93.4577 68.5324 93.6665 67.5962 93.6658L31.4064 93.6741C30.4699 93.6743 29.5453 93.4649 28.7015 93.0615C27.8576 92.6581 27.116 92.071 26.5319 91.3439L3.96488 63.243C3.83872 63.0846 3.72044 62.9201 3.61045 62.7502C3.15687 62.0552 2.84825 61.2769 2.70285 60.4613C2.55746 59.6457 2.57824 58.8095 2.76398 58.002L10.8075 22.9563C11.016 22.0493 11.4276 21.2006 12.0116 20.4733C12.5956 19.746 13.3371 19.1587 14.1809 18.7551L46.7847 3.15326C47.5326 2.79543 48.3449 2.58952 49.174 2.54769Z" fill="#D452E7"/>
<path d="M29.235 54.5533L32.6234 51.6526L33.0523 51.2854L32.9595 50.7285C32.8099 49.8314 32.7369 48.9009 32.7369 47.9666C32.7369 47.0432 32.8099 46.112 32.9597 45.2029L33.0516 44.646L32.6223 44.2796L29.2271 41.3819L29.2257 41.3808C29.0207 41.2032 28.9481 40.9206 29.0379 40.6712L29.0419 40.6595L29.0862 40.5316C29.973 38.065 31.2954 35.7776 32.9907 33.7784L32.9924 33.7764L33.0814 33.6726L33.0856 33.6677C33.1699 33.568 33.2825 33.4964 33.4084 33.4623C33.5343 33.4283 33.6678 33.4334 33.7907 33.4768L37.9886 34.9701L38.5214 35.1597L38.9584 34.8008C40.3962 33.6201 42.0166 32.6813 43.756 32.0212L44.282 31.8216L44.3845 31.2684L45.1957 26.8891C45.2195 26.7603 45.282 26.6418 45.3748 26.5494C45.4676 26.457 45.5863 26.3949 45.7152 26.3716L45.719 26.3709L45.8534 26.346L45.8555 26.3456C48.4062 25.8848 51.0976 25.8848 53.6483 26.3456L53.6504 26.346L53.7848 26.3709L53.7886 26.3716C53.9175 26.3949 54.0362 26.457 54.129 26.5494C54.2217 26.6418 54.2842 26.7604 54.3081 26.8891L55.1141 31.2476L55.2171 31.8047L55.748 32.0027C57.5003 32.6562 59.1193 33.5959 60.5767 34.791L61.0137 35.1493L61.5461 34.9598L65.7106 33.4777L65.7124 33.477C65.8356 33.4342 65.969 33.4295 66.095 33.4636C66.2216 33.4979 66.3349 33.5697 66.4198 33.6696L66.4223 33.6726L66.5123 33.7775L66.5137 33.7792C68.2117 35.7758 69.5342 38.0632 70.4173 40.5309L70.419 40.5357L70.4617 40.6596L70.4661 40.6717C70.5105 40.7948 70.5164 40.9285 70.483 41.055C70.4496 41.1813 70.3781 41.2948 70.2789 41.3799L66.922 44.2493L66.4938 44.6153L66.5849 45.1713C66.7353 46.0883 66.8131 47.0353 66.8131 47.9717C66.8131 48.9077 66.7354 49.8499 66.5848 50.773L66.4942 51.3285L66.922 51.6942L70.2766 54.5615L70.278 54.5627C70.4857 54.7425 70.5581 55.0255 70.4723 55.2731L70.4277 55.4015C69.5392 57.8685 68.23 60.1386 66.5229 62.1553L66.521 62.1574L66.4326 62.2607L66.4284 62.2656C66.3441 62.3652 66.2316 62.4368 66.1056 62.4709C65.9799 62.5049 65.8469 62.4999 65.7242 62.4567L61.5564 60.9734L61.024 60.7839L60.587 61.1422C59.1308 62.3363 57.5114 63.2719 55.756 63.9314L55.2271 64.1301L55.1244 64.6856L54.3184 69.0441C54.2945 69.1728 54.232 69.2914 54.1393 69.3838C54.0465 69.4763 53.9277 69.5383 53.7988 69.5616L53.795 69.5623L53.6614 69.5871L53.6586 69.5876C51.0816 70.051 48.4426 70.051 45.8657 69.5876L45.863 69.5871L45.7293 69.5623L45.7255 69.5616C45.5966 69.5383 45.4779 69.4763 45.3851 69.3838C45.2923 69.2914 45.2298 69.1729 45.2059 69.0441M29.235 54.5533C29.1356 54.6383 29.0645 54.7517 29.031 54.8782C28.9976 55.0047 29.0035 55.1383 29.0479 55.2614L29.0523 55.2736L29.0964 55.4013M29.235 54.5533L29.0964 55.4013ZM45.2059 69.0441L44.2263 69.2255ZM45.2059 69.0441L44.3948 64.6648L44.2916 64.1081L43.7612 63.9101C42.0259 63.2624 40.4172 62.3233 38.9691 61.1327L38.532 60.7734L37.9988 60.963L33.8034 62.4555L33.8021 62.456C33.6787 62.499 33.5452 62.5037 33.419 62.4696C33.2924 62.4353 33.1792 62.3635 33.0942 62.2636L33.0917 62.2607L33.0017 62.1556L33.0005 62.1543C31.2952 60.1497 29.9855 57.8702 29.0964 55.4013M49.7622 42.7135H49.7652C50.3874 42.7116 51.0038 42.8333 51.5786 43.0716C52.1533 43.31 52.675 43.6601 53.1133 44.1018L53.1143 44.1028C54.0134 45.0062 54.507 46.191 54.507 47.4583C54.507 48.7249 54.014 49.909 53.116 50.8122C52.2129 51.7102 51.0288 52.2032 49.7622 52.2032C48.4956 52.2032 47.3115 51.7102 46.4083 50.8122C45.5103 49.909 45.0173 48.7249 45.0173 47.4583C45.0173 46.1915 45.5105 45.0072 46.4089 44.104C47.31 43.2031 48.493 42.7135 49.7622 42.7135ZM39.7367 47.4583C39.7367 52.9957 44.2248 57.4838 49.7622 57.4838C55.2995 57.4838 59.7876 52.9957 59.7876 47.4583C59.7876 41.921 55.2995 37.4329 49.7622 37.4329C44.2248 37.4329 39.7367 41.921 39.7367 47.4583Z" fill="#D452E7"/>
<path d="M29.235 54.5533L32.6234 51.6526L33.0523 51.2854L32.9595 50.7285C32.8099 49.8314 32.7369 48.9009 32.7369 47.9666C32.7369 47.0432 32.8099 46.112 32.9597 45.2029L33.0516 44.646L32.6223 44.2796L29.2271 41.3819L29.2257 41.3808C29.0207 41.2032 28.9481 40.9206 29.0379 40.6712L29.0419 40.6595L29.0862 40.5316C29.973 38.065 31.2954 35.7776 32.9907 33.7784L32.9924 33.7764L33.0814 33.6726L33.0856 33.6677C33.1699 33.568 33.2825 33.4964 33.4084 33.4623C33.5343 33.4283 33.6678 33.4334 33.7907 33.4768L37.9886 34.9701L38.5214 35.1597L38.9584 34.8008C40.3962 33.6201 42.0166 32.6813 43.756 32.0212L44.282 31.8216L44.3845 31.2684L45.1957 26.8891C45.2195 26.7603 45.282 26.6418 45.3748 26.5494C45.4676 26.457 45.5863 26.3949 45.7152 26.3716L45.719 26.3709L45.8534 26.346L45.8555 26.3456C48.4062 25.8848 51.0976 25.8848 53.6483 26.3456L53.6504 26.346L53.7848 26.3709L53.7886 26.3716C53.9175 26.3949 54.0362 26.457 54.129 26.5494C54.2217 26.6418 54.2842 26.7604 54.3081 26.8891L55.1141 31.2476L55.2171 31.8047L55.748 32.0027C57.5003 32.6562 59.1193 33.5959 60.5767 34.791L61.0137 35.1493L61.5461 34.9598L65.7106 33.4777L65.7124 33.477C65.8356 33.4342 65.969 33.4295 66.095 33.4636C66.2216 33.4979 66.3349 33.5697 66.4198 33.6696L66.4223 33.6726L66.5123 33.7775L66.5137 33.7792C68.2117 35.7758 69.5342 38.0632 70.4173 40.5309L70.419 40.5357L70.4617 40.6596L70.4661 40.6717C70.5105 40.7948 70.5164 40.9285 70.483 41.055C70.4496 41.1813 70.3781 41.2948 70.2789 41.3799L66.922 44.2493L66.4938 44.6153L66.5849 45.1713C66.7353 46.0883 66.8131 47.0353 66.8131 47.9717C66.8131 48.9077 66.7354 49.8499 66.5848 50.773L66.4942 51.3285L66.922 51.6942L70.2766 54.5615L70.278 54.5627C70.4857 54.7425 70.5581 55.0255 70.4723 55.2731L70.4277 55.4015C69.5392 57.8685 68.23 60.1386 66.5229 62.1553L66.521 62.1574L66.4326 62.2607L66.4284 62.2656C66.3441 62.3652 66.2316 62.4368 66.1056 62.4709C65.9799 62.5049 65.8469 62.4999 65.7242 62.4567L61.5564 60.9734L61.024 60.7839L60.587 61.1422C59.1308 62.3363 57.5114 63.2719 55.756 63.9314L55.2271 64.1301L55.1244 64.6856L54.3184 69.0441C54.2945 69.1728 54.232 69.2914 54.1393 69.3838C54.0465 69.4763 53.9277 69.5383 53.7988 69.5616L53.795 69.5623L53.6614 69.5871L53.6586 69.5876C51.0816 70.051 48.4426 70.051 45.8657 69.5876L45.863 69.5871L45.7293 69.5623L45.7255 69.5616C45.5966 69.5383 45.4779 69.4763 45.3851 69.3838C45.2923 69.2914 45.2298 69.1729 45.2059 69.0441M29.235 54.5533C29.1356 54.6383 29.0645 54.7517 29.031 54.8782C28.9976 55.0047 29.0035 55.1383 29.0479 55.2614L29.0523 55.2736L29.0964 55.4013M29.235 54.5533L29.0964 55.4013M45.2059 69.0441L44.2263 69.2255M45.2059 69.0441L44.3948 64.6648L44.2916 64.1081L43.7612 63.9101C42.0259 63.2624 40.4172 62.3233 38.9691 61.1327L38.532 60.7734L37.9988 60.963L33.8034 62.4555L33.8021 62.456C33.6787 62.499 33.5452 62.5037 33.419 62.4696C33.2924 62.4353 33.1792 62.3635 33.0942 62.2636L33.0917 62.2607L33.0017 62.1556L33.0005 62.1543C31.2952 60.1497 29.9855 57.8702 29.0964 55.4013M49.7622 42.7135H49.7652C50.3874 42.7116 51.0038 42.8333 51.5786 43.0716C52.1533 43.31 52.675 43.6601 53.1133 44.1018L53.1143 44.1028C54.0134 45.0062 54.507 46.191 54.507 47.4583C54.507 48.7249 54.014 49.909 53.116 50.8122C52.2129 51.7102 51.0288 52.2032 49.7622 52.2032C48.4956 52.2032 47.3115 51.7102 46.4083 50.8122C45.5103 49.909 45.0173 48.7249 45.0173 47.4583C45.0173 46.1915 45.5105 45.0072 46.4089 44.104C47.31 43.2031 48.493 42.7135 49.7622 42.7135ZM39.7367 47.4583C39.7367 52.9957 44.2248 57.4838 49.7622 57.4838C55.2995 57.4838 59.7876 52.9957 59.7876 47.4583C59.7876 41.921 55.2995 37.4329 49.7622 37.4329C44.2248 37.4329 39.7367 41.921 39.7367 47.4583Z" stroke="white" stroke-width="2"/>
</svg>
