<svg width="194" height="160" viewBox="0 0 194 160" fill="none" xmlns="http://www.w3.org/2000/svg">
<path fill-rule="evenodd" clip-rule="evenodd" d="M49.4965 159.999H183.097C195.638 159.999 195.063 149.588 190.966 145.96C186.768 142.242 178.472 143.75 178.472 143.75C178.472 143.75 176.002 136.747 167.872 133.338C160.681 130.322 153.148 131.757 153.148 131.757C153.148 131.757 153.148 126.951 148.544 122.97C143.939 118.989 137.8 119.377 137.8 119.377C137.8 119.377 133.58 92.8743 105.378 92.8743C77.176 92.8743 73.9146 117.829 73.9146 117.829C73.9146 117.829 67.5837 117.829 62.979 122.085C58.3746 126.341 57.7991 131.176 57.7991 131.176C57.7991 131.176 42.4009 129.084 37.8467 142.478C35.1329 150.46 40.7085 159.999 49.4965 159.999Z" fill="url(#paint0_linear_5826_111596)"/>
<path d="M188.724 21.4757C186.345 21.4757 184.417 23.4041 184.417 25.7829C184.417 28.1617 186.345 30.0901 188.724 30.0901C191.103 30.0901 193.031 28.1617 193.031 25.7829C193.031 23.4041 191.103 21.4757 188.724 21.4757Z" fill="url(#paint1_linear_5826_111596)"/>
<path d="M49.841 54.9164C47.5907 54.9164 45.7665 56.7406 45.7665 58.9909C45.7665 61.2412 47.5907 63.0654 49.841 63.0654C52.0913 63.0654 53.9155 61.2412 53.9155 58.9909C53.9155 56.7406 52.0913 54.9164 49.841 54.9164Z" fill="url(#paint2_linear_5826_111596)"/>
<path d="M13.1357 43.3674C10.9056 43.3674 9.09773 41.5595 9.09773 39.3294C9.09773 37.0993 10.9056 35.2915 13.1357 35.2915C15.3657 35.2915 17.1736 37.0993 17.1736 39.3294C17.1736 41.5595 15.3657 43.3674 13.1357 43.3674Z" fill="url(#paint3_linear_5826_111596)"/>
<path d="M170.89 62.2093C169.849 62.2093 169.006 61.3657 169.006 60.325C169.006 59.2843 169.849 58.4407 170.89 58.4407C171.931 58.4407 172.774 59.2843 172.774 60.325C172.774 61.3657 171.931 62.2093 170.89 62.2093Z" fill="url(#paint4_linear_5826_111596)"/>
<path d="M181.766 146.834C180.428 146.834 179.343 145.75 179.343 144.411C179.343 143.073 180.428 141.989 181.766 141.989C183.104 141.989 184.189 143.073 184.189 144.411C184.189 145.75 183.104 146.834 181.766 146.834Z" fill="#E1E4E5"/>
<path d="M12.4139 122.756C10.481 122.756 8.91417 121.189 8.91417 119.256C8.91417 117.323 10.481 115.756 12.4139 115.756C14.3467 115.756 15.9136 117.323 15.9136 119.256C15.9136 121.189 14.3467 122.756 12.4139 122.756Z" fill="#E1E4E5"/>
<path d="M52.8852 32.4972C51.4141 32.4972 50.2216 31.3046 50.2216 29.8335C50.2216 28.3625 51.4141 27.1699 52.8852 27.1699C54.3563 27.1699 55.5488 28.3625 55.5488 29.8335C55.5488 31.3046 54.3563 32.4972 52.8852 32.4972Z" fill="#E1E4E5"/>
<path d="M171.75 33.2902C170.114 33.2902 168.788 31.9644 168.788 30.329C168.788 28.6937 170.114 27.3679 171.75 27.3679C173.385 27.3679 174.711 28.6937 174.711 30.329C174.711 31.9644 173.385 33.2902 171.75 33.2902Z" fill="#E1E4E5"/>
<path d="M23.0005 63.2438C23.3806 64.6623 22.5388 66.1204 21.1202 66.5005C19.7017 66.8806 18.2436 66.0388 17.8635 64.6202C17.4834 63.2017 18.3252 61.7436 19.7438 61.3635C21.1623 60.9834 22.6204 61.8253 23.0005 63.2438Z" fill="#E1E4E5"/>
<path d="M87.9579 11.0268C86.0041 11.0268 84.4203 9.44289 84.4203 7.48909C84.4203 5.53529 86.0041 3.95142 87.9579 3.95142C89.9117 3.95142 91.4956 5.53529 91.4956 7.48909C91.4956 9.44289 89.9117 11.0268 87.9579 11.0268Z" fill="#E1E4E5"/>
<path d="M154.792 5.89057C155.583 8.84286 153.831 11.8774 150.878 12.6685C147.926 13.4596 144.891 11.7076 144.1 8.75526C143.309 5.80297 145.061 2.76838 148.014 1.97732C150.966 1.18626 154 2.93828 154.792 5.89057Z" fill="#E1E4E5"/>
<path d="M116.458 94.8207L119.642 104.377L108.821 117.419L99.8302 101.189M82.4945 61.2107L72.9917 57.7253L59.9495 68.546L76.1263 77.8388" stroke="url(#paint5_linear_5826_111596)" stroke-width="6" stroke-linejoin="round"/>
<path d="M76.7978 90.7812L62.5356 105.318M48.2734 119.854L57.7814 110.163M84.4772 102.849L70.215 117.386M55.9528 131.922L65.4612 122.231" stroke="url(#paint6_linear_5826_111596)" stroke-width="5.5" stroke-linecap="round"/>
<path fill-rule="evenodd" clip-rule="evenodd" d="M45.3925 40.5169C44.0711 40.7059 42.7379 40.8006 41.403 40.8002C27.0092 40.8002 15.3409 29.9098 15.3409 16.4757C15.3409 10.9001 17.351 5.76239 20.7316 1.65967C10.0301 4.21285 2.073 13.8376 2.073 25.3208C2.073 38.7549 12.9633 49.6456 26.3974 49.6456C34.0824 49.6456 40.9348 46.0818 45.3925 40.5169Z" fill="#E1E4E5"/>
<path d="M45.3936 40.5157L46.6882 41.5527C46.8959 41.2931 47.0208 40.977 47.0467 40.6455C47.0725 40.314 46.9982 39.9823 46.8333 39.6936C46.6683 39.4048 46.4204 39.1723 46.1217 39.0262C45.823 38.8801 45.4873 38.8271 45.1581 38.8741L45.3936 40.5157ZM20.7327 1.65873L22.0126 2.71324C22.2337 2.44506 22.365 2.11417 22.3879 1.76733C22.4108 1.42048 22.324 1.07522 22.14 0.780327C21.956 0.485439 21.684 0.255838 21.3623 0.123967C21.0407 -0.00790347 20.6858 -0.0353761 20.3477 0.0454363L20.7327 1.65838V1.65873ZM45.1581 38.8738C43.9354 39.049 42.6816 39.1399 41.4041 39.1399V42.4571C42.8394 42.4571 44.2506 42.3547 45.6291 42.1572L45.1581 38.8738ZM41.4041 39.1399C27.8167 39.1399 17.0006 28.8861 17.0006 16.4741H13.6835C13.6835 30.93 26.2041 42.4571 41.4041 42.4571V39.1399ZM17.0006 16.4741C17.0006 11.3075 18.8605 6.53797 22.0126 2.71289L19.4528 0.603523C15.8433 4.98355 13.6835 10.4892 13.6835 16.4741H17.0006ZM3.73269 25.3192C3.73269 14.6211 11.1459 5.65032 21.1176 3.27132L20.3477 0.0450881C8.91674 2.77211 0.415527 13.051 0.415527 25.3192H3.73269ZM26.3985 47.9854C13.8806 47.9854 3.73269 37.8374 3.73269 25.3192H0.415527C0.415527 39.6695 12.0486 51.3025 26.3985 51.3025V47.9854ZM44.0991 39.4786C39.9427 44.6675 33.5589 47.9854 26.3985 47.9854V51.3025C34.6082 51.3025 41.9291 47.4931 46.6882 41.5524L44.0991 39.4786Z" fill="#E1E4E5"/>
<path d="M50.8454 94.947C51.0011 94.5261 51.5961 94.5261 51.7518 94.947L52.3966 96.6888C52.4454 96.8212 52.5499 96.9257 52.682 96.9745L54.4242 97.6193C54.845 97.775 54.845 98.37 54.4242 98.5257L52.682 99.1706C52.5499 99.2193 52.4454 99.3239 52.3966 99.4559L51.7518 101.198C51.5961 101.619 51.0011 101.619 50.8454 101.198L50.2005 99.4559C50.1764 99.3905 50.1383 99.3312 50.089 99.2819C50.0397 99.2327 49.9803 99.1947 49.9149 99.1706L48.173 98.5257C47.7522 98.37 47.7522 97.775 48.173 97.6193L49.9149 96.9745C50.0473 96.9257 50.1518 96.8212 50.2005 96.6888L50.8454 94.947Z" stroke="#E1E4E5" stroke-width="1.5"/>
<path d="M121.848 11.2912C122.004 10.8704 122.599 10.8704 122.755 11.2912L123.4 13.033C123.448 13.1654 123.553 13.2699 123.685 13.3187L125.427 13.9635C125.848 14.1193 125.848 14.7143 125.427 14.87L123.685 15.5148C123.553 15.5636 123.448 15.6681 123.4 15.8001L122.755 17.5423C122.599 17.9631 122.004 17.9631 121.848 17.5423L121.203 15.8001C121.179 15.7348 121.141 15.6754 121.092 15.6262C121.043 15.5769 120.983 15.5389 120.918 15.5148L119.176 14.87C118.755 14.7143 118.755 14.1193 119.176 13.9635L120.918 13.3187C121.05 13.2699 121.155 13.1654 121.203 13.033L121.848 11.2912Z" stroke="#E1E4E5" stroke-width="1.5"/>
<path d="M141.731 37.9606C141.553 36.7667 140.601 35.8143 139.407 35.6366C103.829 30.3418 83.363 55.5615 77.8811 86.4767L90.8912 99.4865C121.806 94.0049 147.026 73.5387 141.731 37.9606Z" fill="url(#paint7_linear_5826_111596)" stroke="url(#paint8_linear_5826_111596)" stroke-width="12.4"/>
<path d="M114.894 61.4756C118.268 64.8496 123.739 64.8496 127.112 61.4756C130.486 58.1017 130.486 52.6314 127.112 49.2575C123.739 45.8836 118.268 45.8836 114.894 49.2575C111.52 52.6314 111.52 58.1017 114.894 61.4756Z" fill="white" stroke="white" stroke-width="6"/>
<defs>
<linearGradient id="paint0_linear_5826_111596" x1="118.706" y1="197.633" x2="117.817" y2="19.8341" gradientUnits="userSpaceOnUse">
<stop stop-color="white"/>
<stop offset="1" stop-color="#EEEEEE"/>
</linearGradient>
<linearGradient id="paint1_linear_5826_111596" x1="188.724" y1="30.0901" x2="188.724" y2="21.4757" gradientUnits="userSpaceOnUse">
<stop stop-color="#8851C8"/>
<stop offset="1" stop-color="#81E2B4"/>
</linearGradient>
<linearGradient id="paint2_linear_5826_111596" x1="49.841" y1="63.0654" x2="49.841" y2="54.9164" gradientUnits="userSpaceOnUse">
<stop stop-color="#8851C8"/>
<stop offset="1" stop-color="#81E2B4"/>
</linearGradient>
<linearGradient id="paint3_linear_5826_111596" x1="13.1357" y1="35.2915" x2="13.1357" y2="43.3674" gradientUnits="userSpaceOnUse">
<stop stop-color="#8851C8"/>
<stop offset="1" stop-color="#81E2B4"/>
</linearGradient>
<linearGradient id="paint4_linear_5826_111596" x1="170.89" y1="58.4407" x2="170.89" y2="62.2093" gradientUnits="userSpaceOnUse">
<stop stop-color="#8851C8"/>
<stop offset="1" stop-color="#81E2B4"/>
</linearGradient>
<linearGradient id="paint5_linear_5826_111596" x1="89.7957" y1="57.7253" x2="89.7957" y2="117.419" gradientUnits="userSpaceOnUse">
<stop stop-color="#8851C8"/>
<stop offset="1" stop-color="#81E2B4"/>
</linearGradient>
<linearGradient id="paint6_linear_5826_111596" x1="66.3753" y1="90.7812" x2="66.3753" y2="131.922" gradientUnits="userSpaceOnUse">
<stop stop-color="#8851C8"/>
<stop offset="1" stop-color="#81E2B4"/>
</linearGradient>
<linearGradient id="paint7_linear_5826_111596" x1="110.159" y1="34.9304" x2="110.159" y2="99.4865" gradientUnits="userSpaceOnUse">
<stop stop-color="#8851C8"/>
<stop offset="1" stop-color="#81E2B4"/>
</linearGradient>
<linearGradient id="paint8_linear_5826_111596" x1="110.159" y1="34.9304" x2="110.159" y2="99.4865" gradientUnits="userSpaceOnUse">
<stop stop-color="#8851C8"/>
<stop offset="1" stop-color="#81E2B4"/>
</linearGradient>
</defs>
</svg>
