<svg width="158" height="40" viewBox="0 0 158 40" fill="none" xmlns="http://www.w3.org/2000/svg">
<g clip-path="url(#clip0_250_3946)">
<path d="M77.8791 17.3063C77.5294 17.3063 77.2402 17.4184 77.0115 17.6403C76.7805 17.8623 76.6662 18.156 76.6662 18.5215V25.2318C76.6662 25.8036 76.507 26.3192 76.1909 26.7788C75.8725 27.2385 75.4488 27.6039 74.9174 27.8729C74.3861 28.142 73.7785 28.2765 73.0969 28.2765C72.3839 28.2765 71.7405 28.1375 71.1687 27.8595C70.597 27.5815 70.1464 27.1533 69.8123 26.5748C69.4783 25.9964 69.3123 25.2632 69.3123 24.3731V18.5192C69.3123 18.1695 69.198 17.8802 68.9671 17.6515C68.7361 17.4206 68.4469 17.3063 68.0994 17.3063C67.7497 17.3063 67.4604 17.4206 67.2317 17.6515C67.0008 17.8825 66.8865 18.1717 66.8865 18.5192V24.3731C66.8865 25.6892 67.1353 26.8013 67.6353 27.7048C68.1353 28.6083 68.8169 29.2966 69.6823 29.763C70.5477 30.2316 71.5275 30.4647 72.6216 30.4647C73.6843 30.4647 74.6327 30.2338 75.4645 29.7742C75.9174 29.5231 76.3164 29.2226 76.6662 28.8751V29.133C76.6662 29.4827 76.7805 29.7719 77.0115 30.0006C77.2424 30.2316 77.5316 30.3459 77.8791 30.3459C78.2446 30.3459 78.5383 30.2316 78.7603 30.0006C78.9822 29.7719 79.0943 29.4805 79.0943 29.133V18.5192C79.0943 18.1538 78.9822 17.8601 78.7603 17.6381C78.5383 17.4184 78.2446 17.3063 77.8791 17.3063Z" fill="white"/>
<path d="M91.8492 18.1043C90.93 17.5259 89.8897 17.2367 88.7305 17.2367C87.7934 17.2367 86.9347 17.4317 86.1477 17.8196C85.363 18.2075 84.6926 18.7366 84.1366 19.4025V12.9746C84.1366 12.6091 84.0245 12.3154 83.8025 12.0935C83.5806 11.8715 83.2869 11.7594 82.9214 11.7594C82.5717 11.7594 82.2825 11.8715 82.0538 12.0935C81.8228 12.3154 81.7085 12.6091 81.7085 12.9746V23.826C81.7242 25.0793 82.0179 26.2048 82.5896 27.2047C83.1613 28.2047 83.9371 28.9939 84.9213 29.5723C85.9056 30.1507 87.0154 30.44 88.253 30.44C89.5063 30.44 90.625 30.1507 91.6093 29.5723C92.5935 28.9939 93.3738 28.2047 93.9544 27.2047C94.5329 26.2048 94.8221 25.0793 94.8221 23.826C94.8221 22.5727 94.5553 21.4494 94.0239 20.4585C93.4948 19.4675 92.7707 18.6828 91.8492 18.1043ZM91.9321 26.1129C91.56 26.7944 91.0555 27.3303 90.421 27.7181C89.7865 28.106 89.0646 28.3011 88.2552 28.3011C87.4615 28.3011 86.7441 28.106 86.1006 27.7181C85.4572 27.3303 84.955 26.7944 84.5895 26.1129C84.2241 25.4313 84.0424 24.669 84.0424 23.8282C84.0424 22.9718 84.2241 22.2095 84.5895 21.5436C84.955 20.8777 85.4572 20.3508 86.1006 19.9607C86.7441 19.5729 87.4615 19.3778 88.2552 19.3778C89.0646 19.3778 89.7865 19.5729 90.421 19.9607C91.0555 20.3486 91.56 20.8777 91.9321 21.5436C92.3043 22.2095 92.4904 22.9718 92.4904 23.8282C92.4926 24.669 92.3066 25.429 91.9321 26.1129Z" fill="white"/>
<path d="M106.279 18.0551C105.391 17.508 104.328 17.2345 103.091 17.2345C101.837 17.2345 100.725 17.517 99.759 18.0797C98.7905 18.6425 98.0327 19.4205 97.4856 20.4114C96.9386 21.4024 96.665 22.5503 96.665 23.8507C96.665 25.1354 96.9543 26.2743 97.5327 27.2653C98.1111 28.2563 98.9138 29.0343 99.9362 29.597C100.959 30.1598 102.129 30.4423 103.447 30.4423C104.176 30.4423 104.943 30.3078 105.743 30.0387C106.543 29.7697 107.214 29.4199 107.754 28.9917C108.023 28.7854 108.151 28.5388 108.135 28.2541C108.12 27.9693 107.976 27.707 107.707 27.4693C107.501 27.2945 107.259 27.2115 106.981 27.2205C106.703 27.2295 106.445 27.3191 106.207 27.494C105.889 27.7317 105.474 27.9424 104.958 28.124C104.443 28.3056 103.938 28.3975 103.447 28.3975C102.544 28.3975 101.741 28.2002 101.044 27.8034C100.344 27.4066 99.7971 26.8685 99.4026 26.1847C99.1358 25.7273 98.9631 25.2273 98.8757 24.6848H107.924C108.243 24.6848 108.503 24.5861 108.709 24.3866C108.915 24.1893 109.019 23.9382 109.019 23.6377C109.019 22.3844 108.785 21.2769 108.317 20.3173C107.846 19.3577 107.169 18.6044 106.279 18.0551ZM100.77 19.8756C101.414 19.4788 102.187 19.2815 103.091 19.2815C103.884 19.2815 104.557 19.4631 105.113 19.8285C105.669 20.194 106.097 20.6895 106.398 21.315C106.611 21.7611 106.752 22.2499 106.821 22.779H98.8981C98.9788 22.3261 99.1133 21.9002 99.3039 21.5056C99.6402 20.8173 100.127 20.2724 100.77 19.8756Z" fill="white"/>
<path d="M135.746 17.6515C135.277 17.3421 134.569 17.1874 133.616 17.1874C132.663 17.1874 131.791 17.4093 130.997 17.8533C130.464 18.1537 130.004 18.5236 129.616 18.9631V18.5191C129.616 18.1223 129.517 17.8264 129.318 17.6268C129.118 17.4295 128.822 17.3286 128.426 17.3286C128.044 17.3286 127.751 17.4318 127.545 17.638C127.338 17.8443 127.235 18.138 127.235 18.5191V29.1576C127.235 29.5544 127.338 29.8526 127.545 30.0499C127.751 30.2494 128.044 30.3481 128.426 30.3481C128.822 30.3481 129.118 30.2449 129.318 30.0387C129.515 29.8324 129.616 29.5387 129.616 29.1576V22.2095C129.616 21.4809 129.849 20.8778 130.318 20.4002C130.786 19.9249 131.425 19.5998 132.235 19.4249C133.044 19.25 133.957 19.2657 134.972 19.472C135.179 19.5191 135.369 19.5281 135.544 19.4967C135.719 19.4653 135.874 19.389 136.008 19.2702C136.143 19.1514 136.235 18.981 136.282 18.759C136.394 18.3308 136.214 17.9609 135.746 17.6515Z" fill="white"/>
<path d="M145.94 23.5884C145.25 23.223 144.31 22.9226 143.12 22.6849C142.263 22.51 141.613 22.3329 141.169 22.1491C140.725 21.9675 140.427 21.7612 140.277 21.5303C140.127 21.3016 140.05 21.0415 140.05 20.7568C140.05 20.2972 140.293 19.9474 140.777 19.7097C141.261 19.4721 141.851 19.3533 142.55 19.3533C143.153 19.3533 143.685 19.425 144.144 19.5662C144.604 19.7097 145.032 19.9698 145.429 20.351C145.667 20.5729 145.96 20.7164 146.31 20.7792C146.66 20.842 146.96 20.7882 147.214 20.6133C147.467 20.4227 147.602 20.1895 147.617 19.9115C147.633 19.6335 147.53 19.369 147.308 19.1134C146.833 18.5259 146.189 18.0663 145.38 17.7323C144.57 17.3982 143.642 17.2323 142.595 17.2323C141.786 17.2323 141.008 17.3623 140.263 17.6247C139.517 17.887 138.907 18.2838 138.432 18.8152C137.956 19.3465 137.719 20.0169 137.719 20.8263C137.719 21.7455 138.08 22.5235 138.802 23.158C139.524 23.7925 140.685 24.2678 142.288 24.5861C143.526 24.8081 144.378 25.0951 144.846 25.4426C145.315 25.7924 145.539 26.2049 145.525 26.6802C145.51 27.1555 145.259 27.5456 144.777 27.8461C144.292 28.1487 143.591 28.2989 142.671 28.2989C141.94 28.2989 141.279 28.1689 140.685 27.9066C140.091 27.6443 139.658 27.364 139.389 27.0613C139.167 26.8237 138.9 26.6847 138.591 26.6443C138.281 26.604 137.968 26.7116 137.651 26.9649C137.382 27.1712 137.228 27.438 137.187 27.7631C137.147 28.0882 137.248 28.3774 137.486 28.6308C138.008 29.1532 138.743 29.5859 139.687 29.9267C140.631 30.2674 141.658 30.4378 142.77 30.4378C143.896 30.4378 144.837 30.263 145.59 29.9132C146.344 29.5634 146.916 29.0971 147.303 28.5097C147.691 27.9223 147.886 27.2654 147.886 26.5345C147.886 25.9 147.736 25.3417 147.433 24.8574C147.126 24.3799 146.631 23.9539 145.94 23.5884Z" fill="white"/>
<path d="M157.22 28.3011C157.023 28.0792 156.781 27.9671 156.494 27.9671H155.684C155.175 27.9671 154.747 27.7518 154.399 27.3236C154.05 26.8954 153.877 26.364 153.877 25.7295V19.8532H155.899C156.233 19.8532 156.503 19.759 156.709 19.5684C156.915 19.3779 157.018 19.1402 157.018 18.8555C157.018 18.5393 156.915 18.2837 156.709 18.0932C156.503 17.9026 156.233 17.8084 155.899 17.8084H153.877V14.3781C153.877 14.0284 153.765 13.7436 153.543 13.5217C153.321 13.2997 153.034 13.1876 152.687 13.1876C152.337 13.1876 152.052 13.2997 151.83 13.5217C151.608 13.7436 151.496 14.0306 151.496 14.3781V17.8062H150.402C150.068 17.8062 149.799 17.9004 149.593 18.0909C149.386 18.2815 149.283 18.5349 149.283 18.8532C149.283 19.138 149.386 19.3779 149.593 19.5662C149.799 19.7568 150.068 19.8509 150.402 19.8509H151.496V25.7295C151.496 26.6017 151.678 27.3886 152.043 28.0859C152.409 28.7854 152.909 29.3347 153.543 29.7405C154.178 30.1441 154.891 30.3481 155.684 30.3481H156.112C156.525 30.3481 156.861 30.2382 157.124 30.014C157.386 29.7921 157.516 29.5073 157.516 29.1576C157.518 28.8101 157.42 28.5231 157.22 28.3011Z" fill="white"/>
<path d="M122.632 11.3469C122.123 11.3469 121.724 11.4747 121.446 11.7281C121.168 11.9792 121.027 12.3558 121.027 12.8446C121.027 13.3154 121.168 13.6876 121.446 13.9477C121.724 14.21 122.123 14.3423 122.632 14.3423C123.157 14.3423 123.56 14.21 123.832 13.9499C124.101 13.6898 124.237 13.3177 124.237 12.8468C124.237 12.3581 124.101 11.9814 123.832 11.7303C123.56 11.4747 123.157 11.3469 122.632 11.3469Z" fill="white"/>
<path d="M122.576 17.3668H115.072V16.7032C115.072 15.6898 115.308 14.9096 115.772 14.3804C116.236 13.8536 116.985 13.5486 118 13.4747L118.729 13.4208C118.915 13.4052 119.072 13.3222 119.2 13.1787C119.33 13.033 119.422 12.8514 119.473 12.6429C119.525 12.4366 119.516 12.2303 119.449 12.033C119.379 11.838 119.249 11.681 119.061 11.5689C118.872 11.4568 118.617 11.4187 118.303 11.4523L117.491 11.5062C115.837 11.6653 114.565 12.2079 113.713 13.1137C112.861 14.0195 112.429 15.3535 112.429 17.0798V17.3646H110.875C110.545 17.3646 110.283 17.452 110.093 17.6246C109.904 17.795 109.81 18.0484 109.81 18.3757C109.81 18.6874 109.906 18.9362 110.095 19.1156C110.283 19.295 110.545 19.3869 110.875 19.3869H112.429V29.3078C112.429 29.7271 112.548 30.0567 112.781 30.2899C113.014 30.523 113.346 30.6419 113.763 30.6419C114.644 30.6419 115.07 30.2047 115.07 29.3056V19.3891H121.267V29.1756C121.267 29.6307 121.381 29.9894 121.608 30.2405C121.832 30.4916 122.157 30.6172 122.576 30.6172C123.029 30.6172 123.368 30.4894 123.583 30.2405C123.8 29.9894 123.91 29.6307 123.91 29.1733V18.7838C123.91 18.3466 123.796 17.9968 123.569 17.7457C123.347 17.4946 123.013 17.3668 122.576 17.3668Z" fill="white"/>
<path d="M64.3439 28.5477L59.4384 22.5032L64.1085 18.3129C64.3574 18.0999 64.4897 17.8398 64.4986 17.5439C64.5076 17.2502 64.3955 16.9744 64.1668 16.7278C63.9538 16.4789 63.6937 16.3466 63.3978 16.3377C63.1018 16.3287 62.8328 16.4408 62.6064 16.6695L56.3242 22.2858V11.9029C56.3242 11.5509 56.2121 11.2595 55.9879 11.0353C55.7659 10.8133 55.4722 10.699 55.1202 10.699C54.766 10.699 54.4745 10.8111 54.2526 11.0353C54.0306 11.2572 53.9163 11.5487 53.9163 11.9029V29.0993C53.9163 29.4535 54.0284 29.745 54.2526 29.967C54.4745 30.1889 54.766 30.3033 55.1202 30.3033C55.4722 30.3033 55.7659 30.1912 55.9879 29.967C56.2099 29.745 56.3242 29.4513 56.3242 29.0993V25.2968L57.7053 24.057L62.5212 29.9961C62.7341 30.2629 63.001 30.4109 63.3126 30.4378C63.3462 30.44 63.3799 30.4423 63.4135 30.4423C63.687 30.4423 63.9448 30.3459 64.1825 30.1553C64.4471 29.9266 64.595 29.662 64.6219 29.3661C64.6511 29.0724 64.5569 28.7966 64.3439 28.5477Z" fill="white"/>
<path d="M43.0379 12.0061C39.8453 13.9723 36.4643 14.8579 36.4643 14.8579C36.4643 14.8579 36.8589 11.9792 34.3344 10.0353C28.7361 5.71942 22.1512 9.7304 16.0484 15.2817C10.9164 19.9496 6.29785 30.2158 3.99305 35.3187C2.29359 39.0853 0 40 0 40C0 40 2.44829 39.5561 5.09388 36.906C10.9904 30.996 15.8399 24.7071 19.9226 25.7071C25.4784 27.068 29.4087 27.2608 32.5027 26.6958C41.1053 23.3911 41.7331 16.721 43.0379 12.0061Z" fill="url(#paint0_linear_250_3946)"/>
<path d="M32.5923 26.6779C32.6394 26.6689 32.6842 26.66 32.729 26.651C32.6842 26.6622 32.6394 26.6712 32.5923 26.6779Z" fill="url(#paint1_linear_250_3946)"/>
<path d="M21.7319 16.5149L20.9359 16.952L20.501 17.7502L20.0638 16.952L19.2656 16.5171L20.0615 16.0799L20.4965 15.2817L20.9337 16.0799L21.7319 16.5149Z" fill="url(#paint2_linear_250_3946)"/>
<path d="M27.6486 17.416L26.9984 17.7725L26.6442 18.4227L26.2877 17.7725L25.6353 17.4183L26.2854 17.0618L26.6419 16.4116L26.9984 17.0618L27.6486 17.416Z" fill="url(#paint3_linear_250_3946)"/>
<path d="M22.2453 21.2523L21.8328 21.4787L21.6063 21.8935L21.3799 21.4787L20.9651 21.2523L21.3799 21.0258L21.6041 20.6133L21.8328 21.0258L22.2453 21.2523Z" fill="url(#paint4_linear_250_3946)"/>
<path d="M33.1147 13.3087L32.7021 13.5351L32.4757 13.9477L32.2492 13.5351L31.8345 13.3087L32.2492 13.0823L32.4734 12.6675L32.6999 13.0823L33.1147 13.3087Z" fill="url(#paint5_linear_250_3946)"/>
<path d="M17.4049 20.49L16.7121 20.8689L16.3354 21.5617L15.9543 20.8711L15.2615 20.4922L15.9543 20.1133L16.3309 19.4205L16.7121 20.1133L17.4049 20.49Z" fill="url(#paint6_linear_250_3946)"/>
<path d="M14.8556 24.4112L14.4431 24.6376L14.2167 25.0524L13.9902 24.6376L13.5754 24.4134L13.9902 24.187L14.2167 23.7722L14.4431 24.1848L14.8556 24.4112Z" fill="url(#paint7_linear_250_3946)"/>
<path d="M25.2094 13.9477L24.7969 14.1741L24.5704 14.5889L24.344 14.1741L23.9292 13.9499L24.344 13.7235L24.5682 13.3087L24.7969 13.7212L25.2094 13.9477Z" fill="url(#paint8_linear_250_3946)"/>
<path d="M16.0484 15.2817C17.6089 13.8625 19.1985 12.5464 20.797 11.4411C17.4026 9.24392 14.553 4.13658 13.7548 1.31387C12.0643 -4.65889 2.95498 11.0398 10.8312 21.9293C12.45 19.3286 14.2167 16.9498 16.0484 15.2817Z" fill="url(#paint9_linear_250_3946)"/>
<path d="M44.679 8.37396C49.5218 2.60971 47.9972 23.8731 32.4958 26.698C43.7441 22.3821 41.3675 12.3154 44.679 8.37396Z" fill="#3C356C"/>
<path d="M5.11861 27.985L7.05572 28.7877C8.00634 26.8775 9.0713 24.8641 10.2192 22.9382C7.88975 24.4785 5.90108 25.9851 4.9101 26.8506C4.52896 27.1846 4.6433 27.8079 5.11861 27.985Z" fill="#3C356C"/>
<path d="M19.9228 25.7071C17.3624 25.0794 14.5016 27.3192 11.2686 30.5342L18.4408 33.5049C18.7412 33.617 19.0798 33.5027 19.2479 33.2291C19.8914 32.1888 21.3689 29.2854 22.4764 26.2744C21.6648 26.1129 20.8151 25.9246 19.9228 25.7071Z" fill="#3C356C"/>
</g>
<defs>
<linearGradient id="paint0_linear_250_3946" x1="-0.375987" y1="32.6602" x2="37.972" y2="13.2598" gradientUnits="userSpaceOnUse">
<stop stop-color="#D0BAE9"/>
<stop offset="0.0777" stop-color="#B3A0D1"/>
<stop offset="0.2631" stop-color="#73679B"/>
<stop offset="0.3984" stop-color="#4B4379"/>
<stop offset="0.4684" stop-color="#3C356C"/>
<stop offset="0.6486" stop-color="#3C356C"/>
<stop offset="0.72" stop-color="#3E3870"/>
<stop offset="0.7837" stop-color="#44437A"/>
<stop offset="0.8446" stop-color="#4D548D"/>
<stop offset="0.9037" stop-color="#5B6CA6"/>
<stop offset="0.9609" stop-color="#6C8BC7"/>
<stop offset="1" stop-color="#7AA5E2"/>
</linearGradient>
<linearGradient id="paint1_linear_250_3946" x1="32.6084" y1="26.6924" x2="32.7097" y2="26.6411" gradientUnits="userSpaceOnUse">
<stop stop-color="#D0BAE9"/>
<stop offset="0.0777" stop-color="#B3A0D1"/>
<stop offset="0.2631" stop-color="#73679B"/>
<stop offset="0.3984" stop-color="#4B4379"/>
<stop offset="0.4684" stop-color="#3C356C"/>
<stop offset="0.6486" stop-color="#3C356C"/>
<stop offset="0.72" stop-color="#3E3870"/>
<stop offset="0.7837" stop-color="#44437A"/>
<stop offset="0.8446" stop-color="#4D548D"/>
<stop offset="0.9037" stop-color="#5B6CA6"/>
<stop offset="0.9609" stop-color="#6C8BC7"/>
<stop offset="1" stop-color="#7AA5E2"/>
</linearGradient>
<linearGradient id="paint2_linear_250_3946" x1="19.2649" y1="16.5159" x2="21.7319" y2="16.5159" gradientUnits="userSpaceOnUse">
<stop stop-color="white"/>
<stop offset="1" stop-color="#D0BAE9"/>
</linearGradient>
<linearGradient id="paint3_linear_250_3946" x1="25.6363" y1="17.417" x2="27.6487" y2="17.417" gradientUnits="userSpaceOnUse">
<stop stop-color="white"/>
<stop offset="1" stop-color="#D0BAE9"/>
</linearGradient>
<linearGradient id="paint4_linear_250_3946" x1="20.9658" y1="21.2523" x2="22.2459" y2="21.2523" gradientUnits="userSpaceOnUse">
<stop stop-color="white"/>
<stop offset="1" stop-color="#D0BAE9"/>
</linearGradient>
<linearGradient id="paint5_linear_250_3946" x1="31.8349" y1="13.3085" x2="33.115" y2="13.3085" gradientUnits="userSpaceOnUse">
<stop stop-color="white"/>
<stop offset="1" stop-color="#D0BAE9"/>
</linearGradient>
<linearGradient id="paint6_linear_250_3946" x1="15.2622" y1="20.4917" x2="17.4041" y2="20.4917" gradientUnits="userSpaceOnUse">
<stop stop-color="white"/>
<stop offset="1" stop-color="#D0BAE9"/>
</linearGradient>
<linearGradient id="paint7_linear_250_3946" x1="13.5763" y1="24.412" x2="14.8564" y2="24.412" gradientUnits="userSpaceOnUse">
<stop stop-color="white"/>
<stop offset="1" stop-color="#D0BAE9"/>
</linearGradient>
<linearGradient id="paint8_linear_250_3946" x1="23.9297" y1="13.9486" x2="25.2099" y2="13.9486" gradientUnits="userSpaceOnUse">
<stop stop-color="white"/>
<stop offset="1" stop-color="#D0BAE9"/>
</linearGradient>
<linearGradient id="paint9_linear_250_3946" x1="11.4006" y1="-0.369105" x2="15.8992" y2="20.2744" gradientUnits="userSpaceOnUse">
<stop offset="0.1096" stop-color="#7AA5E2"/>
<stop offset="0.1498" stop-color="#749AD7"/>
<stop offset="0.3265" stop-color="#5C6FA9"/>
<stop offset="0.4837" stop-color="#4B4F88"/>
<stop offset="0.6141" stop-color="#403C73"/>
<stop offset="0.7015" stop-color="#3C356C"/>
</linearGradient>
<clipPath id="clip0_250_3946">
<rect width="157.518" height="40" fill="white"/>
</clipPath>
</defs>
</svg>
