<svg width="158" height="40" viewBox="0 0 158 40" fill="none" xmlns="http://www.w3.org/2000/svg">
<g clip-path="url(#clip0_4406_40428)">
<path d="M77.8789 17.3062C77.5291 17.3062 77.2399 17.4183 77.0112 17.6402C76.7803 17.8622 76.666 18.1559 76.666 18.5213V25.2317C76.666 25.8034 76.5068 26.3191 76.1906 26.7787C75.8723 27.2383 75.4485 27.6038 74.9172 27.8728C74.3858 28.1419 73.7782 28.2764 73.0966 28.2764C72.3837 28.2764 71.7402 28.1374 71.1685 27.8594C70.5968 27.5814 70.1461 27.1531 69.8121 26.5747C69.478 25.9962 69.3121 25.2631 69.3121 24.373V18.5191C69.3121 18.1693 69.1978 17.8801 68.9668 17.6514C68.7359 17.4205 68.4467 17.3062 68.0992 17.3062C67.7494 17.3062 67.4602 17.4205 67.2315 17.6514C67.0006 17.8824 66.8862 18.1716 66.8862 18.5191V24.373C66.8862 25.6891 67.1351 26.8011 67.6351 27.7047C68.135 28.6082 68.8166 29.2965 69.682 29.7629C70.5475 30.2314 71.5272 30.4646 72.6213 30.4646C73.6841 30.4646 74.6324 30.2337 75.4642 29.7741C75.9171 29.523 76.3162 29.2225 76.666 28.875V29.1328C76.666 29.4826 76.7803 29.7718 77.0112 30.0005C77.2422 30.2314 77.5314 30.3458 77.8789 30.3458C78.2443 30.3458 78.538 30.2314 78.76 30.0005C78.982 29.7718 79.0941 29.4804 79.0941 29.1328V18.5191C79.0941 18.1536 78.982 17.8599 78.76 17.638C78.538 17.4183 78.2443 17.3062 77.8789 17.3062Z" fill="#424867"/>
<path d="M91.8487 18.1043C90.9295 17.5259 89.8892 17.2367 88.73 17.2367C87.7929 17.2367 86.9342 17.4317 86.1472 17.8196C85.3625 18.2075 84.6921 18.7366 84.1361 19.4025V12.9746C84.1361 12.6091 84.024 12.3154 83.8021 12.0935C83.5801 11.8715 83.2864 11.7594 82.9209 11.7594C82.5712 11.7594 82.282 11.8715 82.0533 12.0935C81.8224 12.3154 81.708 12.6091 81.708 12.9746V23.826C81.7237 25.0793 82.0174 26.2048 82.5891 27.2047C83.1608 28.2047 83.9366 28.9939 84.9208 29.5723C85.9051 30.1507 87.0149 30.44 88.2525 30.44C89.5058 30.44 90.6245 30.1507 91.6088 29.5723C92.593 28.9939 93.3733 28.2047 93.954 27.2047C94.5324 26.2048 94.8216 25.0793 94.8216 23.826C94.8216 22.5727 94.5548 21.4494 94.0235 20.4585C93.4943 19.4675 92.7702 18.6828 91.8487 18.1043ZM91.9317 26.1129C91.5595 26.7944 91.055 27.3303 90.4205 27.7181C89.786 28.106 89.0641 28.3011 88.2547 28.3011C87.4611 28.3011 86.7436 28.106 86.1001 27.7181C85.4567 27.3303 84.9545 26.7944 84.589 26.1129C84.2236 25.4313 84.042 24.669 84.042 23.8282C84.042 22.9718 84.2236 22.2095 84.589 21.5436C84.9545 20.8777 85.4567 20.3508 86.1001 19.9607C86.7436 19.5729 87.4611 19.3778 88.2547 19.3778C89.0641 19.3778 89.786 19.5729 90.4205 19.9607C91.055 20.3486 91.5595 20.8777 91.9317 21.5436C92.3038 22.2095 92.4899 22.9718 92.4899 23.8282C92.4922 24.669 92.3061 25.429 91.9317 26.1129Z" fill="#424867"/>
<path d="M106.278 18.055C105.391 17.508 104.328 17.2344 103.09 17.2344C101.837 17.2344 100.725 17.5169 99.7586 18.0797C98.79 18.6424 98.0322 19.4204 97.4851 20.4114C96.9381 21.4024 96.6646 22.5503 96.6646 23.8507C96.6646 25.1353 96.9538 26.2743 97.5322 27.2653C98.1107 28.2562 98.9133 29.0342 99.9357 29.597C100.958 30.1597 102.128 30.4422 103.447 30.4422C104.175 30.4422 104.942 30.3077 105.743 30.0386C106.543 29.7696 107.213 29.4199 107.754 28.9916C108.023 28.7854 108.15 28.5387 108.135 28.254C108.119 27.9693 107.976 27.7069 107.707 27.4693C107.5 27.2944 107.258 27.2115 106.98 27.2204C106.702 27.2294 106.444 27.3191 106.207 27.4939C105.888 27.7316 105.473 27.9424 104.958 28.124C104.442 28.3056 103.938 28.3975 103.447 28.3975C102.543 28.3975 101.74 28.2002 101.043 27.8034C100.344 27.4065 99.7967 26.8684 99.4021 26.1846C99.1353 25.7272 98.9626 25.2273 98.8752 24.6847H107.924C108.242 24.6847 108.502 24.586 108.709 24.3865C108.915 24.1892 109.018 23.9381 109.018 23.6377C109.018 22.3844 108.785 21.2768 108.316 20.3172C107.846 19.3576 107.168 18.6043 106.278 18.055ZM100.77 19.8755C101.413 19.4787 102.187 19.2814 103.09 19.2814C103.884 19.2814 104.556 19.463 105.113 19.8285C105.669 20.1939 106.097 20.6894 106.397 21.3149C106.61 21.7611 106.751 22.2498 106.821 22.779H98.8976C98.9783 22.3261 99.1128 21.9001 99.3034 21.5055C99.6397 20.8172 100.126 20.2724 100.77 19.8755Z" fill="#424867"/>
<path d="M135.746 17.6514C135.277 17.342 134.569 17.1873 133.616 17.1873C132.663 17.1873 131.791 17.4093 130.997 17.8532C130.463 18.1536 130.004 18.5236 129.616 18.963V18.5191C129.616 18.1222 129.517 17.8263 129.318 17.6268C129.118 17.4295 128.822 17.3286 128.425 17.3286C128.044 17.3286 127.751 17.4317 127.544 17.638C127.338 17.8442 127.235 18.1379 127.235 18.5191V29.1575C127.235 29.5543 127.338 29.8525 127.544 30.0498C127.751 30.2494 128.044 30.348 128.425 30.348C128.822 30.348 129.118 30.2449 129.318 30.0386C129.515 29.8323 129.616 29.5386 129.616 29.1575V22.2095C129.616 21.4808 129.849 20.8777 130.318 20.4001C130.786 19.9248 131.425 19.5997 132.235 19.4249C133.044 19.25 133.956 19.2657 134.972 19.4719C135.178 19.519 135.369 19.528 135.544 19.4966C135.719 19.4652 135.873 19.389 136.008 19.2702C136.142 19.1513 136.234 18.9809 136.281 18.759C136.394 18.3307 136.214 17.9608 135.746 17.6514Z" fill="#424867"/>
<path d="M145.94 23.5883C145.25 23.2229 144.31 22.9224 143.12 22.6848C142.263 22.5099 141.613 22.3328 141.169 22.1489C140.725 21.9673 140.427 21.7611 140.277 21.5301C140.127 21.3015 140.05 21.0414 140.05 20.7566C140.05 20.297 140.293 19.9473 140.777 19.7096C141.261 19.472 141.851 19.3531 142.55 19.3531C143.153 19.3531 143.685 19.4249 144.144 19.5661C144.604 19.7096 145.032 19.9697 145.429 20.3508C145.667 20.5728 145.96 20.7163 146.31 20.7791C146.66 20.8418 146.96 20.788 147.214 20.6132C147.467 20.4226 147.602 20.1894 147.617 19.9114C147.633 19.6334 147.53 19.3688 147.308 19.1132C146.833 18.5258 146.189 18.0662 145.38 17.7321C144.57 17.3981 143.642 17.2322 142.595 17.2322C141.786 17.2322 141.008 17.3622 140.263 17.6245C139.517 17.8868 138.907 18.2837 138.432 18.815C137.956 19.3464 137.719 20.0168 137.719 20.8261C137.719 21.7454 138.08 22.5234 138.802 23.1579C139.524 23.7923 140.685 24.2677 142.288 24.586C143.526 24.808 144.378 25.095 144.846 25.4425C145.315 25.7922 145.539 26.2048 145.525 26.6801C145.51 27.1554 145.259 27.5455 144.777 27.8459C144.292 28.1486 143.591 28.2988 142.671 28.2988C141.94 28.2988 141.279 28.1688 140.685 27.9065C140.091 27.6442 139.658 27.3639 139.389 27.0612C139.167 26.8236 138.9 26.6846 138.591 26.6442C138.281 26.6038 137.968 26.7115 137.651 26.9648C137.382 27.1711 137.228 27.4379 137.187 27.763C137.147 28.0881 137.248 28.3773 137.486 28.6306C138.008 29.153 138.743 29.5857 139.687 29.9265C140.631 30.2673 141.658 30.4377 142.77 30.4377C143.896 30.4377 144.837 30.2628 145.59 29.9131C146.344 29.5633 146.916 29.097 147.303 28.5096C147.691 27.9222 147.886 27.2652 147.886 26.5343C147.886 25.8999 147.736 25.3416 147.433 24.8573C147.126 24.3798 146.631 23.9538 145.94 23.5883Z" fill="#424867"/>
<path d="M157.219 28.3011C157.022 28.0791 156.78 27.967 156.493 27.967H155.684C155.175 27.967 154.747 27.7518 154.399 27.3235C154.049 26.8953 153.877 26.364 153.877 25.7295V19.8531H155.899C156.233 19.8531 156.502 19.7589 156.708 19.5684C156.915 19.3778 157.018 19.1401 157.018 18.8554C157.018 18.5393 156.915 18.2837 156.708 18.0931C156.502 17.9025 156.233 17.8084 155.899 17.8084H153.877V14.3781C153.877 14.0283 153.765 13.7436 153.543 13.5216C153.321 13.2997 153.034 13.1876 152.686 13.1876C152.336 13.1876 152.052 13.2997 151.83 13.5216C151.608 13.7436 151.496 14.0306 151.496 14.3781V17.8061H150.401C150.067 17.8061 149.798 17.9003 149.592 18.0909C149.386 18.2814 149.283 18.5348 149.283 18.8532C149.283 19.1379 149.386 19.3778 149.592 19.5661C149.798 19.7567 150.067 19.8509 150.401 19.8509H151.496V25.7295C151.496 26.6016 151.677 27.3886 152.043 28.0858C152.408 28.7853 152.908 29.3346 153.543 29.7404C154.177 30.144 154.89 30.348 155.684 30.348H156.112C156.524 30.348 156.861 30.2382 157.123 30.014C157.385 29.792 157.515 29.5073 157.515 29.1575C157.518 28.81 157.419 28.523 157.219 28.3011Z" fill="#424867"/>
<path d="M122.632 11.3469C122.123 11.3469 121.724 11.4747 121.446 11.728C121.168 11.9791 121.026 12.3558 121.026 12.8445C121.026 13.3154 121.168 13.6875 121.446 13.9476C121.724 14.2099 122.123 14.3422 122.632 14.3422C123.156 14.3422 123.56 14.2099 123.831 13.9499C124.1 13.6898 124.237 13.3176 124.237 12.8468C124.237 12.358 124.1 11.9814 123.831 11.7302C123.56 11.4747 123.156 11.3469 122.632 11.3469Z" fill="#424867"/>
<path d="M122.576 17.3667H115.072V16.7031C115.072 15.6897 115.307 14.9094 115.771 14.3803C116.235 13.8534 116.984 13.5485 118 13.4745L118.728 13.4207C118.914 13.405 119.071 13.3221 119.199 13.1786C119.329 13.0329 119.421 12.8512 119.473 12.6427C119.524 12.4365 119.515 12.2302 119.448 12.0329C119.379 11.8379 119.248 11.6809 119.06 11.5688C118.872 11.4567 118.616 11.4186 118.302 11.4522L117.491 11.506C115.836 11.6652 114.565 12.2078 113.713 13.1136C112.861 14.0193 112.428 15.3534 112.428 17.0797V17.3644H110.875C110.545 17.3644 110.283 17.4519 110.092 17.6245C109.904 17.7949 109.81 18.0483 109.81 18.3756C109.81 18.6872 109.906 18.9361 110.094 19.1155C110.283 19.2948 110.545 19.3868 110.875 19.3868H112.428V29.3077C112.428 29.727 112.547 30.0566 112.78 30.2897C113.013 30.5229 113.345 30.6417 113.762 30.6417C114.643 30.6417 115.069 30.2045 115.069 29.3055V19.389H121.266V29.1754C121.266 29.6306 121.381 29.9893 121.607 30.2404C121.831 30.4915 122.156 30.6171 122.576 30.6171C123.029 30.6171 123.367 30.4893 123.582 30.2404C123.8 29.9893 123.91 29.6306 123.91 29.1732V18.7837C123.91 18.3465 123.795 17.9967 123.569 17.7456C123.347 17.4945 123.013 17.3667 122.576 17.3667Z" fill="#424867"/>
<path d="M64.3437 28.5477L59.4381 22.5032L64.1083 18.3128C64.3571 18.0998 64.4894 17.8398 64.4984 17.5438C64.5073 17.2501 64.3953 16.9743 64.1666 16.7277C63.9536 16.4789 63.6935 16.3466 63.3975 16.3376C63.1016 16.3286 62.8326 16.4407 62.6061 16.6694L56.324 22.2857V11.9029C56.324 11.5509 56.2119 11.2594 55.9876 11.0352C55.7657 10.8133 55.472 10.6989 55.12 10.6989C54.7657 10.6989 54.4743 10.811 54.2523 11.0352C54.0304 11.2572 53.916 11.5486 53.916 11.9029V29.0992C53.916 29.4535 54.0281 29.7449 54.2523 29.9669C54.4743 30.1889 54.7657 30.3032 55.12 30.3032C55.472 30.3032 55.7657 30.1911 55.9876 29.9669C56.2096 29.7449 56.324 29.4512 56.324 29.0992V25.2967L57.705 24.0569L62.5209 29.996C62.7339 30.2628 63.0007 30.4108 63.3124 30.4377C63.346 30.44 63.3796 30.4422 63.4132 30.4422C63.6868 30.4422 63.9446 30.3458 64.1823 30.1552C64.4468 29.9265 64.5948 29.662 64.6217 29.366C64.6508 29.0723 64.5567 28.7966 64.3437 28.5477Z" fill="#424867"/>
<path d="M43.0379 12.0061C39.8453 13.9723 36.4643 14.8579 36.4643 14.8579C36.4643 14.8579 36.8589 11.9792 34.3344 10.0353C28.7361 5.71942 22.1512 9.7304 16.0484 15.2817C10.9164 19.9496 6.29785 30.2158 3.99305 35.3187C2.29359 39.0853 0 40 0 40C0 40 2.44829 39.5561 5.09388 36.906C10.9904 30.996 15.8399 24.7071 19.9226 25.7071C25.4784 27.068 29.4087 27.2608 32.5027 26.6958C41.1053 23.3911 41.7331 16.721 43.0379 12.0061Z" fill="url(#paint0_linear_4406_40428)"/>
<path d="M32.5923 26.6779C32.6394 26.6689 32.6842 26.66 32.729 26.651C32.6842 26.6622 32.6394 26.6712 32.5923 26.6779Z" fill="url(#paint1_linear_4406_40428)"/>
<path d="M21.7319 16.5147L20.9359 16.9519L20.501 17.7501L20.0638 16.9519L19.2656 16.517L20.0615 16.0798L20.4965 15.2816L20.9337 16.0798L21.7319 16.5147Z" fill="url(#paint2_linear_4406_40428)"/>
<path d="M27.6486 17.416L26.9984 17.7725L26.6442 18.4227L26.2877 17.7725L25.6353 17.4183L26.2854 17.0618L26.6419 16.4116L26.9984 17.0618L27.6486 17.416Z" fill="url(#paint3_linear_4406_40428)"/>
<path d="M22.2455 21.2521L21.833 21.4786L21.6066 21.8934L21.3801 21.4786L20.9653 21.2521L21.3801 21.0257L21.6043 20.6132L21.833 21.0257L22.2455 21.2521Z" fill="url(#paint4_linear_4406_40428)"/>
<path d="M33.1147 13.3086L32.7021 13.5351L32.4757 13.9476L32.2492 13.5351L31.8345 13.3086L32.2492 13.0822L32.4734 12.6674L32.6999 13.0822L33.1147 13.3086Z" fill="url(#paint5_linear_4406_40428)"/>
<path d="M17.4051 20.4899L16.7123 20.8688L16.3356 21.5615L15.9545 20.871L15.2617 20.4921L15.9545 20.1132L16.3312 19.4204L16.7123 20.1132L17.4051 20.4899Z" fill="url(#paint6_linear_4406_40428)"/>
<path d="M14.8559 24.4112L14.4433 24.6376L14.2169 25.0524L13.9905 24.6376L13.5757 24.4134L13.9905 24.187L14.2169 23.7722L14.4433 24.1848L14.8559 24.4112Z" fill="url(#paint7_linear_4406_40428)"/>
<path d="M25.2094 13.9476L24.7969 14.1741L24.5704 14.5889L24.344 14.1741L23.9292 13.9499L24.344 13.7234L24.5682 13.3087L24.7969 13.7212L25.2094 13.9476Z" fill="url(#paint8_linear_4406_40428)"/>
<path d="M16.0487 15.2816C17.6091 13.8624 19.1987 12.5464 20.7973 11.441C17.4028 9.24386 14.5532 4.13652 13.7551 1.31381C12.0646 -4.65895 2.95522 11.0397 10.8315 21.9292C12.4502 19.3285 14.2169 16.9497 16.0487 15.2816Z" fill="url(#paint9_linear_4406_40428)"/>
<path d="M44.6793 8.37396C49.522 2.60971 47.9975 23.8731 32.4961 26.698C43.7443 22.3821 41.3678 12.3154 44.6793 8.37396Z" fill="#3C356C"/>
<path d="M5.11836 27.985L7.05548 28.7876C8.00609 26.8774 9.07106 24.8641 10.219 22.9382C7.88951 24.4784 5.90083 25.9851 4.90986 26.8505C4.52871 27.1846 4.64306 27.8079 5.11836 27.985Z" fill="#3C356C"/>
<path d="M19.9223 25.7071C17.3619 25.0793 14.5011 27.3191 11.2681 30.5342L18.4403 33.5048C18.7407 33.617 19.0793 33.5026 19.2474 33.2291C19.8909 32.1888 21.3684 29.2854 22.476 26.2743C21.6643 26.1129 20.8146 25.9246 19.9223 25.7071Z" fill="#3C356C"/>
</g>
<defs>
<linearGradient id="paint0_linear_4406_40428" x1="-0.375987" y1="32.6602" x2="37.972" y2="13.2598" gradientUnits="userSpaceOnUse">
<stop stop-color="#D0BAE9"/>
<stop offset="0.0777" stop-color="#B3A0D1"/>
<stop offset="0.2631" stop-color="#73679B"/>
<stop offset="0.3984" stop-color="#4B4379"/>
<stop offset="0.4684" stop-color="#3C356C"/>
<stop offset="0.6486" stop-color="#3C356C"/>
<stop offset="0.72" stop-color="#3E3870"/>
<stop offset="0.7837" stop-color="#44437A"/>
<stop offset="0.8446" stop-color="#4D548D"/>
<stop offset="0.9037" stop-color="#5B6CA6"/>
<stop offset="0.9609" stop-color="#6C8BC7"/>
<stop offset="1" stop-color="#7AA5E2"/>
</linearGradient>
<linearGradient id="paint1_linear_4406_40428" x1="32.6084" y1="26.6924" x2="32.7097" y2="26.6411" gradientUnits="userSpaceOnUse">
<stop stop-color="#D0BAE9"/>
<stop offset="0.0777" stop-color="#B3A0D1"/>
<stop offset="0.2631" stop-color="#73679B"/>
<stop offset="0.3984" stop-color="#4B4379"/>
<stop offset="0.4684" stop-color="#3C356C"/>
<stop offset="0.6486" stop-color="#3C356C"/>
<stop offset="0.72" stop-color="#3E3870"/>
<stop offset="0.7837" stop-color="#44437A"/>
<stop offset="0.8446" stop-color="#4D548D"/>
<stop offset="0.9037" stop-color="#5B6CA6"/>
<stop offset="0.9609" stop-color="#6C8BC7"/>
<stop offset="1" stop-color="#7AA5E2"/>
</linearGradient>
<linearGradient id="paint2_linear_4406_40428" x1="19.2649" y1="16.5158" x2="21.7319" y2="16.5158" gradientUnits="userSpaceOnUse">
<stop stop-color="white"/>
<stop offset="1" stop-color="#D0BAE9"/>
</linearGradient>
<linearGradient id="paint3_linear_4406_40428" x1="25.6363" y1="17.417" x2="27.6487" y2="17.417" gradientUnits="userSpaceOnUse">
<stop stop-color="white"/>
<stop offset="1" stop-color="#D0BAE9"/>
</linearGradient>
<linearGradient id="paint4_linear_4406_40428" x1="20.966" y1="21.2522" x2="22.2462" y2="21.2522" gradientUnits="userSpaceOnUse">
<stop stop-color="white"/>
<stop offset="1" stop-color="#D0BAE9"/>
</linearGradient>
<linearGradient id="paint5_linear_4406_40428" x1="31.8349" y1="13.3084" x2="33.115" y2="13.3084" gradientUnits="userSpaceOnUse">
<stop stop-color="white"/>
<stop offset="1" stop-color="#D0BAE9"/>
</linearGradient>
<linearGradient id="paint6_linear_4406_40428" x1="15.2624" y1="20.4916" x2="17.4044" y2="20.4916" gradientUnits="userSpaceOnUse">
<stop stop-color="white"/>
<stop offset="1" stop-color="#D0BAE9"/>
</linearGradient>
<linearGradient id="paint7_linear_4406_40428" x1="13.5765" y1="24.412" x2="14.8567" y2="24.412" gradientUnits="userSpaceOnUse">
<stop stop-color="white"/>
<stop offset="1" stop-color="#D0BAE9"/>
</linearGradient>
<linearGradient id="paint8_linear_4406_40428" x1="23.9297" y1="13.9485" x2="25.2099" y2="13.9485" gradientUnits="userSpaceOnUse">
<stop stop-color="white"/>
<stop offset="1" stop-color="#D0BAE9"/>
</linearGradient>
<linearGradient id="paint9_linear_4406_40428" x1="11.4009" y1="-0.369166" x2="15.8994" y2="20.2743" gradientUnits="userSpaceOnUse">
<stop offset="0.1096" stop-color="#7AA5E2"/>
<stop offset="0.1498" stop-color="#749AD7"/>
<stop offset="0.3265" stop-color="#5C6FA9"/>
<stop offset="0.4837" stop-color="#4B4F88"/>
<stop offset="0.6141" stop-color="#403C73"/>
<stop offset="0.7015" stop-color="#3C356C"/>
</linearGradient>
<clipPath id="clip0_4406_40428">
<rect width="157.518" height="40" fill="white"/>
</clipPath>
</defs>
</svg>
