<svg width="96" height="96" viewBox="0 0 96 96" fill="none" xmlns="http://www.w3.org/2000/svg">
<circle cx="48" cy="48" r="48" fill="#818CF8"/>
<path d="M35.852 37.973V27.8116L26.9731 22.6816V32.843L35.852 37.973ZM37.825 37.973L46.7039 32.843V22.6487L37.825 27.8063V37.973ZM36.8385 26.1345L45.5858 21.0373L36.8385 15.9731L28.0583 21.0373L36.8385 26.1345ZM25.9865 34.553C25.6741 34.3682 25.4316 34.1248 25.259 33.8225C25.0863 33.5202 25 33.1937 25 32.843V21.6621C25 21.3114 25.0863 20.9849 25.259 20.6826C25.4316 20.3804 25.6741 20.1369 25.9865 19.9521L35.852 14.2631C36.1661 14.0877 36.4967 14 36.8439 14C37.1911 14 37.5181 14.0877 37.825 14.2631L47.6905 19.9521C48.0029 20.1369 48.2454 20.3804 48.418 20.6826C48.5907 20.9849 48.677 21.3114 48.677 21.6621V32.843C48.677 33.1937 48.5907 33.5202 48.418 33.8225C48.2454 34.1248 48.0029 34.3682 47.6905 34.553L37.825 40.242C37.5109 40.4174 37.1803 40.5051 36.8331 40.5051C36.4859 40.5051 36.1589 40.4174 35.852 40.242L25.9865 34.553Z" fill="white"/>
<path d="M46.7484 56.4681V46.3067L37.8696 41.1767V51.3381L46.7484 56.4681ZM48.7215 56.4681L57.6004 51.3381V41.1438L48.7215 46.3014V56.4681ZM47.735 44.6296L56.4823 39.5325L47.735 34.4682L38.9548 39.5325L47.735 44.6296ZM36.883 53.0481C36.5706 52.8634 36.3281 52.6199 36.1555 52.3176C35.9828 52.0154 35.8965 51.6888 35.8965 51.3381V40.1573C35.8965 39.8065 35.9828 39.48 36.1555 39.1777C36.3281 38.8755 36.5706 38.632 36.883 38.4473L46.7484 32.7582C47.0626 32.5828 47.3932 32.4951 47.7404 32.4951C48.0876 32.4951 48.4146 32.5828 48.7215 32.7582L58.587 38.4473C58.8994 38.632 59.1419 38.8755 59.3145 39.1777C59.4872 39.48 59.5735 39.8065 59.5735 40.1573V51.3381C59.5735 51.6888 59.4872 52.0154 59.3145 52.3176C59.1419 52.6199 58.8994 52.8634 58.587 53.0481L48.7215 58.7371C48.4074 58.9125 48.0768 59.0002 47.7296 59.0002C47.3824 59.0002 47.0554 58.9125 46.7484 58.7371L36.883 53.0481Z" fill="white"/>
<path d="M57.6451 37.973V27.8116L48.7662 22.6816V32.843L57.6451 37.973ZM59.6181 37.973L68.497 32.843V22.6487L59.6181 27.8063V37.973ZM58.6316 26.1345L67.3789 21.0373L58.6316 15.9731L49.8514 21.0373L58.6316 26.1345ZM47.7796 34.553C47.4672 34.3682 47.2247 34.1248 47.0521 33.8225C46.8794 33.5202 46.7931 33.1937 46.7931 32.843V21.6621C46.7931 21.3114 46.8794 20.9849 47.0521 20.6826C47.2247 20.3804 47.4672 20.1369 47.7796 19.9521L57.6451 14.2631C57.9592 14.0877 58.2898 14 58.637 14C58.9842 14 59.3112 14.0877 59.6181 14.2631L69.4836 19.9521C69.796 20.1369 70.0385 20.3804 70.2111 20.6826C70.3838 20.9849 70.4701 21.3114 70.4701 21.6621V32.843C70.4701 33.1937 70.3838 33.5202 70.2111 33.8225C70.0385 34.1248 69.796 34.3682 69.4836 34.553L59.6181 40.242C59.304 40.4174 58.9734 40.5051 58.6262 40.5051C58.279 40.5051 57.952 40.4174 57.6451 40.242L47.7796 34.553Z" fill="white"/>
<path d="M32.8379 75.2188L34.8477 68.4688H36.8047L33.834 77H32.5449L32.8379 75.2188ZM30.9863 68.4688L32.9902 75.2188L33.2949 77H31.9941L29.041 68.4688H30.9863ZM39.6773 70.6602V77H37.984V70.6602H39.6773ZM37.8785 69.0078C37.8785 68.7617 37.9645 68.5586 38.1363 68.3984C38.3082 68.2383 38.5387 68.1582 38.8277 68.1582C39.1129 68.1582 39.3414 68.2383 39.5133 68.3984C39.6891 68.5586 39.777 68.7617 39.777 69.0078C39.777 69.2539 39.6891 69.457 39.5133 69.6172C39.3414 69.7773 39.1129 69.8574 38.8277 69.8574C38.5387 69.8574 38.3082 69.7773 38.1363 69.6172C37.9645 69.457 37.8785 69.2539 37.8785 69.0078ZM43.1594 72.043V77H41.4719V70.6602H43.0598L43.1594 72.043ZM45.0695 70.6191L45.0402 72.1836C44.9582 72.1719 44.8586 72.1621 44.7414 72.1543C44.6281 72.1426 44.5246 72.1367 44.4309 72.1367C44.1926 72.1367 43.9855 72.168 43.8098 72.2305C43.6379 72.2891 43.4934 72.377 43.3762 72.4941C43.2629 72.6113 43.177 72.7539 43.1184 72.9219C43.0637 73.0898 43.0324 73.2812 43.0246 73.4961L42.6848 73.3906C42.6848 72.9805 42.7258 72.6035 42.8078 72.2598C42.8898 71.9121 43.009 71.6094 43.1652 71.3516C43.3254 71.0938 43.5207 70.8945 43.7512 70.7539C43.9816 70.6133 44.2453 70.543 44.5422 70.543C44.6359 70.543 44.7316 70.5508 44.8293 70.5664C44.927 70.5781 45.007 70.5957 45.0695 70.6191ZM49.6648 70.6602V71.8555H45.9734V70.6602H49.6648ZM46.8875 69.0957H48.575V75.0898C48.575 75.2734 48.5984 75.4141 48.6453 75.5117C48.6961 75.6094 48.7703 75.6777 48.868 75.7168C48.9656 75.752 49.0887 75.7695 49.2371 75.7695C49.3426 75.7695 49.4363 75.7656 49.5184 75.7578C49.6043 75.7461 49.6766 75.7344 49.7352 75.7227L49.741 76.9648C49.5965 77.0117 49.4402 77.0488 49.2723 77.0762C49.1043 77.1035 48.9188 77.1172 48.7156 77.1172C48.3445 77.1172 48.0203 77.0566 47.743 76.9355C47.4695 76.8105 47.2586 76.6113 47.1102 76.3379C46.9617 76.0645 46.8875 75.7051 46.8875 75.2598V69.0957ZM54.7758 75.4824V70.6602H56.4633V77H54.8754L54.7758 75.4824ZM54.9633 74.1816L55.4613 74.1699C55.4613 74.5918 55.4125 74.9844 55.3148 75.3477C55.2172 75.707 55.0707 76.0195 54.8754 76.2852C54.6801 76.5469 54.434 76.752 54.1371 76.9004C53.8402 77.0449 53.4906 77.1172 53.0883 77.1172C52.7797 77.1172 52.4945 77.0742 52.2328 76.9883C51.975 76.8984 51.7523 76.7598 51.5648 76.5723C51.3813 76.3809 51.2367 76.1367 51.1313 75.8398C51.0297 75.5391 50.9789 75.1777 50.9789 74.7559V70.6602H52.6664V74.7676C52.6664 74.9551 52.6879 75.1133 52.7309 75.2422C52.7777 75.3711 52.8422 75.4766 52.9242 75.5586C53.0063 75.6406 53.102 75.6992 53.2113 75.7344C53.3246 75.7695 53.4496 75.7871 53.5863 75.7871C53.934 75.7871 54.2074 75.7168 54.4066 75.5762C54.6098 75.4355 54.7523 75.2441 54.8344 75.002C54.9203 74.7559 54.9633 74.4824 54.9633 74.1816ZM61.5742 75.5703V72.7461C61.5742 72.543 61.541 72.3691 61.4746 72.2246C61.4082 72.0762 61.3047 71.9609 61.1641 71.8789C61.0273 71.7969 60.8496 71.7559 60.6309 71.7559C60.4434 71.7559 60.2812 71.7891 60.1445 71.8555C60.0078 71.918 59.9023 72.0098 59.8281 72.1309C59.7539 72.248 59.7168 72.3867 59.7168 72.5469H58.0293C58.0293 72.2773 58.0918 72.0215 58.2168 71.7793C58.3418 71.5371 58.5234 71.3242 58.7617 71.1406C59 70.9531 59.2832 70.8066 59.6113 70.7012C59.9434 70.5957 60.3145 70.543 60.7246 70.543C61.2168 70.543 61.6543 70.625 62.0371 70.7891C62.4199 70.9531 62.7207 71.1992 62.9395 71.5273C63.1621 71.8555 63.2734 72.2656 63.2734 72.7578V75.4707C63.2734 75.8184 63.2949 76.1035 63.3379 76.3262C63.3809 76.5449 63.4434 76.7363 63.5254 76.9004V77H61.8203C61.7383 76.8281 61.6758 76.6133 61.6328 76.3555C61.5938 76.0938 61.5742 75.832 61.5742 75.5703ZM61.7969 73.1387L61.8086 74.0938H60.8652C60.6426 74.0938 60.4492 74.1191 60.2852 74.1699C60.1211 74.2207 59.9863 74.293 59.8809 74.3867C59.7754 74.4766 59.6973 74.582 59.6465 74.7031C59.5996 74.8242 59.5762 74.957 59.5762 75.1016C59.5762 75.2461 59.6094 75.377 59.6758 75.4941C59.7422 75.6074 59.8379 75.6973 59.9629 75.7637C60.0879 75.8262 60.2344 75.8574 60.4023 75.8574C60.6562 75.8574 60.877 75.8066 61.0645 75.7051C61.252 75.6035 61.3965 75.4785 61.498 75.3301C61.6035 75.1816 61.6582 75.041 61.6621 74.9082L62.1074 75.623C62.0449 75.7832 61.959 75.9492 61.8496 76.1211C61.7441 76.293 61.6094 76.4551 61.4453 76.6074C61.2812 76.7559 61.084 76.8789 60.8535 76.9766C60.623 77.0703 60.3496 77.1172 60.0332 77.1172C59.6309 77.1172 59.2656 77.0371 58.9375 76.877C58.6133 76.7129 58.3555 76.4883 58.1641 76.2031C57.9766 75.9141 57.8828 75.5859 57.8828 75.2188C57.8828 74.8867 57.9453 74.5918 58.0703 74.334C58.1953 74.0762 58.3789 73.8594 58.6211 73.6836C58.8672 73.5039 59.1738 73.3691 59.541 73.2793C59.9082 73.1855 60.334 73.1387 60.8184 73.1387H61.7969ZM66.7555 68V77H65.0621V68H66.7555Z" fill="white"/>
</svg>
