<svg width="168" height="40" viewBox="0 0 168 40" fill="none" xmlns="http://www.w3.org/2000/svg">
<rect width="168" height="40" fill="#F5F5F5"/>
<g clip-path="url(#clip0_8_679)">
<rect width="1440" height="900" transform="translate(-1187 -606)" fill="#F8FAFC"/>
<rect x="-44.5" y="-23.5" width="257" height="87" rx="7.5" fill="white"/>
<rect x="-44.5" y="-23.5" width="257" height="87" rx="7.5" stroke="#E2E8F0"/>
<g clip-path="url(#clip1_8_679)">
<path d="M167.5 29.0387L163.293 21.7839C164.679 21.1928 165.819 20.1413 166.519 18.8071C167.218 17.4729 167.436 15.9379 167.135 14.4617C166.834 12.9854 166.032 11.6586 164.865 10.7055C163.698 9.75236 162.237 9.2315 160.731 9.23097H151.5C151.348 9.23033 151.198 9.25974 151.058 9.3175C150.917 9.37526 150.79 9.46023 150.683 9.5675C150.575 9.67477 150.49 9.80223 150.433 9.9425C150.375 10.0828 150.346 10.2331 150.346 10.3848V29.6156C150.346 29.9216 150.468 30.2151 150.684 30.4315C150.901 30.6479 151.194 30.7694 151.5 30.7694H152.269C152.575 30.7694 152.869 30.6479 153.085 30.4315C153.302 30.2151 153.423 29.9216 153.423 29.6156V22.3079H160.154L164.731 30.1925C164.832 30.368 164.978 30.5138 165.153 30.615C165.329 30.7163 165.528 30.7696 165.731 30.7694H166.514C166.717 30.7696 166.916 30.7163 167.092 30.6151C167.267 30.5139 167.413 30.3683 167.514 30.1928C167.616 30.0174 167.669 29.8184 167.669 29.6158C167.669 29.4132 167.616 29.2141 167.514 29.0387H167.5ZM153.423 12.3079H160.731C161.649 12.3079 162.529 12.6726 163.178 13.3218C163.828 13.9709 164.192 14.8514 164.192 15.7694C164.192 16.6875 163.828 17.5679 163.178 18.2171C162.529 18.8663 161.649 19.231 160.731 19.231H153.423V12.3079Z" fill="#142149"/>
<path d="M143.808 9.23097H127.654C127.502 9.23033 127.352 9.25974 127.212 9.3175C127.071 9.37526 126.944 9.46023 126.837 9.5675C126.729 9.67477 126.644 9.80223 126.587 9.9425C126.529 10.0828 126.499 10.2331 126.5 10.3848V11.154C126.499 11.3057 126.529 11.4561 126.587 11.5964C126.644 11.7366 126.729 11.8641 126.837 11.9714C126.944 12.0786 127.071 12.1636 127.212 12.2214C127.352 12.2791 127.502 12.3085 127.654 12.3079H134.192V29.6156C134.192 29.9216 134.314 30.2151 134.53 30.4315C134.747 30.6479 135.04 30.7694 135.346 30.7694H136.115C136.421 30.7682 136.714 30.6462 136.93 30.4301C137.146 30.214 137.268 29.9212 137.269 29.6156V12.3079H143.808C144.114 12.3079 144.407 12.1863 144.624 11.9699C144.84 11.7535 144.962 11.4601 144.962 11.154V10.3848C144.962 10.2333 144.932 10.0832 144.874 9.94326C144.816 9.80326 144.731 9.67607 144.624 9.56892C144.516 9.46178 144.389 9.37678 144.249 9.3188C144.109 9.26081 143.959 9.23097 143.808 9.23097Z" fill="#142149"/>
<path d="M126.885 27.6925H116.5V10.3848C116.501 10.2331 116.471 10.0828 116.413 9.9425C116.356 9.80223 116.271 9.67477 116.163 9.5675C116.056 9.46023 115.929 9.37526 115.788 9.3175C115.648 9.25974 115.498 9.23033 115.346 9.23097H114.577C114.425 9.23033 114.275 9.25974 114.135 9.3175C113.994 9.37526 113.867 9.46023 113.76 9.5675C113.652 9.67477 113.567 9.80223 113.51 9.9425C113.452 10.0828 113.422 10.2331 113.423 10.3848V29.6156C113.423 29.9216 113.545 30.2151 113.761 30.4315C113.977 30.6479 114.271 30.7694 114.577 30.7694H126.885C127.191 30.7694 127.484 30.6479 127.701 30.4315C127.917 30.2151 128.038 29.9216 128.038 29.6156V28.8464C128.039 28.6946 128.01 28.5443 127.952 28.404C127.894 28.2638 127.809 28.1363 127.702 28.029C127.595 27.9218 127.467 27.8368 127.327 27.779C127.187 27.7213 127.036 27.6919 126.885 27.6925Z" fill="#142149"/>
<path d="M107.269 10.3848C107.27 10.2331 107.24 10.0828 107.183 9.9425C107.125 9.80223 107.04 9.67477 106.933 9.5675C106.825 9.46023 106.698 9.37526 106.558 9.3175C106.417 9.25974 106.267 9.23033 106.115 9.23097H105.346C105.194 9.23033 105.044 9.25974 104.904 9.3175C104.764 9.37526 104.636 9.46023 104.529 9.5675C104.422 9.67477 104.337 9.80223 104.279 9.9425C104.221 10.0828 104.192 10.2331 104.192 10.3848V22.3079C104.192 23.838 103.584 25.3054 102.503 26.3874C101.421 27.4693 99.9532 28.0771 98.4231 28.0771C96.893 28.0771 95.4255 27.4693 94.3436 26.3874C93.2617 25.3054 92.6538 23.838 92.6538 22.3079V10.3848C92.6538 10.0788 92.5323 9.78531 92.3159 9.56892C92.0995 9.35253 91.806 9.23097 91.5 9.23097H90.7308C90.5791 9.23033 90.4287 9.25974 90.2885 9.3175C90.1482 9.37526 90.0207 9.46023 89.9134 9.5675C89.8062 9.67477 89.7212 9.80223 89.6634 9.9425C89.6057 10.0828 89.5763 10.2331 89.5769 10.3848V22.3079C89.5769 24.654 90.5089 26.9041 92.1679 28.5631C93.8269 30.222 96.0769 31.154 98.4231 31.154C100.769 31.154 103.019 30.222 104.678 28.5631C106.337 26.9041 107.269 24.654 107.269 22.3079V10.3848Z" fill="#142149"/>
<path d="M83.8077 9.23098H83.0817C82.8506 9.22955 82.6245 9.29815 82.4331 9.42773C82.2417 9.55731 82.0941 9.74181 82.0096 9.95694L75.3461 26.6108L68.6827 9.95694C68.5982 9.74181 68.4506 9.55731 68.2592 9.42773C68.0678 9.29815 67.8417 9.22955 67.6106 9.23098H66.8846C66.6961 9.23089 66.5104 9.27701 66.3438 9.3653C66.1772 9.45359 66.0347 9.58136 65.929 9.73743C65.8232 9.89351 65.7572 10.0731 65.7369 10.2606C65.7166 10.448 65.7426 10.6376 65.8125 10.8127L73.5048 30.0435C73.5898 30.2582 73.7376 30.4423 73.9289 30.5718C74.1201 30.7013 74.346 30.7702 74.5769 30.7694H76.1154C76.3463 30.7702 76.5722 30.7013 76.7634 30.5718C76.9547 30.4423 77.1025 30.2582 77.1875 30.0435L84.8798 10.8127C84.9497 10.6376 84.9757 10.448 84.9554 10.2606C84.9351 10.0731 84.8691 9.89351 84.7633 9.73743C84.6576 9.58136 84.5151 9.45359 84.3485 9.3653C84.1819 9.27701 83.9962 9.23089 83.8077 9.23098Z" fill="#142149"/>
<path d="M16.428 1.07693C16.2208 0.746543 15.9328 0.474334 15.5914 0.285932C15.2499 0.0975299 14.8661 -0.000866961 14.4761 5.75507e-06H2.65396C2.24127 3.54005e-05 1.83614 0.110734 1.48078 0.320568C1.12541 0.530401 0.83282 0.831692 0.633484 1.19305C0.434149 1.55441 0.335363 1.96261 0.347421 2.37512C0.359478 2.78764 0.481937 3.18937 0.702039 3.53847L3.10589 7.38462L18.8318 4.92308L16.428 1.07693Z" fill="#C9F4FF"/>
<path d="M18.8509 4.92312C18.6436 4.59273 18.3557 4.32053 18.0142 4.13212C17.6727 3.94372 17.2889 3.84532 16.8989 3.8462H5.07681C4.66412 3.84623 4.25899 3.95693 3.90363 4.16676C3.54826 4.37659 3.25567 4.67788 3.05634 5.03924C2.857 5.4006 2.75821 5.8088 2.77027 6.22131C2.78233 6.63383 2.90479 7.03556 3.12489 7.38466L6.51912 12.7693L22.2451 10.3077L18.8509 4.92312Z" fill="#51B9FF"/>
<path d="M6.5191 12.7694C6.28792 12.4004 6.16468 11.9741 6.16333 11.5387C6.16333 10.9266 6.40646 10.3396 6.83924 9.90687C7.27201 9.47409 7.85898 9.23096 8.47102 9.23096H20.2931C20.6831 9.23009 21.067 9.32849 21.4084 9.51689C21.7499 9.70529 22.0378 9.9775 22.2451 10.3079L32.822 27.0867C33.0543 27.4552 33.1776 27.8819 33.1776 28.3175C33.1776 28.7531 33.0543 29.1798 32.822 29.5483L26.9133 38.9425C26.7054 39.2722 26.4173 39.5439 26.076 39.7321C25.7347 39.9204 25.3512 40.0192 24.9614 40.0192C24.5716 40.0192 24.1881 39.9204 23.8468 39.7321C23.5055 39.5439 23.2174 39.2722 23.0095 38.9425L6.5191 12.7694Z" fill="#007BFC"/>
<path d="M36.3316 17.7885C36.5388 18.1214 36.8274 18.3959 37.1702 18.5863C37.513 18.7767 37.8986 18.8766 38.2907 18.8766C38.6828 18.8766 39.0685 18.7767 39.4112 18.5863C39.754 18.3959 40.0426 18.1214 40.2499 17.7885L42.2691 14.5673L46.1441 8.41828C46.3764 8.0498 46.4997 7.6231 46.4997 7.18751C46.4997 6.75191 46.3764 6.32521 46.1441 5.95674L43.0672 1.07693C42.8599 0.746543 42.572 0.474334 42.2305 0.285932C41.889 0.0975299 41.5052 -0.000866961 41.1152 5.75507e-06H29.2931C28.8804 3.54005e-05 28.4753 0.110734 28.1199 0.320568C27.7646 0.530401 27.472 0.831692 27.2726 1.19305C27.0733 1.55441 26.9745 1.96261 26.9866 2.37512C26.9986 2.78764 27.1211 3.18937 27.3412 3.53847L36.3316 17.7885Z" fill="#007BFC"/>
</g>
</g>
<defs>
<clipPath id="clip0_8_679">
<rect width="1440" height="900" fill="white" transform="translate(-1187 -606)"/>
</clipPath>
<clipPath id="clip1_8_679">
<rect width="167.308" height="40" fill="white" transform="translate(0.346191)"/>
</clipPath>
</defs>
</svg>
