<svg width="50" height="44" viewBox="0 0 50 44" fill="none" xmlns="http://www.w3.org/2000/svg">
<g clip-path="url(#clip0_116_7104)">
<path d="M17.4167 1.54057C17.1958 1.17921 16.8863 0.8802 16.5176 0.671872C16.1489 0.463543 15.733 0.352789 15.3095 0.350098H2.5C1.83696 0.350098 1.20107 0.61349 0.732233 1.08233C0.263392 1.55117 0 2.18706 0 2.8501C0 3.32139 0.131966 3.78327 0.380952 4.18343L3.67857 9.02867L20.1667 5.45724L17.4167 1.54057Z" fill="#C9F4FF"/>
<path d="M20.2386 5.55249C20.015 5.19097 19.7032 4.8921 19.3326 4.68389C18.962 4.47568 18.5446 4.36493 18.1195 4.36202H5.35762C4.89889 4.34086 4.44325 4.44707 4.04116 4.66888C3.63906 4.8907 3.3062 5.21947 3.07943 5.61879C2.85265 6.01811 2.74082 6.4724 2.7563 6.93135C2.77178 7.39031 2.91398 7.83603 3.16715 8.21916L6.84572 14.0525L23.8814 11.3858L20.2386 5.55249Z" fill="#51B9FF"/>
<path d="M6.69012 13.8144C6.48362 13.4835 6.35584 13.1097 6.31662 12.7217C6.27741 12.3336 6.3278 11.9418 6.46393 11.5763C6.65079 11.0994 6.97901 10.6909 7.40457 10.4058C7.83014 10.1207 8.3327 9.97247 8.84488 9.98107H21.6068C22.0321 9.98286 22.4499 10.0931 22.8207 10.3015C23.1915 10.5098 23.5031 10.8092 23.7258 11.1715L35.1901 29.3501C35.4391 29.7503 35.5711 30.2122 35.5711 30.6834C35.5692 31.1545 35.4374 31.6159 35.1901 32.0168L28.7854 42.1715C28.5585 42.528 28.2453 42.8214 27.8749 43.0247C27.5045 43.2281 27.0888 43.3346 26.6663 43.3346C26.2438 43.3346 25.8281 43.2281 25.4577 43.0247C25.0873 42.8214 24.7741 42.528 24.5473 42.1715L6.69012 13.8144Z" fill="#007BFC"/>
<path d="M38.9766 19.6239C39.2035 19.9804 39.5166 20.2738 39.887 20.4771C40.2574 20.6804 40.6731 20.787 41.0956 20.787C41.5182 20.787 41.9339 20.6804 42.3043 20.4771C42.6747 20.2738 42.9878 19.9804 43.2147 19.6239L45.4171 16.1358L49.6194 9.46915C49.8684 9.06899 50.0004 8.60711 50.0004 8.13581C49.9985 7.66478 49.8667 7.2034 49.6194 6.80248L46.2861 1.54057C46.0625 1.17905 45.7508 0.880183 45.3802 0.671972C45.0095 0.463761 44.5921 0.353012 44.1671 0.350098H31.3575C31.0292 0.350098 30.7041 0.414762 30.4008 0.540399C30.0975 0.666036 29.8219 0.850184 29.5898 1.08233C29.3576 1.31448 29.1735 1.59008 29.0478 1.89339C28.9222 2.1967 28.8575 2.52179 28.8575 2.8501C28.8529 3.32372 28.9897 3.78796 29.2504 4.18343L38.9766 19.6239Z" fill="#007BFC"/>
</g>
<defs>
<clipPath id="clip0_116_7104">
<rect width="50" height="42.9643" fill="white" transform="translate(0 0.350098)"/>
</clipPath>
</defs>
</svg>
