<svg xmlns="http://www.w3.org/2000/svg" viewBox="0 0 1440 320">
  <path fill="#3C356C" fill-opacity="1" d="M0,64L34.3,64C68.6,64,137,64,206,80C274.3,96,343,128,411,165.3C480,203,549,245,617,250.7C685.7,256,754,224,823,202.7C891.4,181,960,171,1029,176C1097.1,181,1166,203,1234,192C1302.9,181,1371,139,1406,117.3L1440,96L1440,320L1405.7,320C1371.4,320,1303,320,1234,320C1165.7,320,1097,320,1029,320C960,320,891,320,823,320C754.3,320,686,320,617,320C548.6,320,480,320,411,320C342.9,320,274,320,206,320C137.1,320,69,320,34,320L0,320Z"></path>
</svg>