<svg width="20" height="20" viewBox="0 0 20 20" fill="none" xmlns="http://www.w3.org/2000/svg">
<g clip-path="url(#clip0_5112_25230)">
<path d="M8.54688 7.89453L12.2656 10.0078L8.54688 12.1211V7.89453ZM18.75 3.125V16.875C18.75 17.9102 17.9102 18.75 16.875 18.75H3.125C2.08984 18.75 1.25 17.9102 1.25 16.875V3.125C1.25 2.08984 2.08984 1.25 3.125 1.25H16.875C17.9102 1.25 18.75 2.08984 18.75 3.125ZM17.1094 10.0117C17.1094 10.0117 17.1094 7.68359 16.8125 6.56641C16.6484 5.94922 16.168 5.46484 15.5547 5.30078C14.4492 5 10 5 10 5C10 5 5.55078 5 4.44531 5.30078C3.83203 5.46484 3.35156 5.94922 3.1875 6.56641C2.89062 7.67969 2.89062 10.0117 2.89062 10.0117C2.89062 10.0117 2.89062 12.3398 3.1875 13.457C3.35156 14.0742 3.83203 14.5391 4.44531 14.7031C5.55078 15 10 15 10 15C10 15 14.4492 15 15.5547 14.6992C16.168 14.5352 16.6484 14.0703 16.8125 13.4531C17.1094 12.3398 17.1094 10.0117 17.1094 10.0117Z" fill="#374151"/>
</g>
<defs>
<clipPath id="clip0_5112_25230">
<rect width="20" height="20" fill="white"/>
</clipPath>
</defs>
</svg>
