<svg width="24" height="24" viewBox="0 0 24 24" fill="none" xmlns="http://www.w3.org/2000/svg">
<path d="M10.2563 9.47344L14.7188 12.0094L10.2563 14.5453V9.47344ZM22.5 3.75V20.25C22.5 21.4922 21.4922 22.5 20.25 22.5H3.75C2.50781 22.5 1.5 21.4922 1.5 20.25V3.75C1.5 2.50781 2.50781 1.5 3.75 1.5H20.25C21.4922 1.5 22.5 2.50781 22.5 3.75ZM20.5312 12.0141C20.5312 12.0141 20.5312 9.22031 20.175 7.87969C19.9781 7.13906 19.4016 6.55781 18.6656 6.36094C17.3391 6 12 6 12 6C12 6 6.66094 6 5.33438 6.36094C4.59844 6.55781 4.02187 7.13906 3.825 7.87969C3.46875 9.21563 3.46875 12.0141 3.46875 12.0141C3.46875 12.0141 3.46875 14.8078 3.825 16.1484C4.02187 16.8891 4.59844 17.4469 5.33438 17.6437C6.66094 18 12 18 12 18C12 18 17.3391 18 18.6656 17.6391C19.4016 17.4422 19.9781 16.8844 20.175 16.1437C20.5312 14.8078 20.5312 12.0141 20.5312 12.0141Z" fill="#ABADC6"/>
</svg> 